<svg width="976" height="866" viewBox="0 0 976 866" fill="none" xmlns="http://www.w3.org/2000/svg">
<g clip-path="url(#clip0_21_1095)">
<path d="M349.37 211.91H348.523C346.83 334.12 338.997 405.073 338.785 523.47H359.32C360.802 406.344 351.699 333.696 349.37 211.91Z" fill="#0D47A1"/>
<path d="M349.159 316.964C356.641 316.964 362.707 315.92 362.707 314.634C362.707 313.347 356.641 312.304 349.159 312.304C341.676 312.304 335.61 313.347 335.61 314.634C335.61 315.92 341.676 316.964 349.159 316.964Z" fill="#0D47A1"/>
<path d="M335.821 307.221C335.821 308.492 341.749 309.551 349.37 309.551C356.78 309.551 362.919 308.492 362.919 307.221C362.919 305.95 356.991 304.891 349.37 304.891C341.749 305.103 335.821 305.95 335.821 307.221Z" fill="#0D47A1"/>
<path d="M349.159 302.349C356.641 302.349 362.707 301.306 362.707 300.02C362.707 298.733 356.641 297.69 349.159 297.69C341.676 297.69 335.61 298.733 335.61 300.02C335.61 301.306 341.676 302.349 349.159 302.349Z" fill="#0D47A1"/>
<path d="M318.25 417.146C318.25 420.746 332.222 430.278 349.159 430.278C366.306 430.278 380.067 420.746 380.067 417.146C380.067 413.545 366.095 410.58 349.159 410.58C332.222 410.368 318.25 413.333 318.25 417.146Z" fill="#0D47A1"/>
<path d="M318.25 409.521C318.25 405.92 332.222 396.389 349.159 396.389C366.306 396.389 380.067 405.92 380.067 409.521C380.067 413.121 366.095 416.087 349.159 416.087C332.222 416.087 318.25 413.121 318.25 409.521Z" fill="#0D47A1"/>
<path d="M328.835 371.82C328.835 373.727 337.938 379.022 349.159 379.022C360.379 379.022 369.482 373.938 369.482 371.82C369.482 369.914 360.379 368.22 349.159 368.22C337.938 368.22 328.835 369.914 328.835 371.82Z" fill="#0D47A1"/>
<path d="M369.694 332.849C369.694 330.943 360.59 329.248 349.37 329.248C338.15 329.248 329.047 330.943 329.047 332.849C329.047 334.332 329.047 363.772 329.047 365.255C329.047 367.161 338.15 372.456 349.37 372.456C360.59 372.456 369.694 367.373 369.694 365.255C369.694 363.984 369.694 334.332 369.694 332.849Z" fill="#0D47A1"/>
<path d="M270.406 523.47H279.72C280.779 454.423 278.027 385.164 274.851 315.269C272.099 384.528 270.617 453.999 270.406 523.47Z" fill="#0D47A1"/>
<path d="M218.962 523.47H228.277C229.335 461.836 226.583 399.778 223.408 337.297C220.656 399.354 219.174 461.412 218.962 523.47Z" fill="#0D47A1"/>
<path d="M243.519 523.47H250.082C250.929 475.179 249.024 426.465 246.695 377.539C244.789 426.253 243.731 474.756 243.519 523.47Z" fill="#0D47A1"/>
<path d="M251.776 427.948C251.776 414.816 262.361 404.226 275.487 404.226C288.612 404.226 299.197 414.816 299.197 427.948C299.197 441.079 288.612 451.669 275.487 451.669C262.149 451.669 251.776 441.079 251.776 427.948Z" fill="#0D47A1"/>
<path d="M249.87 419.264C249.87 417.781 261.302 416.51 275.275 416.51C289.247 416.51 300.679 417.781 300.679 419.264C300.679 420.747 289.247 422.017 275.275 422.017C261.302 422.017 249.87 420.747 249.87 419.264Z" fill="#0D47A1"/>
<path d="M258.55 372.032C258.55 362.713 265.96 355.3 275.275 355.3C284.59 355.3 291.999 362.713 291.999 372.032C291.999 381.351 284.59 388.764 275.275 388.764C265.96 388.764 258.55 381.14 258.55 372.032Z" fill="#0D47A1"/>
<path d="M204.354 438.75C204.354 427.948 213.034 419.264 223.831 419.264C234.628 419.264 243.308 427.948 243.308 438.75C243.308 449.552 234.628 458.235 223.831 458.235C213.034 458.235 204.354 449.552 204.354 438.75Z" fill="#0D47A1"/>
<path d="M625.43 278.839V524.741H696.35V278.839H625.43ZM676.45 325.647C674.756 331.578 668.405 340.05 660.784 340.05C653.374 340.05 646.812 331.578 645.118 325.647L634.321 287.311H687.035L676.45 325.647Z" fill="#1976D2"/>
<path d="M411.611 443.621H286.918V477.509H411.611V443.621Z" fill="#1976D2"/>
<path d="M406.953 434.09H291.787V447.645H406.953V434.09Z" fill="#1976D2"/>
<path d="M349.37 483.863C380.822 483.863 406.318 464.424 406.318 440.444C406.318 416.464 380.822 397.025 349.37 397.025C317.919 397.025 292.422 416.464 292.422 440.444C292.422 464.424 317.919 483.863 349.37 483.863Z" fill="#1976D2"/>
<path d="M349.794 394.695L349.37 379.869L348.735 394.695L348.1 398.931H350.429L349.794 394.695Z" fill="#1976D2"/>
<path d="M349.37 392.365C350.657 392.365 351.699 391.322 351.699 390.035C351.699 388.748 350.657 387.705 349.37 387.705C348.084 387.705 347.042 388.748 347.042 390.035C347.042 391.322 348.084 392.365 349.37 392.365Z" fill="#1976D2"/>
<path d="M347.888 385.375C347.888 386.223 348.524 386.858 349.37 386.858C350.217 386.858 350.852 386.223 350.852 385.375C350.852 384.528 350.217 383.893 349.37 383.893C348.524 383.893 347.888 384.528 347.888 385.375Z" fill="#1976D2"/>
<path d="M347.888 394.483C347.888 395.33 348.524 395.965 349.37 395.965C350.217 395.965 350.852 395.33 350.852 394.483C350.852 393.636 350.217 393 349.37 393C348.524 393 347.888 393.636 347.888 394.483Z" fill="#1976D2"/>
<path d="M435.533 480.686H263.843V524.953H435.533V480.686Z" fill="#1976D2"/>
<path d="M299.409 471.579H399.332L433.204 482.169H265.536L299.409 471.579Z" fill="#1976D2"/>
<path d="M298.985 493.394H297.715H294.539H283.319V482.592L282.049 480.474V477.086C282.049 476.45 281.626 475.815 280.991 475.815C280.355 475.815 279.932 476.45 279.932 477.086L268.923 467.343H230.817L228.912 465.648L220.02 457.6H197.368V438.114V407.191V405.285V403.59V402.32V401.049V394.059V393V391.73V390.671V388.764V387.494V386.435V385.164V384.105V379.657L195.886 384.105L194.404 379.657L192.922 384.105L191.441 379.657L191.229 380.08V360.595V359.959V359.324V357.206V356.147V354.029V352.546V348.098L189.747 352.546L188.265 348.098L187.842 349.369C187.842 349.369 187.842 349.369 187.842 349.157C187.842 348.946 187.842 348.522 187.842 348.31V348.098C187.842 347.887 187.842 347.675 187.842 347.463C187.842 347.251 187.842 347.251 187.842 347.039C187.842 346.828 187.842 346.616 187.63 346.616C187.63 346.404 187.63 346.404 187.63 346.192C187.63 345.98 187.63 345.769 187.418 345.769C187.418 345.557 187.418 345.557 187.206 345.345C187.206 345.133 186.995 345.133 186.995 344.921C186.995 344.71 186.783 344.71 186.783 344.498C186.783 344.286 186.571 344.286 186.571 344.074C186.571 343.862 186.36 343.862 186.36 343.651C186.36 343.439 186.148 343.439 186.148 343.227C186.148 343.015 185.936 343.015 185.936 342.803C185.936 342.592 185.725 342.592 185.725 342.38L185.513 342.168L185.301 341.956L185.089 341.744L184.878 341.533C184.666 341.533 184.666 341.321 184.454 341.321L184.243 341.109C184.031 341.109 184.031 340.897 183.819 340.897L183.608 340.685C183.396 340.685 183.396 340.474 183.184 340.474C183.184 340.474 182.972 340.474 182.972 340.262C182.761 340.262 182.761 340.05 182.549 340.05H182.337C182.126 340.05 182.126 340.05 181.914 339.838H181.702C181.491 339.838 181.279 339.838 181.279 339.838V338.567H181.491H181.702C181.914 338.567 181.914 338.356 182.126 338.356C182.126 338.356 182.337 338.356 182.337 338.144L182.549 337.932C182.549 337.932 182.549 337.932 182.761 337.72L182.972 337.508C182.972 337.508 182.972 337.297 183.184 337.297C183.184 337.297 183.184 337.085 183.396 337.085V336.873C183.396 336.661 183.396 336.661 183.396 336.449C183.396 336.449 183.396 336.449 183.396 336.238C183.396 336.026 183.396 335.814 183.396 335.602C183.396 335.39 183.396 335.179 183.396 334.967V334.755C183.396 334.543 183.396 334.543 183.396 334.331V334.12C183.396 334.12 183.396 333.908 183.184 333.908C183.184 333.908 183.184 333.696 182.972 333.696L182.761 333.484C182.761 333.484 182.761 333.272 182.549 333.272L182.337 333.061C182.337 333.061 182.337 333.061 182.126 332.849C182.126 332.849 181.914 332.849 181.914 332.637C181.914 332.637 181.914 332.637 181.702 332.637C181.491 332.637 181.491 332.637 181.279 332.425V332.213H181.491H181.702C181.702 332.213 181.914 332.213 181.914 332.002L182.126 331.79C182.126 331.79 182.337 331.79 182.337 331.578C182.337 331.578 182.337 331.578 182.549 331.366L182.761 331.154C182.761 331.154 182.761 330.943 182.972 330.943C182.972 330.943 182.972 330.731 183.184 330.731V330.519V330.307C183.184 330.307 183.184 330.307 183.184 330.095C183.184 329.884 183.184 329.884 183.184 329.672C183.184 329.46 183.184 329.248 183.184 329.248C183.184 329.248 183.184 329.248 183.184 329.036V328.825C183.184 328.825 183.184 328.825 183.184 328.613C183.184 328.613 183.184 328.401 182.972 328.401C182.972 328.401 182.972 328.401 182.972 328.189L182.761 327.977C182.761 327.977 182.761 327.977 182.549 327.766L182.337 327.554C182.337 327.554 182.337 327.554 182.126 327.554L181.914 327.342C181.702 327.342 181.702 327.342 181.491 327.13V326.918C181.491 326.918 181.491 326.918 181.702 326.918C181.914 326.918 181.914 326.918 182.126 326.707C182.126 326.707 182.126 326.707 182.337 326.707C182.337 326.707 182.549 326.707 182.549 326.495C182.549 326.495 182.761 326.495 182.761 326.283C182.761 326.283 182.761 326.283 182.972 326.071C182.972 326.071 182.972 325.859 183.184 325.859C183.184 325.859 183.184 325.859 183.184 325.648C183.184 325.648 183.184 325.436 183.396 325.436C183.396 325.436 183.396 325.436 183.396 325.224V325.012C183.396 325.012 183.396 325.012 183.396 324.8C183.396 324.589 183.396 324.589 183.396 324.377C183.396 324.165 183.396 324.165 183.396 323.953C183.396 323.953 183.396 323.953 183.396 323.741V323.529C183.396 323.529 183.396 323.53 183.396 323.318C183.396 323.318 183.396 323.106 183.184 323.106C183.184 323.106 183.184 323.106 183.184 322.894C183.184 322.894 183.184 322.682 182.972 322.682C182.972 322.682 182.972 322.682 182.761 322.47C182.761 322.47 182.549 322.47 182.549 322.259C182.549 322.259 182.549 322.259 182.337 322.259C182.337 322.259 182.126 322.259 182.126 322.047H181.914H181.702H181.491V318.87H181.279H181.067H180.644V322.047C179.585 322.259 178.738 323.318 178.738 324.377C178.738 325.436 179.585 326.495 180.644 326.707V327.13C179.585 327.342 178.738 328.401 178.738 329.672C178.738 330.943 179.585 331.79 180.644 332.213V332.425C179.374 332.637 178.315 333.908 178.315 335.179C178.315 336.449 179.162 337.72 180.432 337.932V339.203C176.41 339.626 173.234 343.651 173.234 348.522L172.811 347.251L171.329 351.699L169.847 347.251V351.699V353.182V355.3V356.359V358.477V359.112V359.748V379.233L168.577 383.258L167.095 378.81L165.613 383.258L164.131 378.81V383.258V384.317V385.587V386.646V387.917V389.823V390.882V392.153V393.424V400.413V401.684V402.955V404.014V405.92V456.329H140.844L130.047 466.072H91.9406L80.932 475.815C80.932 475.179 80.5086 474.544 79.8735 474.544C79.2384 474.544 78.815 475.179 78.815 475.815V479.204L77.5448 481.322V492.124H67.3831H66.1129H62.9374H60.6086V492.971V508.22V524.529H62.7257H63.1491H66.5363H68.4416H69.5001H69.9235H70.982H71.8289H74.1576H74.581H75.2161H80.7203H81.1437H82.2023H85.5895H86.648H88.765H89.1884H92.7874H94.6927H95.5395H95.9629H97.0214H97.8682H100.197H100.62H101.255H106.76H107.183H108.03H111.841H112.899H117.133H117.557H120.944H124.119V524.741H125.178H125.601H126.66V524.529H127.295H128.777H129.835H130.682H131.952V524.741H133.011H133.434H134.493V524.529H134.704H135.551H139.574V524.741H140.632H141.055H142.114V524.529H142.749H143.596H144.443H147.195V524.741H148.253H148.677H149.735V524.529H149.947H151.005H154.816V524.741H155.875H156.298H157.356V524.529H162.437V524.741H163.496H163.919H164.554V524.953H180.009V524.529H180.432H180.644V524.953H196.098V524.529H196.733H197.792H198.215H199.274V524.317H204.354V524.529H205.413H205.836H207.106V524.317H210.705H211.976H212.187V524.529H213.246H213.669H214.728V524.317H217.268H217.903H219.809V524.529H220.867H221.291H222.349V524.317H225.313H226.16H226.795H227.006H227.43V524.529H228.488H228.912H229.97V524.317H233.358H234.416H235.051V524.529H236.11H236.533H237.592V524.317H239.497H243.096H243.519H247.965H248.812H249.023H250.082H250.929H253.258H253.681H254.316H260.032H260.455H261.302H264.689H265.748H265.96H267.865H268.288H271.676H273.793H274.639H274.851H275.91H276.756H279.085H279.509H280.144H285.648H286.071H286.918H290.517H291.576H291.787H293.693H294.116H297.503H299.62V509.491V494.242V493.394H298.985Z" fill="#42A5F5"/>
<path d="M831.628 444.257L917.155 525.8H745.888L831.628 444.257Z" fill="#42A5F5"/>
<path d="M723.448 377.539L567.847 525.8H745.888L810.034 460.142L723.448 377.539Z" fill="#42A5F5"/>
<path d="M625.43 414.604L508.994 525.8H567.847L653.163 441.079L625.43 414.604Z" fill="#42A5F5"/>
<path d="M515.784 281H510.491V526.69H515.784V281Z" fill="#42A5F5"/>
<path d="M456.931 363.179C435.125 391.984 422 429.049 422 469.503C422 489.624 425.175 508.898 431.103 526.69H513.455V363.179H456.931V363.179Z" fill="#42A5F5"/>
<path d="M422 469.715C422 489.836 425.387 509.11 431.315 526.901H515.572V316.794C460.741 341.999 422 400.88 422 469.715ZM509.856 520.759H435.76C430.68 504.239 427.927 487.083 427.927 469.503C427.927 408.504 459.683 353.224 509.644 326.326V520.759H509.856Z" fill="#42A5F5"/>
<path d="M456.084 469.715C456.084 489.836 458.201 509.11 462.011 526.901H515.784V316.794C480.641 341.999 456.084 400.88 456.084 469.715ZM509.856 520.759H466.881C463.705 504.239 462.011 487.083 462.011 469.503C462.011 410.623 480.43 357.46 509.856 329.291V520.759V520.759Z" fill="#42A5F5"/>
<path d="M453.332 362.755C453.12 367.839 471.538 373.134 494.825 374.404C517.901 375.887 536.954 372.922 537.377 367.839C537.589 362.755 519.171 357.46 495.884 356.19C472.597 354.707 453.543 357.672 453.332 362.755Z" fill="#42A5F5"/>
<path d="M138.938 521.352C138.092 505.255 124.966 492.335 108.665 492.335C92.3639 492.335 79.2384 505.255 78.3916 521.352H138.938Z" fill="#42A5F5"/>
<path d="M586.053 521.988C585.418 508.644 574.41 497.842 560.861 497.842C547.312 497.842 536.303 508.644 535.668 521.988H586.053Z" fill="#0D47A1"/>
<path d="M152.699 521.352C152.064 508.22 141.267 497.63 127.93 497.63C114.593 497.63 103.796 508.22 103.161 521.352H152.699Z" fill="#0D47A1"/>
<path d="M127.718 521.352H152.487C151.852 508.22 141.055 497.63 127.718 497.63V521.352Z" fill="#2196F3"/>
<path d="M119.25 465.013C123.061 464.801 135.128 469.884 135.128 469.673C134.704 456.753 119.885 459.718 119.673 459.294C119.462 458.871 132.164 456.117 131.952 455.905C120.097 444.892 115.228 458.024 115.228 456.753C114.804 449.128 105.913 448.069 105.913 448.069C105.913 448.069 112.687 457.6 110.359 456.117C97.8681 448.281 91.7287 461.201 92.9989 460.777C97.8681 458.871 109.935 461.836 109.3 462.048C98.0798 463.742 96.5979 476.874 96.5979 476.874C106.124 475.391 111.417 469.673 113.746 466.284C113.322 477.933 112.052 502.078 110.57 521.564L116.71 521.776L115.651 471.367C117.133 479.415 124.119 485.346 124.331 484.711C130.682 471.155 119.038 465.013 119.25 465.013Z" fill="#0D47A1"/>
<path d="M151.852 509.491C148.677 509.491 145.713 510.762 143.384 512.88C141.267 510.762 138.303 509.491 134.916 509.491C131.74 509.491 128.777 510.762 126.66 512.88C124.543 510.762 121.579 509.491 118.403 509.491C111.84 509.491 106.76 514.574 106.336 520.928H122.849H130.47H139.573H146.983H163.707C163.707 514.574 158.415 509.491 151.852 509.491Z" fill="#2196F3"/>
<path d="M107.606 516.904C106.336 516.904 105.278 517.328 104.431 518.175C103.584 517.328 102.526 516.904 101.255 516.904C99.9851 516.904 98.9266 517.328 98.0798 518.175C97.233 517.328 96.1745 516.904 94.9043 516.904C92.3638 516.904 90.4585 518.811 90.2468 521.352H96.5979H99.5617H103.161H105.913H112.476C112.052 518.811 110.147 516.904 107.606 516.904Z" fill="#0D47A1"/>
<path d="M162.014 516.904C160.744 516.904 159.685 517.328 158.838 518.175C157.992 517.328 156.933 516.904 155.663 516.904C154.393 516.904 153.334 517.328 152.487 518.175C151.64 517.328 150.582 516.904 149.312 516.904C146.771 516.904 144.866 518.811 144.654 521.352H151.005H153.969H157.568H160.32H166.883C166.46 518.811 164.554 516.904 162.014 516.904Z" fill="#0D47A1"/>
<path d="M496.927 521.352C496.292 508.856 485.918 498.689 473.216 498.689C460.514 498.689 450.14 508.644 449.505 521.352H496.927Z" fill="#0D47A1"/>
<path d="M473.216 520.717H496.927C496.292 508.22 485.918 498.054 473.216 498.054V520.717Z" fill="#2196F3"/>
<path d="M490.364 465.86C488.247 467.131 494.598 459.083 494.598 459.083C494.598 459.083 486.13 459.93 485.707 466.496C485.707 467.555 481.049 456.329 469.829 465.86C469.617 466.072 481.684 468.402 481.472 468.825C481.261 469.249 467.077 466.707 466.653 477.721C466.653 477.933 478.085 473.485 481.684 473.697C481.896 473.697 470.887 478.78 476.815 490.217C477.027 490.853 483.801 485.77 485.071 478.992L484.225 521.988L490.152 521.776C488.67 505.255 487.612 484.711 487.188 474.756C489.305 477.509 494.386 482.381 503.489 483.652C503.489 483.652 502.008 472.638 491.422 471.155C490.787 471.155 502.219 468.614 506.877 470.096C508.147 470.096 502.219 459.083 490.364 465.86Z" fill="#0D47A1"/>
<path d="M530.375 508.644C526.777 508.644 523.389 510.127 520.849 512.456C518.308 510.127 515.133 508.644 511.322 508.644C507.723 508.644 504.336 510.127 502.007 512.456C499.467 510.127 496.291 508.644 492.692 508.644C485.283 508.644 479.355 514.363 479.144 521.564H497.773H506.453H516.827H525.083H544.136C543.713 514.363 537.785 508.644 530.375 508.644Z" fill="#2196F3"/>
<path d="M465.171 491.276C469.405 491.065 483.378 496.36 483.378 496.148C482.319 481.322 465.595 485.346 465.383 484.922C465.171 484.499 479.355 480.686 479.144 480.474C465.171 468.402 460.302 483.652 460.09 482.169C459.244 473.485 449.294 472.426 449.294 472.426C449.294 472.426 457.338 483.016 454.798 481.533C440.402 473.061 433.839 487.888 435.321 487.464C440.826 485.134 454.798 488.099 453.739 488.311C441.037 490.641 439.979 505.467 439.979 505.467C450.14 503.349 455.856 497.419 458.609 493.394C457.973 500.172 456.915 510.55 456.492 520.929L461.572 521.988L461.361 497.63C462.843 507.161 471.522 513.939 471.946 513.092C478.509 497.842 464.748 491.488 465.171 491.276Z" fill="#2196F3"/>
<path d="M454.798 517.328C453.528 517.328 452.469 517.751 451.622 518.599C450.776 517.751 449.717 517.328 448.447 517.328C447.177 517.328 446.118 517.751 445.483 518.599C444.636 517.751 443.578 517.328 442.519 517.328C440.19 517.328 438.073 519.234 438.073 521.564H444.213H446.965H450.352H453.104H459.244C459.244 519.234 457.338 517.328 454.798 517.328Z" fill="#0D47A1"/>
<path d="M487.823 517.328C486.553 517.328 485.495 517.751 484.648 518.599C483.801 517.751 482.743 517.328 481.472 517.328C480.202 517.328 479.144 517.751 478.508 518.599C477.662 517.751 476.603 517.328 475.545 517.328C473.216 517.328 471.099 519.234 471.099 521.564H477.238H479.99H483.378H486.13H492.269C492.269 519.234 490.152 517.328 487.823 517.328Z" fill="#0D47A1"/>
<path d="M549.852 517.328C548.582 517.328 547.523 517.751 546.677 518.599C545.83 517.751 544.771 517.328 543.501 517.328C542.231 517.328 541.172 517.751 540.537 518.599C539.69 517.751 538.632 517.328 537.573 517.328C535.245 517.328 533.128 519.234 533.128 521.564H539.267H542.019H545.406H548.159H554.298C554.086 519.234 552.181 517.328 549.852 517.328Z" fill="#0D47A1"/>
<path d="M619.714 521.564C619.079 509.068 608.705 498.901 596.003 498.901C583.301 498.901 572.928 508.856 572.292 521.564H619.714Z" fill="#0D47A1"/>
<path d="M596.003 521.564H619.714C619.079 509.068 608.705 498.901 596.003 498.901V521.564Z" fill="#2196F3"/>
<path d="M623.948 517.328C622.678 517.328 621.619 517.751 620.772 518.599C619.926 517.751 618.867 517.328 617.597 517.328C616.327 517.328 615.268 517.751 614.633 518.599C613.786 517.751 612.728 517.328 611.669 517.328C609.34 517.328 607.223 519.234 607.223 521.564H613.363H616.115H619.502H622.254H628.394C628.394 519.234 626.488 517.328 623.948 517.328Z" fill="#0D47A1"/>
<path d="M894.927 522.623C893.868 499.748 875.027 481.533 851.951 481.533C828.876 481.533 810.034 499.748 808.976 522.623H894.927Z" fill="#0D47A1"/>
<path d="M717.732 467.766C721.331 467.766 732.763 472.426 732.763 472.214C732.339 459.93 718.155 462.683 717.944 462.26C717.732 461.836 729.799 459.083 729.587 459.083C718.155 448.493 713.71 461.201 713.71 459.93C713.286 452.517 704.818 451.458 704.818 451.458C704.818 451.458 711.169 460.565 709.052 459.083C697.197 451.67 691.269 463.954 692.539 463.53C697.197 461.836 708.84 464.589 707.994 464.801C697.409 466.496 695.927 478.78 695.927 478.78C705.03 477.298 710.111 471.791 712.228 468.825C711.804 479.839 710.534 503.137 709.264 521.564L715.192 521.776L714.345 473.697C715.615 481.322 722.389 487.04 722.601 486.405C728.74 473.485 717.52 467.766 717.732 467.766Z" fill="#2196F3"/>
<path d="M702.489 521.776C702.066 512.033 694.021 504.196 684.071 504.196C674.121 504.196 666.077 512.033 665.653 521.776H702.489Z" fill="#2196F3"/>
<path d="M684.071 521.776H702.489C702.066 512.033 694.021 504.196 684.071 504.196V521.776Z" fill="#2196F3"/>
<path d="M709.687 517.328C708.417 517.328 707.359 517.751 706.512 518.599C705.665 517.751 704.606 517.328 703.336 517.328C702.066 517.328 701.008 517.751 700.372 518.599C699.526 517.751 698.467 517.328 697.409 517.328C695.08 517.328 692.963 519.234 692.963 521.564H699.102H701.854H705.242H707.994H714.133C714.133 519.234 712.228 517.328 709.687 517.328Z" fill="#0D47A1"/>
<path d="M253.469 474.756C251.564 475.815 257.492 468.402 257.492 468.402C257.492 468.402 249.659 469.249 249.235 475.391C249.235 476.45 245.001 466.072 234.416 474.756C234.204 474.968 245.424 477.086 245.213 477.509C245.001 477.933 231.876 475.391 231.452 485.77C231.452 485.981 242.037 481.957 245.424 481.957C245.636 481.957 235.263 486.829 240.979 497.419C241.19 497.842 247.118 493.606 248.6 487.464L247.33 522.623L252.834 522.411C251.564 507.585 250.717 491.065 250.294 482.804C252.411 485.346 257.068 490.006 265.536 491.276C265.536 491.276 264.266 480.898 254.316 479.627C253.681 479.627 264.478 477.086 268.712 478.568C269.77 478.78 264.478 468.614 253.469 474.756Z" fill="#0D47A1"/>
<path d="M336.033 521.564C335.61 512.457 328.2 505.255 319.097 505.255C309.994 505.255 302.584 512.457 302.161 521.564H336.033Z" fill="#2196F3"/>
<path d="M319.097 521.564H336.033C335.61 512.457 328.2 505.255 319.097 505.255V521.564Z" fill="#2196F3"/>
<path d="M254.528 516.481C254.528 519.446 252.199 521.776 249.235 521.776C246.271 521.776 243.943 519.446 243.943 516.481C243.943 513.516 246.271 511.186 249.235 511.186C251.987 511.186 254.528 513.516 254.528 516.481Z" fill="#42A5F5"/>
<path d="M225.948 512.245C223.408 512.245 220.867 513.304 219.174 514.998C217.48 513.304 214.939 512.245 212.399 512.245C209.859 512.245 207.53 513.304 205.625 514.998C203.931 513.304 201.602 512.245 198.85 512.245C193.558 512.245 189.324 516.481 189.112 521.564H202.449H208.588H215.998H221.926H235.475C235.475 516.269 231.241 512.245 225.948 512.245Z" fill="#2196F3"/>
<path d="M360.379 512.245C357.838 512.245 355.298 513.304 353.604 514.998C351.911 513.304 349.37 512.245 346.83 512.245C344.29 512.245 341.961 513.304 340.055 514.998C338.362 513.304 336.033 512.245 333.281 512.245C327.988 512.245 323.754 516.481 323.543 521.564H336.88H343.019H350.429H356.357H369.905C369.905 516.269 365.671 512.245 360.379 512.245Z" fill="#2196F3"/>
<path d="M272.946 499.748C276.121 499.536 286.071 503.349 286.071 503.137C285.436 492.547 273.369 495.512 273.158 495.089C272.946 494.665 283.108 492.123 283.108 491.912C273.158 483.228 269.559 494.03 269.559 492.971C268.924 486.828 261.726 485.981 261.726 485.981C261.726 485.981 267.442 493.606 265.536 492.547C255.163 486.405 250.505 497.207 251.564 496.783C255.375 495.089 265.536 497.207 264.901 497.419C255.798 499.113 254.951 509.703 254.951 509.703C262.149 508.22 266.171 503.984 268.288 501.231C267.653 506.314 266.807 514.363 266.383 522.411L269.982 523.258L270.194 503.773C270.194 503.984 270.194 504.196 270.194 504.408C271.252 511.397 277.603 516.057 277.815 515.633C282.261 504.408 272.523 499.748 272.946 499.748Z" fill="#2196F3"/>
<path d="M258.973 518.387C258.127 518.387 257.28 518.811 256.856 519.234C256.221 518.599 255.586 518.387 254.739 518.387C253.893 518.387 253.046 518.811 252.622 519.234C251.987 518.599 251.352 518.387 250.505 518.387C248.812 518.387 247.33 519.658 247.33 521.352H251.776H253.893H255.798H257.703H262.149C262.149 519.87 260.667 518.387 258.973 518.387Z" fill="#2196F3"/>
<path d="M387.688 518.387C386.842 518.387 385.995 518.811 385.36 519.234C384.724 518.599 384.089 518.387 383.243 518.387C382.396 518.387 381.549 518.811 381.126 519.234C380.49 518.599 379.855 518.387 379.009 518.387C377.315 518.387 375.833 519.658 375.833 521.352H380.279H382.396H384.724H386.63H391.076C390.864 519.87 389.382 518.387 387.688 518.387Z" fill="#0D47A1"/>
<path d="M307.665 518.387C306.818 518.387 305.971 518.811 305.336 519.234C304.701 518.599 304.066 518.387 303.219 518.387C302.372 518.387 301.526 518.811 301.102 519.234C300.467 518.599 299.832 518.387 298.985 518.387C297.291 518.387 295.81 519.658 295.81 521.352H300.255H302.372H304.701H306.606H311.052C310.84 519.87 309.359 518.387 307.665 518.387Z" fill="#0D47A1"/>
<path d="M332.857 518.387C332.011 518.387 331.164 518.811 330.529 519.234C329.894 518.599 329.259 518.387 328.412 518.387C327.565 518.387 326.718 518.811 326.295 519.234C325.66 518.599 325.025 518.387 324.178 518.387C322.484 518.387 321.002 519.658 321.002 521.352H325.448H327.565H329.894H331.799H336.245C336.033 519.87 334.551 518.387 332.857 518.387Z" fill="#0D47A1"/>
<path d="M876.72 509.703C873.121 509.703 869.734 511.186 867.194 513.516C864.653 511.186 861.478 509.703 857.667 509.703C854.068 509.703 850.681 511.186 848.352 513.516C845.812 511.186 842.636 509.703 839.037 509.703C831.628 509.703 825.7 515.422 825.488 522.623H844.118H852.798H863.171H871.428H890.481C890.057 515.422 884.13 509.703 876.72 509.703Z" fill="#2196F3"/>
<path d="M828.452 517.328C827.182 517.328 826.123 517.751 825.276 518.599C824.43 517.751 823.371 517.328 822.101 517.328C820.831 517.328 819.772 517.751 819.137 518.599C818.29 517.751 817.232 517.328 816.173 517.328C813.845 517.328 811.728 519.234 811.728 521.564H817.867H820.619H824.006H826.758H832.898C832.686 519.234 830.781 517.328 828.452 517.328Z" fill="#0D47A1"/>
<path d="M882.86 486.617C882.86 486.617 881.166 507.161 879.261 522.411H884.342L884.13 486.617H882.86Z" fill="#0D47A1"/>
<path d="M865.077 509.915C865.077 509.915 864.653 495.301 876.72 491.7C877.567 491.488 863.595 490.006 858.514 492.759C857.244 493.394 861.901 478.145 876.932 484.922C879.684 486.193 870.581 476.662 870.581 476.662C870.581 476.662 880.531 476.45 882.225 484.922C882.436 486.405 885.823 470.943 900.643 481.322C900.854 481.534 887.305 486.617 887.729 487.04C888.152 487.464 904.03 481.745 906.57 496.148C906.57 496.36 892.386 492.759 888.364 493.394C887.94 493.394 901.913 498.266 897.044 514.151C896.832 514.998 887.517 509.28 884.977 499.96C883.706 495.512 883.495 492.759 883.495 492.759C883.495 492.759 879.472 505.255 865.077 509.915Z" fill="#0D47A1"/>
<path d="M898.314 516.904C897.044 516.904 895.985 517.328 895.138 518.175C894.291 517.328 893.233 516.904 891.963 516.904C890.693 516.904 889.634 517.328 888.999 518.175C888.152 517.328 887.094 516.904 886.035 516.904C883.706 516.904 881.589 518.811 881.589 521.14H887.729H890.481H893.868H896.62H902.76C902.548 518.811 900.643 516.904 898.314 516.904Z" fill="#0D47A1"/>
<path d="M927.74 520.928H52.564V527.918H927.74V520.928Z" fill="#42A5F5"/>
<path d="M565.285 414.177L607.837 420.32C610.801 420.743 612.918 422.861 612.918 425.403V540.411H565.285V414.177Z" fill="#0D47A1"/>
<path d="M565.285 467.128H517.652V540.411H565.285V467.128Z" fill="#0D47A1"/>
<path d="M531.624 381.772H565.497V477.082H529.296V384.313C529.084 382.831 530.143 381.772 531.624 381.772Z" fill="#0D47A1"/>
<path d="M565.285 325.009L596.829 330.939C599.581 331.363 601.486 333.693 601.486 336.023V437.476H565.285V325.009Z" fill="#0D47A1"/>
<path d="M565.285 327.551H542.209V437.476H565.285V327.551Z" fill="#0D47A1"/>
<path d="M544.75 272.482H565.285V382.407H542.209V275.024C542.209 273.541 543.48 272.482 544.75 272.482Z" fill="#0D47A1"/>
<path d="M565.285 214.872L584.338 220.591C586.879 221.226 588.361 223.344 588.361 225.462V333.905H565.285V214.872Z" fill="#0D47A1"/>
<path d="M557.452 162.345H565.285V272.27H554.912V164.887C554.912 163.616 555.97 162.345 557.452 162.345Z" fill="#0D47A1"/>
<path d="M565.285 111.725L575.659 116.173V221.862H565.285V111.725Z" fill="#0D47A1"/>
<path d="M565.285 70H562.11V162.769H565.285V70Z" fill="#0D47A1"/>
<path d="M635.57 481.53H495V540.411H635.57V481.53Z" fill="#0D47A1"/>
<path d="M349.37 211.91H348.523C346.83 334.12 338.997 405.073 338.785 523.47H359.32C360.802 406.344 351.699 333.696 349.37 211.91Z" fill="#0D47A1"/>
<path d="M349.159 316.964C356.641 316.964 362.707 315.92 362.707 314.634C362.707 313.347 356.641 312.304 349.159 312.304C341.676 312.304 335.61 313.347 335.61 314.634C335.61 315.92 341.676 316.964 349.159 316.964Z" fill="#0D47A1"/>
<path d="M335.821 307.221C335.821 308.492 341.749 309.551 349.37 309.551C356.78 309.551 362.919 308.492 362.919 307.221C362.919 305.95 356.991 304.891 349.37 304.891C341.749 305.103 335.821 305.95 335.821 307.221Z" fill="#0D47A1"/>
<path d="M349.159 302.349C356.641 302.349 362.707 301.306 362.707 300.02C362.707 298.733 356.641 297.69 349.159 297.69C341.676 297.69 335.61 298.733 335.61 300.02C335.61 301.306 341.676 302.349 349.159 302.349Z" fill="#0D47A1"/>
<path d="M318.25 417.146C318.25 420.746 332.222 430.278 349.159 430.278C366.306 430.278 380.067 420.746 380.067 417.146C380.067 413.545 366.095 410.58 349.159 410.58C332.222 410.368 318.25 413.333 318.25 417.146Z" fill="#0D47A1"/>
<path d="M318.25 409.521C318.25 405.92 332.222 396.389 349.159 396.389C366.306 396.389 380.067 405.92 380.067 409.521C380.067 413.121 366.095 416.087 349.159 416.087C332.222 416.087 318.25 413.121 318.25 409.521Z" fill="#0D47A1"/>
<path d="M328.835 371.82C328.835 373.727 337.938 379.022 349.159 379.022C360.379 379.022 369.482 373.938 369.482 371.82C369.482 369.914 360.379 368.22 349.159 368.22C337.938 368.22 328.835 369.914 328.835 371.82Z" fill="#0D47A1"/>
<path d="M369.694 332.849C369.694 330.943 360.59 329.248 349.37 329.248C338.15 329.248 329.047 330.943 329.047 332.849C329.047 334.332 329.047 363.772 329.047 365.255C329.047 367.161 338.15 372.456 349.37 372.456C360.59 372.456 369.694 367.373 369.694 365.255C369.694 363.984 369.694 334.332 369.694 332.849Z" fill="#0D47A1"/>
<path d="M270.406 523.47H279.72C280.779 454.423 278.027 385.164 274.851 315.269C272.099 384.528 270.617 453.999 270.406 523.47Z" fill="#0D47A1"/>
<path d="M218.962 523.47H228.277C229.335 461.836 226.583 399.778 223.408 337.297C220.656 399.354 219.174 461.412 218.962 523.47Z" fill="#0D47A1"/>
<path d="M243.519 523.47H250.082C250.929 475.179 249.024 426.465 246.695 377.539C244.789 426.253 243.731 474.756 243.519 523.47Z" fill="#0D47A1"/>
<path d="M251.776 427.948C251.776 414.816 262.361 404.226 275.487 404.226C288.612 404.226 299.197 414.816 299.197 427.948C299.197 441.079 288.612 451.669 275.487 451.669C262.149 451.669 251.776 441.079 251.776 427.948Z" fill="#0D47A1"/>
<path d="M249.87 419.264C249.87 417.781 261.302 416.51 275.275 416.51C289.247 416.51 300.679 417.781 300.679 419.264C300.679 420.747 289.247 422.017 275.275 422.017C261.302 422.017 249.87 420.747 249.87 419.264Z" fill="#0D47A1"/>
<path d="M258.55 372.032C258.55 362.713 265.96 355.3 275.275 355.3C284.59 355.3 291.999 362.713 291.999 372.032C291.999 381.351 284.59 388.764 275.275 388.764C265.96 388.764 258.55 381.14 258.55 372.032Z" fill="#0D47A1"/>
<path d="M204.354 438.75C204.354 427.948 213.034 419.264 223.831 419.264C234.628 419.264 243.308 427.948 243.308 438.75C243.308 449.552 234.628 458.235 223.831 458.235C213.034 458.235 204.354 449.552 204.354 438.75Z" fill="#0D47A1"/>
<path d="M625.43 278.839V524.741H696.35V278.839H625.43ZM676.45 325.647C674.756 331.578 668.405 340.05 660.784 340.05C653.374 340.05 646.812 331.578 645.118 325.647L634.321 287.311H687.035L676.45 325.647Z" fill="#1976D2"/>
<path d="M411.611 443.621H286.918V477.509H411.611V443.621Z" fill="#1976D2"/>
<path d="M406.953 434.09H291.787V447.645H406.953V434.09Z" fill="#1976D2"/>
<path d="M349.37 483.863C380.822 483.863 406.318 464.424 406.318 440.444C406.318 416.464 380.822 397.025 349.37 397.025C317.919 397.025 292.422 416.464 292.422 440.444C292.422 464.424 317.919 483.863 349.37 483.863Z" fill="#1976D2"/>
<path d="M349.794 394.695L349.37 379.869L348.735 394.695L348.1 398.931H350.429L349.794 394.695Z" fill="#1976D2"/>
<path d="M349.37 392.365C350.657 392.365 351.699 391.322 351.699 390.035C351.699 388.748 350.657 387.705 349.37 387.705C348.084 387.705 347.042 388.748 347.042 390.035C347.042 391.322 348.084 392.365 349.37 392.365Z" fill="#1976D2"/>
<path d="M347.888 385.375C347.888 386.223 348.524 386.858 349.37 386.858C350.217 386.858 350.852 386.223 350.852 385.375C350.852 384.528 350.217 383.893 349.37 383.893C348.524 383.893 347.888 384.528 347.888 385.375Z" fill="#1976D2"/>
<path d="M347.888 394.483C347.888 395.33 348.524 395.965 349.37 395.965C350.217 395.965 350.852 395.33 350.852 394.483C350.852 393.636 350.217 393 349.37 393C348.524 393 347.888 393.636 347.888 394.483Z" fill="#1976D2"/>
<path d="M435.533 480.686H263.843V524.953H435.533V480.686Z" fill="#1976D2"/>
<path d="M299.409 471.579H399.332L433.204 482.169H265.536L299.409 471.579Z" fill="#1976D2"/>
<path d="M298.985 493.394H297.715H294.539H283.319V482.592L282.049 480.474V477.086C282.049 476.45 281.626 475.815 280.991 475.815C280.355 475.815 279.932 476.45 279.932 477.086L268.923 467.343H230.817L228.912 465.648L220.02 457.6H197.368V438.114V407.191V405.285V403.59V402.32V401.049V394.059V393V391.73V390.671V388.764V387.494V386.435V385.164V384.105V379.657L195.886 384.105L194.404 379.657L192.922 384.105L191.441 379.657L191.229 380.08V360.595V359.959V359.324V357.206V356.147V354.029V352.546V348.098L189.747 352.546L188.265 348.098L187.842 349.369C187.842 349.369 187.842 349.369 187.842 349.157C187.842 348.946 187.842 348.522 187.842 348.31V348.098C187.842 347.887 187.842 347.675 187.842 347.463C187.842 347.251 187.842 347.251 187.842 347.039C187.842 346.828 187.842 346.616 187.63 346.616C187.63 346.404 187.63 346.404 187.63 346.192C187.63 345.98 187.63 345.769 187.418 345.769C187.418 345.557 187.418 345.557 187.206 345.345C187.206 345.133 186.995 345.133 186.995 344.921C186.995 344.71 186.783 344.71 186.783 344.498C186.783 344.286 186.571 344.286 186.571 344.074C186.571 343.862 186.36 343.862 186.36 343.651C186.36 343.439 186.148 343.439 186.148 343.227C186.148 343.015 185.936 343.015 185.936 342.803C185.936 342.592 185.725 342.592 185.725 342.38L185.513 342.168L185.301 341.956L185.089 341.744L184.878 341.533C184.666 341.533 184.666 341.321 184.454 341.321L184.243 341.109C184.031 341.109 184.031 340.897 183.819 340.897L183.608 340.685C183.396 340.685 183.396 340.474 183.184 340.474C183.184 340.474 182.972 340.474 182.972 340.262C182.761 340.262 182.761 340.05 182.549 340.05H182.337C182.126 340.05 182.126 340.05 181.914 339.838H181.702C181.491 339.838 181.279 339.838 181.279 339.838V338.567H181.491H181.702C181.914 338.567 181.914 338.356 182.126 338.356C182.126 338.356 182.337 338.356 182.337 338.144L182.549 337.932C182.549 337.932 182.549 337.932 182.761 337.72L182.972 337.508C182.972 337.508 182.972 337.297 183.184 337.297C183.184 337.297 183.184 337.085 183.396 337.085V336.873C183.396 336.661 183.396 336.661 183.396 336.449C183.396 336.449 183.396 336.449 183.396 336.238C183.396 336.026 183.396 335.814 183.396 335.602C183.396 335.39 183.396 335.179 183.396 334.967V334.755C183.396 334.543 183.396 334.543 183.396 334.331V334.12C183.396 334.12 183.396 333.908 183.184 333.908C183.184 333.908 183.184 333.696 182.972 333.696L182.761 333.484C182.761 333.484 182.761 333.272 182.549 333.272L182.337 333.061C182.337 333.061 182.337 333.061 182.126 332.849C182.126 332.849 181.914 332.849 181.914 332.637C181.914 332.637 181.914 332.637 181.702 332.637C181.491 332.637 181.491 332.637 181.279 332.425V332.213H181.491H181.702C181.702 332.213 181.914 332.213 181.914 332.002L182.126 331.79C182.126 331.79 182.337 331.79 182.337 331.578C182.337 331.578 182.337 331.578 182.549 331.366L182.761 331.154C182.761 331.154 182.761 330.943 182.972 330.943C182.972 330.943 182.972 330.731 183.184 330.731V330.519V330.307C183.184 330.307 183.184 330.307 183.184 330.095C183.184 329.884 183.184 329.884 183.184 329.672C183.184 329.46 183.184 329.248 183.184 329.248C183.184 329.248 183.184 329.248 183.184 329.036V328.825C183.184 328.825 183.184 328.825 183.184 328.613C183.184 328.613 183.184 328.401 182.972 328.401C182.972 328.401 182.972 328.401 182.972 328.189L182.761 327.977C182.761 327.977 182.761 327.977 182.549 327.766L182.337 327.554C182.337 327.554 182.337 327.554 182.126 327.554L181.914 327.342C181.702 327.342 181.702 327.342 181.491 327.13V326.918C181.491 326.918 181.491 326.918 181.702 326.918C181.914 326.918 181.914 326.918 182.126 326.707C182.126 326.707 182.126 326.707 182.337 326.707C182.337 326.707 182.549 326.707 182.549 326.495C182.549 326.495 182.761 326.495 182.761 326.283C182.761 326.283 182.761 326.283 182.972 326.071C182.972 326.071 182.972 325.859 183.184 325.859C183.184 325.859 183.184 325.859 183.184 325.648C183.184 325.648 183.184 325.436 183.396 325.436C183.396 325.436 183.396 325.436 183.396 325.224V325.012C183.396 325.012 183.396 325.012 183.396 324.8C183.396 324.589 183.396 324.589 183.396 324.377C183.396 324.165 183.396 324.165 183.396 323.953C183.396 323.953 183.396 323.953 183.396 323.741V323.529C183.396 323.529 183.396 323.53 183.396 323.318C183.396 323.318 183.396 323.106 183.184 323.106C183.184 323.106 183.184 323.106 183.184 322.894C183.184 322.894 183.184 322.682 182.972 322.682C182.972 322.682 182.972 322.682 182.761 322.47C182.761 322.47 182.549 322.47 182.549 322.259C182.549 322.259 182.549 322.259 182.337 322.259C182.337 322.259 182.126 322.259 182.126 322.047H181.914H181.702H181.491V318.87H181.279H181.067H180.644V322.047C179.585 322.259 178.738 323.318 178.738 324.377C178.738 325.436 179.585 326.495 180.644 326.707V327.13C179.585 327.342 178.738 328.401 178.738 329.672C178.738 330.943 179.585 331.79 180.644 332.213V332.425C179.374 332.637 178.315 333.908 178.315 335.179C178.315 336.449 179.162 337.72 180.432 337.932V339.203C176.41 339.626 173.234 343.651 173.234 348.522L172.811 347.251L171.329 351.699L169.847 347.251V351.699V353.182V355.3V356.359V358.477V359.112V359.748V379.233L168.577 383.258L167.095 378.81L165.613 383.258L164.131 378.81V383.258V384.317V385.587V386.646V387.917V389.823V390.882V392.153V393.424V400.413V401.684V402.955V404.014V405.92V456.329H140.844L130.047 466.072H91.9406L80.932 475.815C80.932 475.179 80.5086 474.544 79.8735 474.544C79.2384 474.544 78.815 475.179 78.815 475.815V479.204L77.5448 481.322V492.124H67.3831H66.1129H62.9374H60.6086V492.971V508.22V524.529H62.7257H63.1491H66.5363H68.4416H69.5001H69.9235H70.982H71.8289H74.1576H74.581H75.2161H80.7203H81.1437H82.2023H85.5895H86.648H88.765H89.1884H92.7874H94.6927H95.5395H95.9629H97.0214H97.8682H100.197H100.62H101.255H106.76H107.183H108.03H111.841H112.899H117.133H117.557H120.944H124.119V524.741H125.178H125.601H126.66V524.529H127.295H128.777H129.835H130.682H131.952V524.741H133.011H133.434H134.493V524.529H134.704H135.551H139.574V524.741H140.632H141.055H142.114V524.529H142.749H143.596H144.443H147.195V524.741H148.253H148.677H149.735V524.529H149.947H151.005H154.816V524.741H155.875H156.298H157.356V524.529H162.437V524.741H163.496H163.919H164.554V524.953H180.009V524.529H180.432H180.644V524.953H196.098V524.529H196.733H197.792H198.215H199.274V524.317H204.354V524.529H205.413H205.836H207.106V524.317H210.705H211.976H212.187V524.529H213.246H213.669H214.728V524.317H217.268H217.903H219.809V524.529H220.867H221.291H222.349V524.317H225.313H226.16H226.795H227.006H227.43V524.529H228.488H228.912H229.97V524.317H233.358H234.416H235.051V524.529H236.11H236.533H237.592V524.317H239.497H243.096H243.519H247.965H248.812H249.023H250.082H250.929H253.258H253.681H254.316H260.032H260.455H261.302H264.689H265.748H265.96H267.865H268.288H271.676H273.793H274.639H274.851H275.91H276.756H279.085H279.509H280.144H285.648H286.071H286.918H290.517H291.576H291.787H293.693H294.116H297.503H299.62V509.491V494.242V493.394H298.985Z" fill="#42A5F5"/>
<path d="M831.628 444.257L917.155 525.8H745.888L831.628 444.257Z" fill="#42A5F5"/>
<path d="M723.448 377.539L567.847 525.8H745.888L810.034 460.142L723.448 377.539Z" fill="#42A5F5"/>
<path d="M625.43 414.604L508.994 525.8H567.847L653.163 441.079L625.43 414.604Z" fill="#42A5F5"/>
<g clip-path="url(#clip1_21_1095)">
<path d="M510.785 459.919L490.82 494.496L470.727 459.791L470.855 416.379L490.692 411L510.657 416.379L510.785 459.919Z" fill="white"/>
<path d="M466.759 460.944V500.771L432.077 480.793L410.32 443.143L424.91 428.544L444.875 423.166L466.759 460.944Z" fill="white"/>
<path d="M466.759 505.381V518.187L453.577 518.315L436.044 487.709L466.759 505.381Z" fill="white"/>
<path d="M488.516 498.466L482.117 509.607L470.727 503.076V467.859L488.516 498.466Z" fill="white"/>
<path d="M510.785 503.332L499.65 509.735L493.123 498.466L510.785 467.987V503.332Z" fill="white"/>
<path d="M545.339 488.093L527.678 518.827H514.88V505.637L545.339 488.093Z" fill="white"/>
<path d="M565.176 522.797L534.589 540.598L523.455 534.195L529.982 522.797H565.176Z" fill="white"/>
<path d="M544.956 597.457L514.24 579.785L510.273 577.48L500.93 572.101L497.475 570.052L495.555 573.638L490.18 582.73L484.805 573.382L482.757 569.924L479.302 571.973L470.215 577.224L466.248 579.529L435.66 597.073L453.321 566.338L466.12 566.466H470.215V562.368H466.12H455.625L461 553.02L463.048 549.562L459.465 547.641L450.378 542.263L459.72 536.884L463.176 534.835L461.256 531.378L456.009 522.285H466.759H470.727V507.686L480.069 513.065L483.525 515.114L485.573 511.656L490.82 502.436L496.195 511.784L498.243 515.242L501.698 513.321L510.785 508.07L510.913 518.828V522.798H525.375L519.999 532.146L517.952 535.604L521.535 537.653L530.622 542.903L521.279 548.282L517.824 550.331L519.871 553.788L525.119 562.881L514.368 563.009H510.273V566.979H514.368H527.422L544.956 597.457Z" fill="white"/>
<path d="M457.673 533.426L446.411 539.958L415.951 522.285H451.274L457.673 533.426Z" fill="white"/>
<path d="M448.97 518.315H409.04L371.414 496.545L376.789 476.567L391.379 461.968L429.133 483.739L448.97 518.315Z" fill="white"/>
<path d="M442.443 542.263L407.76 562.368H364.375L359 542.391L364.375 522.413L407.888 522.285L442.443 542.263Z" fill="white"/>
<path d="M622 542.775L616.625 562.752L573.111 562.881L538.556 542.903L573.239 522.797L616.625 522.925L622 542.775Z" fill="white"/>
<path d="M609.842 496.929L572.215 518.828H532.285L552.25 484.123L589.877 462.353L604.466 476.952L609.842 496.929Z" fill="white"/>
<path d="M571.063 443.399L549.307 481.177L514.88 501.027L514.752 461.072L536.509 423.422L556.474 428.8L571.063 443.399Z" fill="white"/>
</g>
<path d="M138.938 521.352C138.092 505.255 124.966 492.335 108.665 492.335C92.3639 492.335 79.2384 505.255 78.3916 521.352H138.938Z" fill="#0D47A1"/>
<path d="M586.053 521.988C585.418 508.644 574.41 497.842 560.861 497.842C547.312 497.842 536.303 508.644 535.668 521.988H586.053Z" fill="#2196F3"/>
<path d="M152.699 521.352C152.064 508.22 141.267 497.63 127.93 497.63C114.593 497.63 103.796 508.22 103.161 521.352H152.699Z" fill="#2196F3"/>
<path d="M127.718 521.352H152.487C151.852 508.22 141.055 497.63 127.718 497.63V521.352Z" fill="#0D47A1"/>
<path d="M119.25 465.013C123.061 464.801 135.128 469.884 135.128 469.673C134.704 456.753 119.885 459.718 119.673 459.294C119.462 458.871 132.164 456.117 131.952 455.905C120.097 444.892 115.228 458.024 115.228 456.753C114.804 449.128 105.913 448.069 105.913 448.069C105.913 448.069 112.687 457.6 110.359 456.117C97.8681 448.281 91.7287 461.201 92.9989 460.777C97.8681 458.871 109.935 461.836 109.3 462.048C98.0798 463.742 96.5979 476.874 96.5979 476.874C106.124 475.391 111.417 469.673 113.746 466.284C113.322 477.933 112.052 502.078 110.57 521.564L116.71 521.776L115.651 471.367C117.133 479.415 124.119 485.346 124.331 484.711C130.682 471.155 119.038 465.013 119.25 465.013Z" fill="#0D47A1"/>
<path d="M151.852 509.491C148.677 509.491 145.713 510.762 143.384 512.88C141.267 510.762 138.303 509.491 134.916 509.491C131.74 509.491 128.777 510.762 126.66 512.88C124.543 510.762 121.579 509.491 118.403 509.491C111.84 509.491 106.76 514.574 106.336 520.928H122.849H130.47H139.573H146.983H163.707C163.707 514.574 158.415 509.491 151.852 509.491Z" fill="#0D47A1"/>
<path d="M107.606 516.904C106.336 516.904 105.278 517.328 104.431 518.175C103.584 517.328 102.526 516.904 101.255 516.904C99.9851 516.904 98.9266 517.328 98.0798 518.175C97.233 517.328 96.1745 516.904 94.9043 516.904C92.3638 516.904 90.4585 518.811 90.2468 521.352H96.5979H99.5617H103.161H105.913H112.476C112.052 518.811 110.147 516.904 107.606 516.904Z" fill="#2196F3"/>
<path d="M162.014 516.904C160.744 516.904 159.685 517.328 158.838 518.175C157.992 517.328 156.933 516.904 155.663 516.904C154.393 516.904 153.334 517.328 152.487 518.175C151.64 517.328 150.582 516.904 149.312 516.904C146.771 516.904 144.866 518.811 144.654 521.352H151.005H153.969H157.568H160.32H166.883C166.46 518.811 164.554 516.904 162.014 516.904Z" fill="#2196F3"/>
<path d="M496.927 521.352C496.292 508.856 485.918 498.689 473.216 498.689C460.514 498.689 450.14 508.644 449.505 521.352H496.927Z" fill="#2196F3"/>
<path d="M414.247 464.895C412.13 466.166 418.481 458.118 418.481 458.118C418.481 458.118 410.013 458.965 409.59 465.531C409.59 466.59 404.932 455.364 393.712 464.895C393.5 465.107 405.567 467.437 405.356 467.861C405.144 468.284 390.96 465.743 390.537 476.756C390.537 476.968 401.969 472.52 405.567 472.732C405.779 472.732 394.771 477.815 400.698 489.252C400.91 489.888 407.684 484.805 408.955 478.027L408.108 521.023L414.036 520.811C412.554 504.29 411.495 483.746 411.072 473.791C413.189 476.544 418.27 481.416 427.373 482.687C427.373 482.687 425.891 471.673 415.306 470.19C414.671 470.19 426.103 467.649 430.76 469.131C432.03 469.131 426.103 458.118 414.247 464.895Z" fill="#2196F3"/>
<path d="M454.259 507.679C450.66 507.679 447.273 509.162 444.732 511.492C442.192 509.162 439.016 507.679 435.206 507.679C431.607 507.679 428.22 509.162 425.891 511.492C423.351 509.162 420.175 507.679 416.576 507.679C409.166 507.679 403.239 513.398 403.027 520.599H421.657H430.337H440.71H448.966H468.02C467.596 513.398 461.669 507.679 454.259 507.679Z" fill="#0D47A1"/>
<path d="M389.055 490.312C393.289 490.1 407.261 495.395 407.261 495.183C406.203 480.357 389.478 484.381 389.267 483.957C389.055 483.534 403.239 479.721 403.027 479.51C389.055 467.437 384.186 482.687 383.974 481.204C383.127 472.52 373.177 471.461 373.177 471.461C373.177 471.461 381.222 482.051 378.681 480.569C364.286 472.097 357.723 486.923 359.205 486.499C364.709 484.169 378.681 487.134 377.623 487.346C364.921 489.676 363.862 504.502 363.862 504.502C374.024 502.384 379.74 496.454 382.492 492.43C381.857 499.207 380.799 509.585 380.375 519.964L385.456 521.023L385.244 496.666C386.726 506.197 395.406 512.974 395.829 512.127C402.392 496.877 388.631 490.523 389.055 490.312Z" fill="#0D47A1"/>
<path d="M454.798 517.328C453.528 517.328 452.469 517.751 451.622 518.599C450.776 517.751 449.717 517.328 448.447 517.328C447.177 517.328 446.118 517.751 445.483 518.599C444.636 517.751 443.578 517.328 442.519 517.328C440.19 517.328 438.073 519.234 438.073 521.564H444.213H446.965H450.352H453.104H459.244C459.244 519.234 457.338 517.328 454.798 517.328Z" fill="#2196F3"/>
<path d="M487.823 517.328C486.553 517.328 485.495 517.751 484.648 518.599C483.801 517.751 482.743 517.328 481.472 517.328C480.202 517.328 479.144 517.751 478.508 518.599C477.662 517.751 476.603 517.328 475.545 517.328C473.216 517.328 471.099 519.234 471.099 521.564H477.238H479.99H483.378H486.13H492.269C492.269 519.234 490.152 517.328 487.823 517.328Z" fill="#2196F3"/>
<path d="M549.852 517.328C548.582 517.328 547.523 517.751 546.677 518.599C545.83 517.751 544.771 517.328 543.501 517.328C542.231 517.328 541.172 517.751 540.537 518.599C539.69 517.751 538.632 517.328 537.573 517.328C535.245 517.328 533.128 519.234 533.128 521.564H539.267H542.019H545.406H548.159H554.298C554.086 519.234 552.181 517.328 549.852 517.328Z" fill="#2196F3"/>
<path d="M619.714 521.564C619.079 509.068 608.705 498.901 596.003 498.901C583.301 498.901 572.928 508.856 572.292 521.564H619.714Z" fill="#2196F3"/>
<path d="M596.003 521.564H619.714C619.079 509.068 608.705 498.901 596.003 498.901V521.564Z" fill="#0D47A1"/>
<path d="M623.948 517.328C622.678 517.328 621.619 517.751 620.772 518.599C619.926 517.751 618.867 517.328 617.597 517.328C616.327 517.328 615.268 517.751 614.633 518.599C613.786 517.751 612.728 517.328 611.669 517.328C609.34 517.328 607.223 519.234 607.223 521.564H613.363H616.115H619.502H622.254H628.394C628.394 519.234 626.488 517.328 623.948 517.328Z" fill="#2196F3"/>
<path d="M894.927 522.623C893.868 499.748 875.027 481.533 851.951 481.533C828.876 481.533 810.034 499.748 808.976 522.623H894.927Z" fill="#2196F3"/>
<path d="M717.732 467.766C721.331 467.766 732.763 472.426 732.763 472.214C732.339 459.93 718.155 462.683 717.944 462.26C717.732 461.836 729.799 459.083 729.587 459.083C718.155 448.493 713.71 461.201 713.71 459.93C713.286 452.517 704.818 451.458 704.818 451.458C704.818 451.458 711.169 460.565 709.052 459.083C697.197 451.67 691.269 463.954 692.539 463.53C697.197 461.836 708.84 464.589 707.994 464.801C697.409 466.496 695.927 478.78 695.927 478.78C705.03 477.298 710.111 471.791 712.228 468.825C711.804 479.839 710.534 503.137 709.264 521.564L715.192 521.776L714.345 473.697C715.615 481.322 722.389 487.04 722.601 486.405C728.74 473.485 717.52 467.766 717.732 467.766Z" fill="#0D47A1"/>
<path d="M702.489 521.776C702.066 512.033 694.021 504.196 684.071 504.196C674.121 504.196 666.077 512.033 665.653 521.776H702.489Z" fill="#0D47A1"/>
<path d="M684.071 521.776H702.489C702.066 512.033 694.021 504.196 684.071 504.196V521.776Z" fill="#0D47A1"/>
<path d="M709.687 517.328C708.417 517.328 707.359 517.751 706.512 518.599C705.665 517.751 704.606 517.328 703.336 517.328C702.066 517.328 701.008 517.751 700.372 518.599C699.526 517.751 698.467 517.328 697.409 517.328C695.08 517.328 692.963 519.234 692.963 521.564H699.102H701.854H705.242H707.994H714.133C714.133 519.234 712.228 517.328 709.687 517.328Z" fill="#2196F3"/>
<path d="M543.017 472.472C541.112 473.531 547.039 466.118 547.039 466.118C547.039 466.118 539.206 466.965 538.783 473.107C538.783 474.166 534.549 463.788 523.964 472.472C523.752 472.684 534.972 474.802 534.761 475.225C534.549 475.649 521.423 473.107 521 483.485C521 483.697 531.585 479.673 534.972 479.673C535.184 479.673 524.811 484.544 530.527 495.134C530.738 495.558 536.666 491.322 538.148 485.18L536.878 520.339L542.382 520.127C541.112 505.301 540.265 488.78 539.841 480.52C541.959 483.062 546.616 487.721 555.084 488.992C555.084 488.992 553.814 478.614 543.864 477.343C543.229 477.343 554.026 474.802 558.26 476.284C559.318 476.496 554.026 466.329 543.017 472.472Z" fill="#2196F3"/>
<path d="M336.033 521.564C335.61 512.457 328.2 505.255 319.097 505.255C309.994 505.255 302.584 512.457 302.161 521.564H336.033Z" fill="#0D47A1"/>
<path d="M319.097 521.564H336.033C335.61 512.457 328.2 505.255 319.097 505.255V521.564Z" fill="#0D47A1"/>
<path d="M254.528 516.481C254.528 519.446 252.199 521.776 249.235 521.776C246.271 521.776 243.943 519.446 243.943 516.481C243.943 513.516 246.271 511.186 249.235 511.186C251.987 511.186 254.528 513.516 254.528 516.481Z" fill="#0D47A1"/>
<path d="M225.948 512.245C223.408 512.245 220.867 513.304 219.174 514.998C217.48 513.304 214.939 512.245 212.399 512.245C209.859 512.245 207.53 513.304 205.625 514.998C203.931 513.304 201.602 512.245 198.85 512.245C193.558 512.245 189.324 516.481 189.112 521.564H202.449H208.588H215.998H221.926H235.475C235.475 516.269 231.241 512.245 225.948 512.245Z" fill="#0D47A1"/>
<path d="M360.379 512.245C357.838 512.245 355.298 513.304 353.604 514.998C351.911 513.304 349.37 512.245 346.83 512.245C344.29 512.245 341.961 513.304 340.055 514.998C338.362 513.304 336.033 512.245 333.281 512.245C327.988 512.245 323.754 516.481 323.543 521.564H336.88H343.019H350.429H356.357H369.905C369.905 516.269 365.671 512.245 360.379 512.245Z" fill="#0D47A1"/>
<path d="M562.494 497.464C565.669 497.253 575.619 501.065 575.619 500.853C574.984 490.263 562.917 493.228 562.705 492.805C562.494 492.381 572.655 489.84 572.655 489.628C562.705 480.944 559.106 491.746 559.106 490.687C558.471 484.544 551.273 483.697 551.273 483.697C551.273 483.697 556.989 491.322 555.084 490.263C544.711 484.121 540.053 494.923 541.112 494.499C544.922 492.805 555.084 494.923 554.449 495.135C545.346 496.829 544.499 507.419 544.499 507.419C551.697 505.936 555.719 501.7 557.836 498.947C557.201 504.03 556.354 512.079 555.931 520.127L559.53 520.974L559.741 501.489C559.741 501.7 559.741 501.912 559.741 502.124C560.8 509.113 567.151 513.773 567.363 513.349C571.808 502.124 562.07 497.464 562.494 497.464Z" fill="#0D47A1"/>
<path d="M258.973 518.387C258.127 518.387 257.28 518.811 256.856 519.234C256.221 518.599 255.586 518.387 254.739 518.387C253.893 518.387 253.046 518.811 252.622 519.234C251.987 518.599 251.352 518.387 250.505 518.387C248.812 518.387 247.33 519.658 247.33 521.352H251.776H253.893H255.798H257.703H262.149C262.149 519.87 260.667 518.387 258.973 518.387Z" fill="#0D47A1"/>
<path d="M387.688 518.387C386.842 518.387 385.995 518.811 385.36 519.234C384.724 518.599 384.089 518.387 383.243 518.387C382.396 518.387 381.549 518.811 381.126 519.234C380.49 518.599 379.855 518.387 379.009 518.387C377.315 518.387 375.833 519.658 375.833 521.352H380.279H382.396H384.724H386.63H391.076C390.864 519.87 389.382 518.387 387.688 518.387Z" fill="#2196F3"/>
<path d="M307.665 518.387C306.818 518.387 305.971 518.811 305.336 519.234C304.701 518.599 304.066 518.387 303.219 518.387C302.372 518.387 301.526 518.811 301.102 519.234C300.467 518.599 299.832 518.387 298.985 518.387C297.291 518.387 295.81 519.658 295.81 521.352H300.255H302.372H304.701H306.606H311.052C310.84 519.87 309.359 518.387 307.665 518.387Z" fill="#2196F3"/>
<path d="M332.857 518.387C332.011 518.387 331.164 518.811 330.529 519.234C329.894 518.599 329.259 518.387 328.412 518.387C327.565 518.387 326.718 518.811 326.295 519.234C325.66 518.599 325.025 518.387 324.178 518.387C322.484 518.387 321.002 519.658 321.002 521.352H325.448H327.565H329.894H331.799H336.245C336.033 519.87 334.551 518.387 332.857 518.387Z" fill="#2196F3"/>
<path d="M876.72 509.703C873.121 509.703 869.734 511.186 867.194 513.516C864.653 511.186 861.478 509.703 857.667 509.703C854.068 509.703 850.681 511.186 848.352 513.516C845.812 511.186 842.636 509.703 839.037 509.703C831.628 509.703 825.7 515.422 825.488 522.623H844.118H852.798H863.171H871.428H890.481C890.057 515.422 884.13 509.703 876.72 509.703Z" fill="#0D47A1"/>
<path d="M828.452 517.328C827.182 517.328 826.123 517.751 825.276 518.599C824.43 517.751 823.371 517.328 822.101 517.328C820.831 517.328 819.772 517.751 819.137 518.599C818.29 517.751 817.232 517.328 816.173 517.328C813.845 517.328 811.728 519.234 811.728 521.564H817.867H820.619H824.006H826.758H832.898C832.686 519.234 830.781 517.328 828.452 517.328Z" fill="#2196F3"/>
<path d="M882.86 486.617C882.86 486.617 881.166 507.161 879.261 522.411H884.342L884.13 486.617H882.86Z" fill="#2196F3"/>
<path d="M865.077 509.915C865.077 509.915 864.653 495.301 876.72 491.7C877.567 491.488 863.595 490.006 858.514 492.759C857.244 493.394 861.901 478.145 876.932 484.922C879.684 486.193 870.581 476.662 870.581 476.662C870.581 476.662 880.531 476.45 882.225 484.922C882.436 486.405 885.823 470.943 900.643 481.322C900.854 481.534 887.305 486.617 887.729 487.04C888.152 487.464 904.03 481.745 906.57 496.148C906.57 496.36 892.386 492.759 888.364 493.394C887.94 493.394 901.913 498.266 897.044 514.151C896.832 514.998 887.517 509.28 884.977 499.96C883.706 495.512 883.495 492.759 883.495 492.759C883.495 492.759 879.472 505.255 865.077 509.915Z" fill="#0D47A1"/>
<path d="M898.314 516.904C897.044 516.904 895.985 517.328 895.138 518.175C894.291 517.328 893.233 516.904 891.963 516.904C890.693 516.904 889.634 517.328 888.999 518.175C888.152 517.328 887.094 516.904 886.035 516.904C883.706 516.904 881.589 518.811 881.589 521.14H887.729H890.481H893.868H896.62H902.76C902.548 518.811 900.643 516.904 898.314 516.904Z" fill="#2196F3"/>
<path d="M927.74 520.928H52.564V527.918H927.74V520.928Z" fill="#061A38"/>
</g>
<path d="M74.2168 651.474C76.6085 648.783 79.0003 646.092 81.6913 643.401C84.3824 640.411 86.7771 637.72 89.1659 635.032C91.5577 632.038 93.9494 629.347 96.0447 626.955C98.14 624.564 100.23 622.172 101.723 620.379H130.726C125.045 626.955 119.363 633.535 113.685 639.513C108.303 645.494 102.323 651.773 95.7454 658.35C99.3509 661.727 102.746 665.322 105.911 669.115C109.497 673.299 112.787 677.484 116.077 681.669C119.337 685.865 122.332 690.259 125.045 694.828C127.736 699.312 130.131 703.198 131.924 706.787H103.819C102.023 703.796 99.9302 700.806 97.8378 697.516C95.6505 693.892 93.2537 690.399 90.6596 687.054C88.2295 683.467 85.5318 680.069 82.5893 676.889C80.2066 673.906 77.4988 671.198 74.5161 668.815V706.487H50V583.006L74.5161 579.118V651.474" fill="white"/>
<path d="M217.134 703.796C211.838 705.273 206.443 706.372 200.991 707.086C194.171 708.2 187.266 708.7 180.357 708.58C174.043 708.809 167.745 707.794 161.822 705.592C157.364 703.908 153.421 701.093 150.381 697.423C147.34 693.753 145.307 689.356 144.481 684.662C143.261 679.368 142.658 673.949 142.685 668.516V620.379H167.204V665.526C167.204 673.3 168.102 678.981 170.195 682.57C172.287 686.159 176.173 687.952 181.854 687.952C183.753 687.994 185.652 687.894 187.535 687.653C189.628 687.354 191.125 687.354 192.918 687.054V620.379H217.434L217.134 703.796" fill="white"/>
<path d="M295.771 662.835C295.771 646.99 290.09 639.216 278.428 639.216C275.909 639.219 273.4 639.519 270.953 640.112C268.856 640.619 266.843 641.425 264.975 642.503V687.054C266.17 687.354 267.666 687.354 269.459 687.653C271.252 687.653 273.345 687.952 275.44 687.952C278.343 688.083 281.237 687.528 283.886 686.333C286.535 685.138 288.865 683.336 290.688 681.073C294.265 675.682 296.044 669.298 295.771 662.835ZM320.587 663.433C320.713 669.84 319.7 676.218 317.596 682.271C315.796 687.633 312.837 692.533 308.927 696.621C304.853 700.55 300.089 703.693 294.873 705.892C288.723 708.018 282.242 709.029 275.736 708.879C272.749 708.879 269.759 708.58 266.469 708.283C263.179 707.987 260.192 707.685 256.902 707.383C253.911 707.086 250.921 706.487 247.931 705.889C245.374 705.45 242.869 704.749 240.456 703.796V583.003L264.975 579.118V622.172C267.758 620.963 270.665 620.06 273.644 619.481C276.797 618.873 280.002 618.573 283.214 618.586C288.771 618.484 294.283 619.606 299.357 621.873C303.99 623.889 308.086 626.961 311.319 630.844C314.758 635.028 317.211 639.933 318.494 645.194C319.849 651.18 320.551 657.296 320.587 663.433" fill="white"/>
<path d="M335.24 664.331C335.078 657.481 336.297 650.668 338.826 644.299C340.987 638.975 344.132 634.106 348.096 629.946C351.761 626.09 356.261 623.125 361.249 621.277C366.18 619.252 371.467 618.234 376.797 618.283C382.158 618.038 387.511 618.923 392.507 620.88C397.504 622.838 402.033 625.825 405.8 629.646C412.976 637.121 416.562 648.188 416.562 662.535C416.603 664.136 416.504 665.738 416.265 667.321C416.265 668.815 415.966 670.309 415.966 671.806H360.349C360.592 674.204 361.361 676.52 362.602 678.587C363.843 680.654 365.524 682.422 367.527 683.764C372.505 686.964 378.358 688.532 384.269 688.249C388.684 688.31 393.093 687.909 397.425 687.054C401.107 686.435 404.715 685.432 408.189 684.064L411.476 704.096C410.282 704.694 408.489 705.293 406.097 706.188C403.678 707.002 401.165 707.504 398.619 707.685C395.759 708.27 392.863 708.669 389.95 708.879C386.96 709.178 383.673 709.478 380.68 709.478C373.732 709.638 366.822 708.419 360.349 705.892C355.006 703.768 350.13 700.619 345.998 696.621C342.305 692.425 339.463 687.551 337.628 682.271C336.06 676.419 335.255 670.389 335.234 664.331M392.941 654.764C392.861 652.72 392.457 650.701 391.743 648.783C391.152 646.852 390.242 645.033 389.052 643.401C387.634 641.614 385.808 640.193 383.727 639.257C381.647 638.32 379.372 637.896 377.094 638.019C374.624 638.021 372.181 638.529 369.916 639.513C368.042 640.283 366.397 641.518 365.135 643.102C363.791 644.68 362.774 646.51 362.142 648.484C361.504 650.44 361.004 652.439 360.648 654.465H392.941" fill="white"/>
<path d="M487.425 641.908C484.883 641.181 482.281 640.68 479.651 640.411C476.499 639.802 473.294 639.501 470.084 639.513C468.181 639.61 466.284 639.809 464.402 640.112C462.793 640.328 461.197 640.628 459.619 641.01V707.086H435.1V624.863C440.189 623.141 445.382 621.743 450.648 620.678C457.217 619.181 463.943 618.478 470.68 618.586C472.28 618.553 473.879 618.652 475.463 618.882C477.369 618.949 479.267 619.149 481.145 619.481C482.941 619.78 484.734 620.08 486.826 620.379C488.619 620.678 490.415 621.277 491.61 621.573L487.425 641.908Z" fill="white"/>
<path d="M504.765 623.369C516.768 620.203 529.129 618.595 541.542 618.586C547.762 618.327 553.969 619.343 559.781 621.574C564.35 623.113 568.392 625.912 571.441 629.647C574.256 633.389 576.29 637.66 577.422 642.204C578.675 647.493 579.277 652.915 579.215 658.351V707.086H554.696V661.344C554.696 653.57 553.8 647.888 551.708 644.599C549.616 641.309 545.727 639.815 540.046 639.815C538.147 639.773 536.248 639.873 534.364 640.115C532.557 640.15 530.756 640.35 528.985 640.713V707.389H504.765V623.372" fill="white"/>
<path d="M597.453 664.331C597.292 657.481 598.511 650.668 601.04 644.299C603.201 638.975 606.346 634.106 610.31 629.946C613.976 626.09 618.476 623.124 623.466 621.277C628.397 619.252 633.684 618.234 639.014 618.283C644.375 618.038 649.727 618.923 654.724 620.88C659.721 622.838 664.25 625.825 668.017 629.646C675.189 637.121 678.778 648.188 678.778 662.535C678.819 664.136 678.719 665.738 678.479 667.321C678.479 668.815 678.18 670.309 678.18 671.806H622.568C622.812 674.204 623.581 676.52 624.822 678.587C626.063 680.654 627.744 682.422 629.746 683.764C634.724 686.964 640.575 688.531 646.486 688.249C650.902 688.31 655.312 687.91 659.645 687.054C663.326 686.435 666.933 685.432 670.406 684.064L673.696 704.096C672.501 704.694 670.705 705.293 668.314 706.188C665.895 707.001 663.384 707.504 660.839 707.685C657.977 708.27 655.081 708.669 652.167 708.879C649.18 709.178 645.89 709.478 642.899 709.478C635.952 709.638 629.042 708.419 622.568 705.892C617.225 703.768 612.35 700.619 608.218 696.621C604.524 692.425 601.68 687.551 599.845 682.271C598.277 676.419 597.473 670.389 597.453 664.331M655.158 654.764C655.078 652.72 654.675 650.701 653.963 648.783C653.371 646.852 652.462 645.033 651.272 643.401C649.853 641.614 648.027 640.192 645.946 639.256C643.864 638.319 641.589 637.895 639.31 638.019C636.842 638.021 634.4 638.53 632.135 639.513C630.261 640.282 628.614 641.518 627.352 643.102C626.009 644.681 624.993 646.51 624.361 648.484C623.723 650.44 623.224 652.438 622.868 654.465H655.158" fill="white"/>
<path d="M697.018 598.85L721.534 594.965V620.379H750.836V640.71H721.534V671.207C721.33 675.459 722.258 679.689 724.225 683.465C726.021 686.458 729.906 687.952 735.288 687.952C737.989 687.902 740.684 687.702 743.362 687.354C746.006 686.872 748.607 686.172 751.136 685.261L754.722 704.395C751.551 705.746 748.243 706.749 744.855 707.386C740.433 708.311 735.917 708.712 731.4 708.58C725.701 708.736 720.024 707.824 714.661 705.892C710.633 704.256 707.046 701.695 704.193 698.414C701.422 694.907 699.48 690.819 698.511 686.456C697.511 681.435 697.011 676.327 697.018 671.207V598.85" fill="white"/>
<path d="M763.393 664.331C763.232 657.48 764.453 650.668 766.983 644.299C769.143 638.975 772.287 634.106 776.25 629.946C779.916 626.09 784.417 623.124 789.406 621.277C794.337 619.252 799.624 618.234 804.954 618.283C810.315 618.038 815.667 618.923 820.664 620.88C825.661 622.838 830.19 625.825 833.957 629.646C841.132 637.121 844.719 648.188 844.719 662.535C844.759 664.136 844.659 665.738 844.419 667.321C844.419 668.815 844.12 670.309 844.12 671.806H788.508C788.752 674.204 789.521 676.52 790.762 678.587C792.003 680.654 793.684 682.422 795.686 683.764C800.664 686.964 806.515 688.531 812.426 688.249C816.842 688.31 821.252 687.91 825.585 687.054C829.266 686.435 832.873 685.432 836.346 684.064L839.636 704.096C838.441 704.694 836.645 705.293 834.254 706.188C831.836 707.001 829.324 707.504 826.779 707.685C823.918 708.27 821.023 708.669 818.11 708.879C815.117 709.178 811.833 709.478 808.84 709.478C801.892 709.638 794.982 708.419 788.508 705.892C783.165 703.768 778.29 700.619 774.158 696.621C770.465 692.425 767.622 687.551 765.788 682.271C764.074 676.449 763.266 670.398 763.393 664.331M820.801 654.764C820.721 652.72 820.317 650.701 819.604 648.783C819.012 646.852 818.103 645.033 816.913 643.401C815.494 641.614 813.668 640.193 811.588 639.257C809.507 638.32 807.232 637.896 804.954 638.019C802.484 638.021 800.041 638.529 797.776 639.513C795.902 640.282 794.255 641.518 792.992 643.102C791.651 644.681 790.635 646.51 790.005 648.484C789.366 650.44 788.866 652.438 788.508 654.465H820.801" fill="white"/>
<path d="M888.072 689.147C891.31 689.385 894.562 688.979 897.642 687.952C898.537 687.459 899.269 686.715 899.747 685.812C900.225 684.908 900.427 683.884 900.33 682.867C900.33 680.774 899.136 679.28 896.744 677.787C893.249 675.699 889.54 673.994 885.68 672.701C881.795 671.207 878.206 669.713 875.218 668.217C872.357 666.847 869.732 665.03 867.441 662.835C865.244 660.609 863.516 657.966 862.359 655.061C861.085 651.62 860.476 647.968 860.566 644.299C860.401 640.622 861.13 636.959 862.693 633.626C864.255 630.293 866.602 627.389 869.534 625.163C875.515 620.379 883.887 617.984 894.352 617.984C899.47 618.023 904.573 618.524 909.601 619.481C913.484 620.072 917.293 621.076 920.964 622.474L916.776 641.608C913.786 640.71 910.795 639.812 907.505 638.917C903.888 638.027 900.168 637.625 896.445 637.72C888.671 637.72 885.082 639.812 885.082 643.997C885.137 644.921 885.339 645.831 885.68 646.691C886.1 647.694 886.835 648.533 887.773 649.083C888.671 649.682 890.165 650.577 891.661 651.475C893.454 652.37 895.547 652.968 898.238 654.166C902.866 655.82 907.363 657.818 911.693 660.144C914.834 661.584 917.597 663.734 919.766 666.424C921.831 668.476 923.28 671.065 923.951 673.898C924.846 677.005 925.25 680.233 925.148 683.465C925.338 687.251 924.559 691.023 922.884 694.424C921.209 697.825 918.695 700.743 915.579 702.901C909.301 707.386 900.33 709.478 888.371 709.478C881.927 709.676 875.487 708.972 869.237 707.386C865.648 706.643 862.141 705.541 858.772 704.096L862.957 684.064C867.142 685.673 871.439 686.971 875.814 687.949C879.842 688.806 883.954 689.208 888.072 689.147" fill="white"/>
<path d="M204.648 805.086C202.312 805.086 200.184 804.702 198.264 803.934C196.344 803.166 194.696 802.046 193.32 800.574C191.944 799.102 190.872 797.294 190.104 795.15C189.368 792.974 189 790.494 189 787.71C189 784.926 189.416 782.462 190.248 780.318C191.112 778.142 192.264 776.318 193.704 774.846C195.144 773.374 196.824 772.254 198.744 771.486C200.664 770.718 202.712 770.334 204.888 770.334C206.264 770.334 207.496 770.43 208.584 770.622C209.704 770.814 210.664 771.038 211.464 771.294C212.296 771.55 212.968 771.806 213.48 772.062C213.992 772.318 214.344 772.51 214.536 772.638L213.192 776.478C212.904 776.286 212.488 776.078 211.944 775.854C211.4 775.63 210.776 775.406 210.072 775.182C209.4 774.958 208.648 774.782 207.816 774.654C207.016 774.494 206.2 774.414 205.368 774.414C203.608 774.414 202.024 774.718 200.616 775.326C199.208 775.934 198.008 776.814 197.016 777.966C196.024 779.118 195.256 780.526 194.712 782.19C194.2 783.822 193.944 785.662 193.944 787.71C193.944 789.694 194.168 791.502 194.616 793.134C195.096 794.766 195.8 796.174 196.728 797.358C197.656 798.51 198.808 799.406 200.184 800.046C201.592 800.686 203.224 801.006 205.08 801.006C207.224 801.006 209 800.782 210.408 800.334C211.816 799.886 212.872 799.486 213.576 799.134L214.776 802.974C214.552 803.134 214.152 803.342 213.576 803.598C213 803.822 212.28 804.046 211.416 804.27C210.552 804.494 209.544 804.686 208.392 804.846C207.24 805.006 205.992 805.086 204.648 805.086Z" fill="white"/>
<path d="M241.151 791.886C241.151 793.87 240.863 795.662 240.287 797.262C239.711 798.862 238.895 800.238 237.839 801.39C236.815 802.542 235.583 803.438 234.143 804.078C232.703 804.686 231.134 804.99 229.438 804.99C227.742 804.99 226.175 804.686 224.735 804.078C223.295 803.438 222.046 802.542 220.99 801.39C219.966 800.238 219.166 798.862 218.59 797.262C218.014 795.662 217.726 793.87 217.726 791.886C217.726 789.934 218.014 788.158 218.59 786.558C219.166 784.926 219.966 783.534 220.99 782.382C222.046 781.23 223.295 780.35 224.735 779.742C226.175 779.102 227.742 778.782 229.438 778.782C231.134 778.782 232.703 779.102 234.143 779.742C235.583 780.35 236.815 781.23 237.839 782.382C238.895 783.534 239.711 784.926 240.287 786.558C240.863 788.158 241.151 789.934 241.151 791.886ZM236.495 791.886C236.495 789.07 235.855 786.846 234.575 785.214C233.327 783.55 231.614 782.718 229.438 782.718C227.262 782.718 225.535 783.55 224.255 785.214C223.007 786.846 222.382 789.07 222.382 791.886C222.382 794.702 223.007 796.942 224.255 798.606C225.535 800.238 227.262 801.054 229.438 801.054C231.614 801.054 233.327 800.238 234.575 798.606C235.855 796.942 236.495 794.702 236.495 791.886Z" fill="white"/>
<path d="M247.431 780.126C248.455 779.87 249.799 779.598 251.463 779.31C253.159 779.022 255.111 778.878 257.319 778.878C258.919 778.878 260.263 779.102 261.351 779.55C262.439 779.966 263.351 780.59 264.087 781.422C264.311 781.262 264.663 781.038 265.143 780.75C265.623 780.462 266.215 780.19 266.919 779.934C267.623 779.646 268.407 779.406 269.271 779.214C270.135 778.99 271.063 778.878 272.055 778.878C273.975 778.878 275.543 779.166 276.759 779.742C277.975 780.286 278.919 781.07 279.591 782.094C280.295 783.118 280.759 784.334 280.983 785.742C281.239 787.15 281.367 788.686 281.367 790.35V804.366H276.903V791.31C276.903 789.838 276.823 788.574 276.663 787.518C276.535 786.462 276.263 785.582 275.847 784.878C275.463 784.174 274.919 783.662 274.215 783.342C273.543 782.99 272.663 782.814 271.575 782.814C270.071 782.814 268.823 783.022 267.831 783.438C266.871 783.822 266.215 784.174 265.863 784.494C266.119 785.326 266.311 786.238 266.439 787.23C266.567 788.222 266.631 789.262 266.631 790.35V804.366H262.167V791.31C262.167 789.838 262.087 788.574 261.927 787.518C261.767 786.462 261.479 785.582 261.063 784.878C260.679 784.174 260.135 783.662 259.431 783.342C258.759 782.99 257.895 782.814 256.839 782.814C256.391 782.814 255.911 782.83 255.399 782.862C254.887 782.894 254.391 782.942 253.911 783.006C253.463 783.038 253.047 783.086 252.663 783.15C252.279 783.214 252.023 783.262 251.895 783.294V804.366H247.431V780.126Z" fill="white"/>
<path d="M288.775 780.126C289.799 779.87 291.143 779.598 292.807 779.31C294.503 779.022 296.455 778.878 298.663 778.878C300.263 778.878 301.607 779.102 302.695 779.55C303.783 779.966 304.695 780.59 305.431 781.422C305.655 781.262 306.007 781.038 306.487 780.75C306.967 780.462 307.559 780.19 308.263 779.934C308.967 779.646 309.751 779.406 310.615 779.214C311.479 778.99 312.407 778.878 313.399 778.878C315.319 778.878 316.887 779.166 318.103 779.742C319.319 780.286 320.263 781.07 320.935 782.094C321.639 783.118 322.103 784.334 322.327 785.742C322.583 787.15 322.711 788.686 322.711 790.35V804.366H318.247V791.31C318.247 789.838 318.167 788.574 318.007 787.518C317.879 786.462 317.607 785.582 317.191 784.878C316.807 784.174 316.263 783.662 315.559 783.342C314.887 782.99 314.007 782.814 312.919 782.814C311.415 782.814 310.167 783.022 309.175 783.438C308.215 783.822 307.559 784.174 307.207 784.494C307.463 785.326 307.655 786.238 307.783 787.23C307.911 788.222 307.975 789.262 307.975 790.35V804.366H303.511V791.31C303.511 789.838 303.431 788.574 303.271 787.518C303.111 786.462 302.823 785.582 302.407 784.878C302.023 784.174 301.479 783.662 300.775 783.342C300.103 782.99 299.239 782.814 298.183 782.814C297.735 782.814 297.255 782.83 296.743 782.862C296.231 782.894 295.735 782.942 295.255 783.006C294.807 783.038 294.391 783.086 294.007 783.15C293.623 783.214 293.367 783.262 293.239 783.294V804.366H288.775V780.126Z" fill="white"/>
<path d="M349.99 803.646C348.966 803.902 347.607 804.174 345.911 804.462C344.247 804.75 342.31 804.894 340.102 804.894C338.182 804.894 336.567 804.622 335.255 804.078C333.943 803.502 332.887 802.702 332.087 801.678C331.287 800.654 330.711 799.454 330.359 798.078C330.007 796.67 329.831 795.118 329.831 793.422V779.406H334.294V792.462C334.294 795.502 334.774 797.678 335.734 798.99C336.694 800.302 338.311 800.958 340.583 800.958C341.063 800.958 341.558 800.942 342.07 800.91C342.582 800.878 343.062 800.846 343.51 800.814C343.958 800.75 344.358 800.702 344.71 800.67C345.094 800.606 345.367 800.542 345.527 800.478V779.406H349.99V803.646Z" fill="white"/>
<path d="M357.681 780.126C358.705 779.87 360.065 779.598 361.761 779.31C363.457 779.022 365.409 778.878 367.617 778.878C369.601 778.878 371.249 779.166 372.561 779.742C373.873 780.286 374.913 781.07 375.681 782.094C376.481 783.086 377.041 784.286 377.361 785.694C377.681 787.102 377.841 788.654 377.841 790.35V804.366H373.377V791.31C373.377 789.774 373.265 788.462 373.041 787.374C372.849 786.286 372.513 785.406 372.033 784.734C371.553 784.062 370.913 783.582 370.113 783.294C369.313 782.974 368.321 782.814 367.137 782.814C366.657 782.814 366.161 782.83 365.649 782.862C365.137 782.894 364.641 782.942 364.161 783.006C363.713 783.038 363.297 783.086 362.913 783.15C362.561 783.214 362.305 783.262 362.145 783.294V804.366H357.681V780.126Z" fill="white"/>
<path d="M389.708 804.366H385.243V779.406H389.708V804.366ZM387.452 774.894C386.652 774.894 385.963 774.638 385.387 774.126C384.843 773.582 384.572 772.862 384.572 771.966C384.572 771.07 384.843 770.366 385.387 769.854C385.963 769.31 386.652 769.038 387.452 769.038C388.252 769.038 388.923 769.31 389.467 769.854C390.043 770.366 390.331 771.07 390.331 771.966C390.331 772.862 390.043 773.582 389.467 774.126C388.923 774.638 388.252 774.894 387.452 774.894Z" fill="white"/>
<path d="M401.56 779.406H411.016V783.15H401.56V794.67C401.56 795.918 401.656 796.958 401.848 797.79C402.04 798.59 402.328 799.23 402.712 799.71C403.096 800.158 403.576 800.478 404.152 800.67C404.728 800.862 405.4 800.958 406.168 800.958C407.512 800.958 408.584 800.814 409.384 800.526C410.216 800.206 410.792 799.982 411.112 799.854L411.976 803.55C411.528 803.774 410.744 804.046 409.624 804.366C408.504 804.718 407.224 804.894 405.784 804.894C404.088 804.894 402.68 804.686 401.56 804.27C400.472 803.822 399.592 803.166 398.92 802.302C398.248 801.438 397.768 800.382 397.48 799.134C397.224 797.854 397.096 796.382 397.096 794.718V772.446L401.56 771.678V779.406Z" fill="white"/>
<path d="M413.769 809.022C414.121 809.182 414.569 809.326 415.113 809.454C415.689 809.614 416.249 809.694 416.793 809.694C418.553 809.694 419.929 809.294 420.921 808.494C421.913 807.726 422.809 806.462 423.609 804.702C421.593 800.862 419.705 796.798 417.945 792.51C416.217 788.19 414.777 783.822 413.625 779.406H418.425C418.777 780.846 419.193 782.398 419.673 784.062C420.185 785.726 420.745 787.438 421.353 789.198C421.961 790.958 422.617 792.718 423.321 794.478C424.025 796.238 424.761 797.934 425.529 799.566C426.745 796.206 427.801 792.878 428.697 789.582C429.593 786.286 430.441 782.894 431.241 779.406H435.849C434.697 784.11 433.417 788.638 432.009 792.99C430.601 797.31 429.081 801.358 427.449 805.134C426.809 806.574 426.137 807.806 425.433 808.83C424.761 809.886 424.009 810.75 423.177 811.422C422.345 812.094 421.401 812.59 420.345 812.91C419.321 813.23 418.153 813.39 416.841 813.39C416.489 813.39 416.121 813.358 415.737 813.294C415.353 813.262 414.969 813.198 414.585 813.102C414.233 813.038 413.897 812.958 413.577 812.862C413.289 812.766 413.081 812.686 412.953 812.622L413.769 809.022Z" fill="white"/>
<path d="M467.793 784.686C467.249 784.238 466.465 783.806 465.441 783.39C464.417 782.974 463.297 782.766 462.081 782.766C460.801 782.766 459.697 783.006 458.769 783.486C457.873 783.934 457.137 784.574 456.561 785.406C455.985 786.206 455.569 787.166 455.313 788.286C455.057 789.406 454.929 790.606 454.929 791.886C454.929 794.798 455.649 797.054 457.089 798.654C458.529 800.222 460.449 801.006 462.849 801.006C464.065 801.006 465.073 800.958 465.873 800.862C466.705 800.734 467.345 800.606 467.793 800.478V784.686ZM467.793 767.886L472.257 767.118V803.646C471.233 803.934 469.921 804.222 468.321 804.51C466.721 804.798 464.881 804.942 462.801 804.942C460.881 804.942 459.153 804.638 457.617 804.03C456.081 803.422 454.769 802.558 453.681 801.438C452.593 800.318 451.745 798.958 451.137 797.358C450.561 795.726 450.273 793.902 450.273 791.886C450.273 789.966 450.513 788.206 450.993 786.606C451.505 785.006 452.241 783.63 453.201 782.478C454.161 781.326 455.329 780.43 456.705 779.79C458.113 779.15 459.713 778.83 461.505 778.83C462.945 778.83 464.209 779.022 465.297 779.406C466.417 779.79 467.249 780.158 467.793 780.51V767.886Z" fill="white"/>
<path d="M488.379 801.15C489.435 801.15 490.363 801.134 491.163 801.102C491.995 801.038 492.683 800.942 493.227 800.814V793.374C492.907 793.214 492.379 793.086 491.643 792.99C490.939 792.862 490.075 792.798 489.051 792.798C488.379 792.798 487.659 792.846 486.891 792.942C486.155 793.038 485.467 793.246 484.827 793.566C484.219 793.854 483.707 794.27 483.291 794.814C482.875 795.326 482.667 796.014 482.667 796.878C482.667 798.478 483.179 799.598 484.203 800.238C485.227 800.846 486.619 801.15 488.379 801.15ZM487.995 778.782C489.787 778.782 491.291 779.022 492.507 779.502C493.755 779.95 494.747 780.606 495.483 781.47C496.251 782.302 496.795 783.31 497.115 784.494C497.435 785.646 497.595 786.926 497.595 788.334V803.934C497.211 803.998 496.667 804.094 495.963 804.222C495.291 804.318 494.523 804.414 493.659 804.51C492.795 804.606 491.851 804.686 490.827 804.75C489.835 804.846 488.843 804.894 487.851 804.894C486.443 804.894 485.147 804.75 483.963 804.462C482.779 804.174 481.755 803.726 480.891 803.118C480.027 802.478 479.355 801.646 478.875 800.622C478.395 799.598 478.155 798.366 478.155 796.926C478.155 795.55 478.427 794.366 478.971 793.374C479.547 792.382 480.315 791.582 481.275 790.974C482.235 790.366 483.355 789.918 484.635 789.63C485.915 789.342 487.259 789.198 488.667 789.198C489.115 789.198 489.579 789.23 490.059 789.294C490.539 789.326 490.987 789.39 491.403 789.486C491.851 789.55 492.235 789.614 492.555 789.678C492.875 789.742 493.099 789.79 493.227 789.822V788.574C493.227 787.838 493.147 787.118 492.987 786.414C492.827 785.678 492.539 785.038 492.123 784.494C491.707 783.918 491.131 783.47 490.395 783.15C489.691 782.798 488.763 782.622 487.611 782.622C486.139 782.622 484.843 782.734 483.723 782.958C482.635 783.15 481.819 783.358 481.275 783.582L480.747 779.886C481.323 779.63 482.283 779.39 483.627 779.166C484.971 778.91 486.427 778.782 487.995 778.782Z" fill="white"/>
<path d="M501.378 809.022C501.73 809.182 502.178 809.326 502.722 809.454C503.298 809.614 503.858 809.694 504.402 809.694C506.162 809.694 507.538 809.294 508.53 808.494C509.522 807.726 510.418 806.462 511.218 804.702C509.202 800.862 507.314 796.798 505.554 792.51C503.826 788.19 502.386 783.822 501.234 779.406H506.034C506.386 780.846 506.802 782.398 507.282 784.062C507.794 785.726 508.354 787.438 508.962 789.198C509.57 790.958 510.226 792.718 510.93 794.478C511.634 796.238 512.37 797.934 513.138 799.566C514.354 796.206 515.41 792.878 516.306 789.582C517.202 786.286 518.05 782.894 518.85 779.406H523.458C522.306 784.11 521.026 788.638 519.618 792.99C518.21 797.31 516.69 801.358 515.058 805.134C514.418 806.574 513.746 807.806 513.042 808.83C512.37 809.886 511.618 810.75 510.786 811.422C509.954 812.094 509.01 812.59 507.954 812.91C506.93 813.23 505.762 813.39 504.45 813.39C504.098 813.39 503.73 813.358 503.346 813.294C502.962 813.262 502.578 813.198 502.194 813.102C501.842 813.038 501.506 812.958 501.186 812.862C500.898 812.766 500.69 812.686 500.562 812.622L501.378 809.022Z" fill="white"/>
<path d="M533.973 801.15C535.797 801.15 537.141 800.91 538.005 800.43C538.901 799.95 539.349 799.182 539.349 798.126C539.349 797.038 538.917 796.174 538.053 795.534C537.189 794.894 535.765 794.174 533.781 793.374C532.821 792.99 531.893 792.606 530.997 792.222C530.133 791.806 529.381 791.326 528.741 790.782C528.101 790.238 527.589 789.582 527.205 788.814C526.821 788.046 526.629 787.102 526.629 785.982C526.629 783.774 527.445 782.03 529.077 780.75C530.709 779.438 532.933 778.782 535.749 778.782C536.453 778.782 537.157 778.83 537.861 778.926C538.565 778.99 539.221 779.086 539.829 779.214C540.437 779.31 540.965 779.422 541.413 779.55C541.893 779.678 542.261 779.79 542.517 779.886L541.701 783.726C541.221 783.47 540.469 783.214 539.445 782.958C538.421 782.67 537.189 782.526 535.749 782.526C534.501 782.526 533.413 782.782 532.485 783.294C531.557 783.774 531.093 784.542 531.093 785.598C531.093 786.142 531.189 786.622 531.381 787.038C531.605 787.454 531.925 787.838 532.341 788.19C532.789 788.51 533.333 788.814 533.973 789.102C534.613 789.39 535.381 789.694 536.277 790.014C537.461 790.462 538.517 790.91 539.445 791.358C540.373 791.774 541.157 792.27 541.797 792.846C542.469 793.422 542.981 794.126 543.333 794.958C543.685 795.758 543.861 796.75 543.861 797.934C543.861 800.238 542.997 801.982 541.269 803.166C539.573 804.35 537.141 804.942 533.973 804.942C531.765 804.942 530.037 804.75 528.789 804.366C527.541 804.014 526.693 803.742 526.245 803.55L527.061 799.71C527.573 799.902 528.389 800.19 529.509 800.574C530.629 800.958 532.117 801.15 533.973 801.15Z" fill="white"/>
<path d="M569.529 771.102C570.105 772.158 570.761 773.47 571.497 775.038C572.265 776.574 573.049 778.254 573.849 780.078C574.681 781.87 575.497 783.71 576.297 785.598C577.097 787.486 577.849 789.262 578.553 790.926C579.257 789.262 580.009 787.486 580.809 785.598C581.609 783.71 582.409 781.87 583.209 780.078C584.041 778.254 584.825 776.574 585.561 775.038C586.329 773.47 587.001 772.158 587.577 771.102H594.393C594.713 773.31 595.001 775.79 595.257 778.542C595.545 781.262 595.785 784.11 595.977 787.086C596.201 790.03 596.393 792.99 596.553 795.966C596.745 798.942 596.905 801.742 597.033 804.366H589.737C589.641 801.134 589.513 797.614 589.353 793.806C589.193 789.998 588.953 786.158 588.633 782.286C588.057 783.63 587.417 785.118 586.713 786.75C586.009 788.382 585.305 790.014 584.601 791.646C583.929 793.278 583.273 794.846 582.633 796.35C581.993 797.822 581.449 799.086 581.001 800.142H575.769C575.321 799.086 574.777 797.822 574.137 796.35C573.497 794.846 572.825 793.278 572.121 791.646C571.449 790.014 570.761 788.382 570.057 786.75C569.353 785.118 568.713 783.63 568.137 782.286C567.817 786.158 567.577 789.998 567.417 793.806C567.257 797.614 567.129 801.134 567.033 804.366H559.737C559.865 801.742 560.009 798.942 560.169 795.966C560.361 792.99 560.553 790.03 560.745 787.086C560.969 784.11 561.209 781.262 561.465 778.542C561.753 775.79 562.057 773.31 562.377 771.102H569.529Z" fill="white"/>
<path d="M603.775 804.366V771.102H626.239V777.39H611.263V783.918H624.559V790.062H611.263V798.078H627.343V804.366H603.775Z" fill="white"/>
<path d="M655.204 804.366C653.06 800.558 650.74 796.798 648.244 793.086C645.748 789.374 643.092 785.87 640.276 782.574V804.366H632.884V771.102H638.98C640.036 772.158 641.204 773.454 642.484 774.99C643.764 776.526 645.06 778.174 646.372 779.934C647.716 781.662 649.044 783.47 650.356 785.358C651.668 787.214 652.9 789.006 654.052 790.734V771.102H661.492V804.366H655.204Z" fill="white"/>
<path d="M691.437 804.366C691.085 803.214 690.685 802.03 690.237 800.814C689.821 799.598 689.405 798.382 688.989 797.166H676.029C675.613 798.382 675.181 799.598 674.733 800.814C674.317 802.03 673.933 803.214 673.581 804.366H665.805C667.053 800.782 668.237 797.47 669.357 794.43C670.477 791.39 671.565 788.526 672.621 785.838C673.709 783.15 674.765 780.606 675.789 778.206C676.845 775.774 677.933 773.406 679.053 771.102H686.205C687.293 773.406 688.365 775.774 689.421 778.206C690.477 780.606 691.533 783.15 692.589 785.838C693.677 788.526 694.781 791.39 695.901 794.43C697.021 797.47 698.205 800.782 699.453 804.366H691.437ZM682.461 778.638C682.301 779.118 682.061 779.774 681.741 780.606C681.421 781.438 681.053 782.398 680.637 783.486C680.221 784.574 679.757 785.774 679.245 787.086C678.765 788.398 678.269 789.774 677.757 791.214H687.213C686.701 789.774 686.205 788.398 685.725 787.086C685.245 785.774 684.781 784.574 684.333 783.486C683.917 782.398 683.549 781.438 683.229 780.606C682.909 779.774 682.653 779.118 682.461 778.638Z" fill="white"/>
<path d="M735.258 779.838C735.258 781.054 735.018 782.222 734.538 783.342C734.058 784.462 733.434 785.55 732.666 786.606C731.898 787.63 731.034 788.622 730.074 789.582C729.114 790.542 728.17 791.454 727.242 792.318C726.762 792.766 726.234 793.278 725.658 793.854C725.114 794.398 724.586 794.958 724.074 795.534C723.562 796.11 723.098 796.654 722.682 797.166C722.298 797.646 722.058 798.046 721.962 798.366H736.266V804.366H714.09C714.026 804.014 713.994 803.566 713.994 803.022C713.994 802.478 713.994 802.094 713.994 801.87C713.994 800.334 714.234 798.926 714.714 797.646C715.226 796.366 715.882 795.182 716.682 794.094C717.482 792.974 718.378 791.934 719.37 790.974C720.394 790.014 721.402 789.054 722.394 788.094C723.162 787.358 723.882 786.67 724.554 786.03C725.226 785.358 725.818 784.718 726.33 784.11C726.842 783.47 727.242 782.846 727.53 782.238C727.818 781.598 727.962 780.958 727.962 780.318C727.962 778.91 727.562 777.918 726.762 777.342C725.962 776.766 724.97 776.478 723.786 776.478C722.922 776.478 722.106 776.622 721.338 776.91C720.602 777.166 719.914 777.486 719.274 777.87C718.666 778.222 718.138 778.59 717.69 778.974C717.242 779.326 716.906 779.614 716.682 779.838L713.13 774.846C714.538 773.534 716.17 772.462 718.026 771.63C719.914 770.766 721.93 770.334 724.074 770.334C726.026 770.334 727.706 770.558 729.114 771.006C730.522 771.454 731.674 772.094 732.57 772.926C733.498 773.726 734.17 774.718 734.586 775.902C735.034 777.054 735.258 778.366 735.258 779.838Z" fill="white"/>
<path d="M764.364 787.662C764.364 793.262 763.292 797.566 761.148 800.574C759.036 803.55 756.108 805.038 752.364 805.038C748.62 805.038 745.676 803.55 743.532 800.574C741.42 797.566 740.364 793.262 740.364 787.662C740.364 784.878 740.636 782.414 741.18 780.27C741.756 778.126 742.572 776.318 743.628 774.846C744.684 773.374 745.948 772.254 747.42 771.486C748.892 770.718 750.54 770.334 752.364 770.334C756.108 770.334 759.036 771.838 761.148 774.846C763.292 777.822 764.364 782.094 764.364 787.662ZM757.068 787.662C757.068 785.998 756.988 784.494 756.828 783.15C756.668 781.774 756.412 780.59 756.06 779.598C755.708 778.606 755.228 777.838 754.62 777.294C754.012 776.75 753.26 776.478 752.364 776.478C751.468 776.478 750.716 776.75 750.108 777.294C749.532 777.838 749.052 778.606 748.668 779.598C748.316 780.59 748.06 781.774 747.9 783.15C747.74 784.494 747.66 785.998 747.66 787.662C747.66 789.326 747.74 790.846 747.9 792.222C748.06 793.598 748.316 794.782 748.668 795.774C749.052 796.766 749.532 797.534 750.108 798.078C750.716 798.622 751.468 798.894 752.364 798.894C753.26 798.894 754.012 798.622 754.62 798.078C755.228 797.534 755.708 796.766 756.06 795.774C756.412 794.782 756.668 793.598 756.828 792.222C756.988 790.846 757.068 789.326 757.068 787.662Z" fill="white"/>
<path d="M789.821 779.838C789.821 781.054 789.581 782.222 789.101 783.342C788.621 784.462 787.997 785.55 787.229 786.606C786.461 787.63 785.597 788.622 784.637 789.582C783.677 790.542 782.733 791.454 781.805 792.318C781.325 792.766 780.797 793.278 780.221 793.854C779.677 794.398 779.149 794.958 778.637 795.534C778.125 796.11 777.661 796.654 777.245 797.166C776.861 797.646 776.621 798.046 776.525 798.366H790.829V804.366H768.653C768.589 804.014 768.557 803.566 768.557 803.022C768.557 802.478 768.557 802.094 768.557 801.87C768.557 800.334 768.797 798.926 769.277 797.646C769.789 796.366 770.445 795.182 771.245 794.094C772.045 792.974 772.941 791.934 773.933 790.974C774.957 790.014 775.965 789.054 776.957 788.094C777.725 787.358 778.445 786.67 779.117 786.03C779.789 785.358 780.381 784.718 780.893 784.11C781.405 783.47 781.805 782.846 782.093 782.238C782.381 781.598 782.525 780.958 782.525 780.318C782.525 778.91 782.125 777.918 781.325 777.342C780.525 776.766 779.533 776.478 778.349 776.478C777.485 776.478 776.669 776.622 775.901 776.91C775.165 777.166 774.477 777.486 773.837 777.87C773.229 778.222 772.701 778.59 772.253 778.974C771.805 779.326 771.469 779.614 771.245 779.838L767.693 774.846C769.101 773.534 770.733 772.462 772.589 771.63C774.477 770.766 776.493 770.334 778.637 770.334C780.589 770.334 782.269 770.558 783.677 771.006C785.085 771.454 786.237 772.094 787.133 772.926C788.061 773.726 788.733 774.718 789.149 775.902C789.597 777.054 789.821 778.366 789.821 779.838Z" fill="white"/>
<path d="M817.102 779.838C817.102 781.054 816.862 782.222 816.382 783.342C815.902 784.462 815.278 785.55 814.51 786.606C813.742 787.63 812.878 788.622 811.918 789.582C810.958 790.542 810.014 791.454 809.086 792.318C808.606 792.766 808.078 793.278 807.502 793.854C806.958 794.398 806.43 794.958 805.918 795.534C805.406 796.11 804.942 796.654 804.526 797.166C804.142 797.646 803.902 798.046 803.806 798.366H818.11V804.366H795.934C795.87 804.014 795.838 803.566 795.838 803.022C795.838 802.478 795.838 802.094 795.838 801.87C795.838 800.334 796.078 798.926 796.558 797.646C797.07 796.366 797.726 795.182 798.526 794.094C799.326 792.974 800.222 791.934 801.214 790.974C802.238 790.014 803.246 789.054 804.238 788.094C805.006 787.358 805.726 786.67 806.398 786.03C807.07 785.358 807.662 784.718 808.174 784.11C808.686 783.47 809.086 782.846 809.374 782.238C809.662 781.598 809.806 780.958 809.806 780.318C809.806 778.91 809.406 777.918 808.606 777.342C807.806 776.766 806.814 776.478 805.63 776.478C804.766 776.478 803.95 776.622 803.182 776.91C802.446 777.166 801.758 777.486 801.118 777.87C800.51 778.222 799.982 778.59 799.534 778.974C799.086 779.326 798.75 779.614 798.526 779.838L794.974 774.846C796.382 773.534 798.014 772.462 799.87 771.63C801.758 770.766 803.774 770.334 805.918 770.334C807.87 770.334 809.55 770.558 810.958 771.006C812.366 771.454 813.518 772.094 814.414 772.926C815.342 773.726 816.014 774.718 816.43 775.902C816.878 777.054 817.102 778.366 817.102 779.838Z" fill="white"/>
<defs>
<clipPath id="clip0_21_1095">
<rect width="875.176" height="474.224" fill="white" transform="translate(50.447 52)"/>
</clipPath>
<clipPath id="clip1_21_1095">
<rect width="263" height="251" fill="white" transform="translate(359 411)"/>
</clipPath>
</defs>
</svg>
