<svg width="976" height="866" viewBox="0 0 976 866" fill="none" xmlns="http://www.w3.org/2000/svg">
<g clip-path="url(#clip0_20_56)">
<path d="M349.37 209.91H348.524C346.83 332.12 338.997 403.073 338.785 521.47H359.32C360.802 404.344 351.699 331.696 349.37 209.91Z" fill="#0D47A1"/>
<path d="M349.159 314.964C356.642 314.964 362.708 313.92 362.708 312.634C362.708 311.347 356.642 310.304 349.159 310.304C341.676 310.304 335.61 311.347 335.61 312.634C335.61 313.92 341.676 314.964 349.159 314.964Z" fill="#0D47A1"/>
<path d="M335.822 305.221C335.822 306.492 341.749 307.551 349.37 307.551C356.78 307.551 362.919 306.492 362.919 305.221C362.919 303.95 356.992 302.891 349.37 302.891C341.749 303.103 335.822 303.95 335.822 305.221Z" fill="#0D47A1"/>
<path d="M349.159 300.349C356.642 300.349 362.708 299.306 362.708 298.02C362.708 296.733 356.642 295.69 349.159 295.69C341.676 295.69 335.61 296.733 335.61 298.02C335.61 299.306 341.676 300.349 349.159 300.349Z" fill="#0D47A1"/>
<path d="M318.25 415.146C318.25 418.746 332.223 428.278 349.159 428.278C366.307 428.278 380.067 418.746 380.067 415.146C380.067 411.545 366.095 408.58 349.159 408.58C332.223 408.368 318.25 411.333 318.25 415.146Z" fill="#0D47A1"/>
<path d="M318.25 407.521C318.25 403.92 332.223 394.389 349.159 394.389C366.307 394.389 380.067 403.92 380.067 407.521C380.067 411.121 366.095 414.087 349.159 414.087C332.223 414.087 318.25 411.121 318.25 407.521Z" fill="#0D47A1"/>
<path d="M328.835 369.82C328.835 371.727 337.939 377.022 349.159 377.022C360.379 377.022 369.482 371.938 369.482 369.82C369.482 367.914 360.379 366.22 349.159 366.22C337.939 366.22 328.835 367.914 328.835 369.82Z" fill="#0D47A1"/>
<path d="M369.694 330.849C369.694 328.943 360.591 327.248 349.37 327.248C338.15 327.248 329.047 328.943 329.047 330.849C329.047 332.332 329.047 361.772 329.047 363.255C329.047 365.161 338.15 370.456 349.37 370.456C360.591 370.456 369.694 365.373 369.694 363.255C369.694 361.984 369.694 332.332 369.694 330.849Z" fill="#0D47A1"/>
<path d="M270.406 521.47H279.72C280.779 452.423 278.027 383.164 274.851 313.269C272.099 382.528 270.617 451.999 270.406 521.47Z" fill="#0D47A1"/>
<path d="M218.962 521.47H228.277C229.335 459.836 226.583 397.778 223.408 335.297C220.656 397.354 219.174 459.412 218.962 521.47Z" fill="#0D47A1"/>
<path d="M243.519 521.47H250.082C250.929 473.179 249.024 424.465 246.695 375.539C244.79 424.253 243.731 472.756 243.519 521.47Z" fill="#0D47A1"/>
<path d="M251.776 425.948C251.776 412.816 262.361 402.226 275.486 402.226C288.612 402.226 299.197 412.816 299.197 425.948C299.197 439.079 288.612 449.669 275.486 449.669C262.149 449.669 251.776 439.079 251.776 425.948Z" fill="#0D47A1"/>
<path d="M249.87 417.264C249.87 415.781 261.302 414.51 275.275 414.51C289.247 414.51 300.679 415.781 300.679 417.264C300.679 418.747 289.247 420.017 275.275 420.017C261.302 420.017 249.87 418.747 249.87 417.264Z" fill="#0D47A1"/>
<path d="M258.55 370.032C258.55 360.713 265.96 353.3 275.275 353.3C284.59 353.3 291.999 360.713 291.999 370.032C291.999 379.351 284.59 386.764 275.275 386.764C265.96 386.764 258.55 379.14 258.55 370.032Z" fill="#0D47A1"/>
<path d="M204.354 436.75C204.354 425.948 213.034 417.264 223.831 417.264C234.628 417.264 243.308 425.948 243.308 436.75C243.308 447.552 234.628 456.235 223.831 456.235C213.034 456.235 204.354 447.552 204.354 436.75Z" fill="#0D47A1"/>
<path d="M625.43 276.839V522.741H696.35V276.839H625.43ZM676.45 323.647C674.757 329.578 668.405 338.05 660.784 338.05C653.375 338.05 646.812 329.578 645.118 323.647L634.321 285.311H687.035L676.45 323.647Z" fill="#1976D2"/>
<path d="M411.611 441.621H286.918V475.509H411.611V441.621Z" fill="#1976D2"/>
<path d="M406.953 432.09H291.787V445.645H406.953V432.09Z" fill="#1976D2"/>
<path d="M349.37 481.863C380.822 481.863 406.318 462.424 406.318 438.444C406.318 414.464 380.822 395.025 349.37 395.025C317.919 395.025 292.423 414.464 292.423 438.444C292.423 462.424 317.919 481.863 349.37 481.863Z" fill="#1976D2"/>
<path d="M349.794 392.695L349.37 377.869L348.735 392.695L348.1 396.931H350.429L349.794 392.695Z" fill="#1976D2"/>
<path d="M349.37 390.365C350.657 390.365 351.699 389.322 351.699 388.035C351.699 386.748 350.657 385.705 349.37 385.705C348.084 385.705 347.042 386.748 347.042 388.035C347.042 389.322 348.084 390.365 349.37 390.365Z" fill="#1976D2"/>
<path d="M347.889 383.375C347.889 384.223 348.524 384.858 349.37 384.858C350.217 384.858 350.852 384.223 350.852 383.375C350.852 382.528 350.217 381.893 349.37 381.893C348.524 381.893 347.889 382.528 347.889 383.375Z" fill="#1976D2"/>
<path d="M347.889 392.483C347.889 393.33 348.524 393.965 349.37 393.965C350.217 393.965 350.852 393.33 350.852 392.483C350.852 391.636 350.217 391 349.37 391C348.524 391 347.889 391.636 347.889 392.483Z" fill="#1976D2"/>
<path d="M435.533 478.686H263.843V522.953H435.533V478.686Z" fill="#1976D2"/>
<path d="M299.409 469.579H399.332L433.204 480.169H265.536L299.409 469.579Z" fill="#1976D2"/>
<path d="M298.985 491.394H297.715H294.54H283.319V480.592L282.049 478.474V475.086C282.049 474.45 281.626 473.815 280.991 473.815C280.356 473.815 279.932 474.45 279.932 475.086L268.924 465.343H230.817L228.912 463.648L220.02 455.6H197.368V436.114V405.191V403.285V401.59V400.32V399.049V392.059V391V389.73V388.671V386.764V385.494V384.435V383.164V382.105V377.657L195.886 382.105L194.404 377.657L192.923 382.105L191.441 377.657L191.229 378.08V358.595V357.959V357.324V355.206V354.147V352.029V350.546V346.098L189.747 350.546L188.265 346.098L187.842 347.369C187.842 347.369 187.842 347.369 187.842 347.157C187.842 346.946 187.842 346.522 187.842 346.31V346.098C187.842 345.887 187.842 345.675 187.842 345.463C187.842 345.251 187.842 345.251 187.842 345.039C187.842 344.828 187.842 344.616 187.63 344.616C187.63 344.404 187.63 344.404 187.63 344.192C187.63 343.98 187.63 343.769 187.418 343.769C187.418 343.557 187.418 343.557 187.207 343.345C187.207 343.133 186.995 343.133 186.995 342.921C186.995 342.71 186.783 342.71 186.783 342.498C186.783 342.286 186.572 342.286 186.572 342.074C186.572 341.862 186.36 341.862 186.36 341.651C186.36 341.439 186.148 341.439 186.148 341.227C186.148 341.015 185.936 341.015 185.936 340.803C185.936 340.592 185.725 340.592 185.725 340.38L185.513 340.168L185.301 339.956L185.09 339.744L184.878 339.533C184.666 339.533 184.666 339.321 184.454 339.321L184.243 339.109C184.031 339.109 184.031 338.897 183.819 338.897L183.608 338.685C183.396 338.685 183.396 338.474 183.184 338.474C183.184 338.474 182.973 338.474 182.973 338.262C182.761 338.262 182.761 338.05 182.549 338.05H182.337C182.126 338.05 182.126 338.05 181.914 337.838H181.702C181.491 337.838 181.279 337.838 181.279 337.838V336.567H181.491H181.702C181.914 336.567 181.914 336.356 182.126 336.356C182.126 336.356 182.337 336.356 182.337 336.144L182.549 335.932C182.549 335.932 182.549 335.932 182.761 335.72L182.973 335.508C182.973 335.508 182.973 335.297 183.184 335.297C183.184 335.297 183.184 335.085 183.396 335.085V334.873C183.396 334.661 183.396 334.661 183.396 334.449C183.396 334.449 183.396 334.449 183.396 334.238C183.396 334.026 183.396 333.814 183.396 333.602C183.396 333.39 183.396 333.179 183.396 332.967V332.755C183.396 332.543 183.396 332.543 183.396 332.331V332.12C183.396 332.12 183.396 331.908 183.184 331.908C183.184 331.908 183.184 331.696 182.973 331.696L182.761 331.484C182.761 331.484 182.761 331.272 182.549 331.272L182.337 331.061C182.337 331.061 182.337 331.061 182.126 330.849C182.126 330.849 181.914 330.849 181.914 330.637C181.914 330.637 181.914 330.637 181.702 330.637C181.491 330.637 181.491 330.637 181.279 330.425V330.213H181.491H181.702C181.702 330.213 181.914 330.213 181.914 330.002L182.126 329.79C182.126 329.79 182.337 329.79 182.337 329.578C182.337 329.578 182.337 329.578 182.549 329.366L182.761 329.154C182.761 329.154 182.761 328.943 182.973 328.943C182.973 328.943 182.973 328.731 183.184 328.731V328.519V328.307C183.184 328.307 183.184 328.307 183.184 328.095C183.184 327.884 183.184 327.884 183.184 327.672C183.184 327.46 183.184 327.248 183.184 327.248C183.184 327.248 183.184 327.248 183.184 327.036V326.825C183.184 326.825 183.184 326.825 183.184 326.613C183.184 326.613 183.184 326.401 182.973 326.401C182.973 326.401 182.973 326.401 182.973 326.189L182.761 325.977C182.761 325.977 182.761 325.977 182.549 325.766L182.337 325.554C182.337 325.554 182.337 325.554 182.126 325.554L181.914 325.342C181.702 325.342 181.702 325.342 181.491 325.13V324.918C181.491 324.918 181.491 324.918 181.702 324.918C181.914 324.918 181.914 324.918 182.126 324.707C182.126 324.707 182.126 324.707 182.337 324.707C182.337 324.707 182.549 324.707 182.549 324.495C182.549 324.495 182.761 324.495 182.761 324.283C182.761 324.283 182.761 324.283 182.973 324.071C182.973 324.071 182.973 323.859 183.184 323.859C183.184 323.859 183.184 323.859 183.184 323.648C183.184 323.648 183.184 323.436 183.396 323.436C183.396 323.436 183.396 323.436 183.396 323.224V323.012C183.396 323.012 183.396 323.012 183.396 322.8C183.396 322.589 183.396 322.589 183.396 322.377C183.396 322.165 183.396 322.165 183.396 321.953C183.396 321.953 183.396 321.953 183.396 321.741V321.529C183.396 321.529 183.396 321.53 183.396 321.318C183.396 321.318 183.396 321.106 183.184 321.106C183.184 321.106 183.184 321.106 183.184 320.894C183.184 320.894 183.184 320.682 182.973 320.682C182.973 320.682 182.973 320.682 182.761 320.47C182.761 320.47 182.549 320.47 182.549 320.259C182.549 320.259 182.549 320.259 182.337 320.259C182.337 320.259 182.126 320.259 182.126 320.047H181.914H181.702H181.491V316.87H181.279H181.067H180.644V320.047C179.585 320.259 178.739 321.318 178.739 322.377C178.739 323.436 179.585 324.495 180.644 324.707V325.13C179.585 325.342 178.739 326.401 178.739 327.672C178.739 328.943 179.585 329.79 180.644 330.213V330.425C179.374 330.637 178.315 331.908 178.315 333.179C178.315 334.449 179.162 335.72 180.432 335.932V337.203C176.41 337.626 173.234 341.651 173.234 346.522L172.811 345.251L171.329 349.699L169.847 345.251V349.699V351.182V353.3V354.359V356.477V357.112V357.748V377.233L168.577 381.258L167.095 376.81L165.613 381.258L164.131 376.81V381.258V382.317V383.587V384.646V385.917V387.823V388.882V390.153V391.424V398.413V399.684V400.955V402.014V403.92V454.329H140.844L130.047 464.072H91.9407L80.9322 473.815C80.9322 473.179 80.5088 472.544 79.8737 472.544C79.2385 472.544 78.8151 473.179 78.8151 473.815V477.204L77.5449 479.322V490.124H67.3832H66.113H62.9375H60.6088V490.971V506.22V522.529H62.7258H63.1492H66.5364H68.4417H69.5003H69.9237H70.9822H71.829H74.1577H74.5811H75.2162H80.7205H81.1439H82.2024H85.5896H86.6481H88.7651H89.1885H92.7875H94.6928H95.5396H95.963H97.0215H97.8683H100.197H100.62H101.256H106.76H107.183H108.03H111.841H112.899H117.133H117.557H120.944H124.119V522.741H125.178H125.601H126.66V522.529H127.295H128.777H129.835H130.682H131.952V522.741H133.011H133.434H134.493V522.529H134.704H135.551H139.574V522.741H140.632H141.056H142.114V522.529H142.749H143.596H144.443H147.195V522.741H148.253H148.677H149.735V522.529H149.947H151.006H154.816V522.741H155.875H156.298H157.357V522.529H162.437V522.741H163.496H163.919H164.554V522.953H180.009V522.529H180.432H180.644V522.953H196.098V522.529H196.733H197.792H198.215H199.274V522.317H204.354V522.529H205.413H205.836H207.107V522.317H210.706H211.976H212.187V522.529H213.246H213.669H214.728V522.317H217.268H217.903H219.809V522.529H220.867H221.291H222.349V522.317H225.313H226.16H226.795H227.007H227.43V522.529H228.489H228.912H229.97V522.317H233.358H234.416H235.051V522.529H236.11H236.533H237.592V522.317H239.497H243.096H243.519H247.965H248.812H249.024H250.082H250.929H253.258H253.681H254.316H260.032H260.456H261.302H264.69H265.748H265.96H267.865H268.289H271.676H273.793H274.64H274.851H275.91H276.757H279.085H279.509H280.144H285.648H286.071H286.918H290.517H291.576H291.787H293.693H294.116H297.503H299.62V507.491V492.242V491.394H298.985Z" fill="#42A5F5"/>
<path d="M831.628 442.257L917.155 523.8H745.888L831.628 442.257Z" fill="#42A5F5"/>
<path d="M723.448 375.539L567.847 523.8H745.888L810.034 458.142L723.448 375.539Z" fill="#42A5F5"/>
<path d="M625.43 412.604L508.994 523.8H567.847L653.163 439.079L625.43 412.604Z" fill="#42A5F5"/>
<path d="M515.784 279H510.491V524.69H515.784V279Z" fill="#42A5F5"/>
<path d="M456.931 361.179C435.126 389.984 422 427.049 422 467.503C422 487.624 425.176 506.898 431.103 524.69H513.455V361.179H456.931V361.179Z" fill="#42A5F5"/>
<path d="M422 467.715C422 487.836 425.387 507.11 431.315 524.901H515.572V314.794C460.741 339.999 422 398.88 422 467.715ZM509.856 518.759H435.761C430.68 502.239 427.928 485.083 427.928 467.503C427.928 406.504 459.683 351.224 509.645 324.326V518.759H509.856Z" fill="#42A5F5"/>
<path d="M456.084 467.715C456.084 487.836 458.201 507.11 462.012 524.901H515.784V314.794C480.641 339.999 456.084 398.88 456.084 467.715ZM509.856 518.759H466.881C463.705 502.239 462.012 485.083 462.012 467.503C462.012 408.623 480.43 355.46 509.856 327.291V518.759V518.759Z" fill="#42A5F5"/>
<path d="M453.332 360.755C453.12 365.839 471.538 371.134 494.826 372.404C517.901 373.887 536.954 370.922 537.378 365.839C537.589 360.755 519.171 355.46 495.884 354.19C472.597 352.707 453.544 355.672 453.332 360.755Z" fill="#42A5F5"/>
<path d="M138.939 519.352C138.092 503.255 124.966 490.335 108.665 490.335C92.3641 490.335 79.2385 503.255 78.3917 519.352H138.939Z" fill="#42A5F5"/>
<path d="M586.053 519.988C585.418 506.644 574.41 495.842 560.861 495.842C547.312 495.842 536.303 506.644 535.668 519.988H586.053Z" fill="#0D47A1"/>
<path d="M152.699 519.352C152.064 506.22 141.267 495.63 127.93 495.63C114.593 495.63 103.796 506.22 103.161 519.352H152.699Z" fill="#0D47A1"/>
<path d="M127.718 519.352H152.487C151.852 506.22 141.055 495.63 127.718 495.63V519.352Z" fill="#2196F3"/>
<path d="M119.25 463.013C123.061 462.801 135.128 467.884 135.128 467.673C134.705 454.753 119.885 457.718 119.674 457.294C119.462 456.871 132.164 454.117 131.952 453.905C120.097 442.892 115.228 456.024 115.228 454.753C114.805 447.128 105.913 446.069 105.913 446.069C105.913 446.069 112.687 455.6 110.359 454.117C97.8683 446.281 91.729 459.201 92.9992 458.777C97.8683 456.871 109.935 459.836 109.3 460.048C98.08 461.742 96.5981 474.874 96.5981 474.874C106.125 473.391 111.417 467.673 113.746 464.284C113.323 475.933 112.052 500.078 110.57 519.564L116.71 519.776L115.651 469.367C117.133 477.415 124.119 483.346 124.331 482.711C130.682 469.155 119.039 463.013 119.25 463.013Z" fill="#0D47A1"/>
<path d="M151.852 507.491C148.677 507.491 145.713 508.762 143.384 510.88C141.267 508.762 138.303 507.491 134.916 507.491C131.741 507.491 128.777 508.762 126.66 510.88C124.543 508.762 121.579 507.491 118.403 507.491C111.841 507.491 106.76 512.574 106.336 518.928H122.849H130.47H139.574H146.983H163.708C163.708 512.574 158.415 507.491 151.852 507.491Z" fill="#2196F3"/>
<path d="M107.607 514.904C106.336 514.904 105.278 515.328 104.431 516.175C103.584 515.328 102.526 514.904 101.256 514.904C99.9854 514.904 98.9269 515.328 98.08 516.175C97.2332 515.328 96.1747 514.904 94.9045 514.904C92.3641 514.904 90.4588 516.811 90.2471 519.352H96.5981H99.562H103.161H105.913H112.476C112.052 516.811 110.147 514.904 107.607 514.904Z" fill="#0D47A1"/>
<path d="M162.014 514.904C160.744 514.904 159.685 515.328 158.839 516.175C157.992 515.328 156.933 514.904 155.663 514.904C154.393 514.904 153.334 515.328 152.488 516.175C151.641 515.328 150.582 514.904 149.312 514.904C146.772 514.904 144.866 516.811 144.655 519.352H151.006H153.969H157.568H160.321H166.883C166.46 516.811 164.555 514.904 162.014 514.904Z" fill="#0D47A1"/>
<path d="M496.927 519.352C496.292 506.856 485.918 496.689 473.216 496.689C460.514 496.689 450.141 506.644 449.505 519.352H496.927Z" fill="#0D47A1"/>
<path d="M473.216 518.717H496.927C496.292 506.22 485.918 496.054 473.216 496.054V518.717Z" fill="#2196F3"/>
<path d="M490.364 463.86C488.247 465.131 494.598 457.083 494.598 457.083C494.598 457.083 486.13 457.93 485.707 464.496C485.707 465.555 481.049 454.329 469.829 463.86C469.617 464.072 481.684 466.402 481.472 466.825C481.261 467.249 467.077 464.707 466.653 475.721C466.653 475.933 478.085 471.485 481.684 471.697C481.896 471.697 470.887 476.78 476.815 488.217C477.027 488.853 483.801 483.77 485.071 476.992L484.225 519.988L490.152 519.776C488.67 503.255 487.612 482.711 487.188 472.756C489.305 475.509 494.386 480.381 503.489 481.652C503.489 481.652 502.008 470.638 491.422 469.155C490.787 469.155 502.219 466.614 506.877 468.096C508.147 468.096 502.219 457.083 490.364 463.86Z" fill="#0D47A1"/>
<path d="M530.376 506.644C526.777 506.644 523.39 508.127 520.849 510.456C518.309 508.127 515.133 506.644 511.323 506.644C507.724 506.644 504.336 508.127 502.008 510.456C499.467 508.127 496.292 506.644 492.693 506.644C485.283 506.644 479.356 512.363 479.144 519.564H497.774H506.453H516.827H525.083H544.136C543.713 512.363 537.785 506.644 530.376 506.644Z" fill="#2196F3"/>
<path d="M465.171 489.276C469.405 489.065 483.378 494.36 483.378 494.148C482.319 479.322 465.595 483.346 465.383 482.922C465.171 482.499 479.356 478.686 479.144 478.474C465.171 466.402 460.302 481.652 460.091 480.169C459.244 471.485 449.294 470.426 449.294 470.426C449.294 470.426 457.338 481.016 454.798 479.533C440.402 471.061 433.84 485.888 435.321 485.464C440.826 483.134 454.798 486.099 453.74 486.311C441.037 488.641 439.979 503.467 439.979 503.467C450.141 501.349 455.857 495.419 458.609 491.394C457.974 498.172 456.915 508.55 456.492 518.929L461.573 519.988L461.361 495.63C462.843 505.161 471.523 511.939 471.946 511.092C478.509 495.842 464.748 489.488 465.171 489.276Z" fill="#2196F3"/>
<path d="M454.798 515.328C453.528 515.328 452.469 515.751 451.623 516.599C450.776 515.751 449.717 515.328 448.447 515.328C447.177 515.328 446.118 515.751 445.483 516.599C444.636 515.751 443.578 515.328 442.519 515.328C440.191 515.328 438.074 517.234 438.074 519.564H444.213H446.965H450.352H453.104H459.244C459.244 517.234 457.338 515.328 454.798 515.328Z" fill="#0D47A1"/>
<path d="M487.824 515.328C486.553 515.328 485.495 515.751 484.648 516.599C483.801 515.751 482.743 515.328 481.473 515.328C480.202 515.328 479.144 515.751 478.509 516.599C477.662 515.751 476.603 515.328 475.545 515.328C473.216 515.328 471.099 517.234 471.099 519.564H477.239H479.991H483.378H486.13H492.269C492.269 517.234 490.152 515.328 487.824 515.328Z" fill="#0D47A1"/>
<path d="M549.852 515.328C548.582 515.328 547.524 515.751 546.677 516.599C545.83 515.751 544.771 515.328 543.501 515.328C542.231 515.328 541.172 515.751 540.537 516.599C539.691 515.751 538.632 515.328 537.574 515.328C535.245 515.328 533.128 517.234 533.128 519.564H539.267H542.019H545.407H548.159H554.298C554.086 517.234 552.181 515.328 549.852 515.328Z" fill="#0D47A1"/>
<path d="M619.714 519.564C619.079 507.068 608.706 496.901 596.003 496.901C583.301 496.901 572.928 506.856 572.293 519.564H619.714Z" fill="#0D47A1"/>
<path d="M596.003 519.564H619.714C619.079 507.068 608.706 496.901 596.003 496.901V519.564Z" fill="#2196F3"/>
<path d="M623.948 515.328C622.678 515.328 621.619 515.751 620.773 516.599C619.926 515.751 618.867 515.328 617.597 515.328C616.327 515.328 615.268 515.751 614.633 516.599C613.786 515.751 612.728 515.328 611.669 515.328C609.341 515.328 607.224 517.234 607.224 519.564H613.363H616.115H619.502H622.254H628.394C628.394 517.234 626.489 515.328 623.948 515.328Z" fill="#0D47A1"/>
<path d="M894.927 520.623C893.868 497.748 875.027 479.533 851.951 479.533C828.876 479.533 810.034 497.748 808.976 520.623H894.927Z" fill="#0D47A1"/>
<path d="M717.732 465.766C721.331 465.766 732.763 470.426 732.763 470.214C732.34 457.93 718.156 460.683 717.944 460.26C717.732 459.836 729.799 457.083 729.587 457.083C718.156 446.493 713.71 459.201 713.71 457.93C713.286 450.517 704.818 449.458 704.818 449.458C704.818 449.458 711.169 458.565 709.052 457.083C697.197 449.67 691.269 461.954 692.54 461.53C697.197 459.836 708.841 462.589 707.994 462.801C697.409 464.496 695.927 476.78 695.927 476.78C705.03 475.298 710.111 469.791 712.228 466.825C711.805 477.839 710.534 501.137 709.264 519.564L715.192 519.776L714.345 471.697C715.615 479.322 722.39 485.04 722.601 484.405C728.741 471.485 717.521 465.766 717.732 465.766Z" fill="#2196F3"/>
<path d="M702.489 519.776C702.066 510.033 694.021 502.196 684.071 502.196C674.121 502.196 666.077 510.033 665.653 519.776H702.489Z" fill="#2196F3"/>
<path d="M684.071 519.776H702.489C702.066 510.033 694.021 502.196 684.071 502.196V519.776Z" fill="#2196F3"/>
<path d="M709.687 515.328C708.417 515.328 707.359 515.751 706.512 516.599C705.665 515.751 704.606 515.328 703.336 515.328C702.066 515.328 701.008 515.751 700.372 516.599C699.526 515.751 698.467 515.328 697.409 515.328C695.08 515.328 692.963 517.234 692.963 519.564H699.102H701.854H705.242H707.994H714.133C714.133 517.234 712.228 515.328 709.687 515.328Z" fill="#0D47A1"/>
<path d="M253.469 472.756C251.564 473.815 257.492 466.402 257.492 466.402C257.492 466.402 249.659 467.249 249.235 473.391C249.235 474.45 245.001 464.072 234.416 472.756C234.205 472.968 245.425 475.086 245.213 475.509C245.001 475.933 231.876 473.391 231.452 483.77C231.452 483.981 242.037 479.957 245.425 479.957C245.636 479.957 235.263 484.829 240.979 495.419C241.191 495.842 247.118 491.606 248.6 485.464L247.33 520.623L252.834 520.411C251.564 505.585 250.717 489.065 250.294 480.804C252.411 483.346 257.068 488.006 265.536 489.276C265.536 489.276 264.266 478.898 254.316 477.627C253.681 477.627 264.478 475.086 268.712 476.568C269.77 476.78 264.478 466.614 253.469 472.756Z" fill="#0D47A1"/>
<path d="M336.033 519.564C335.61 510.457 328.2 503.255 319.097 503.255C309.994 503.255 302.584 510.457 302.161 519.564H336.033Z" fill="#2196F3"/>
<path d="M319.097 519.564H336.033C335.61 510.457 328.2 503.255 319.097 503.255V519.564Z" fill="#2196F3"/>
<path d="M254.528 514.481C254.528 517.446 252.199 519.776 249.235 519.776C246.271 519.776 243.943 517.446 243.943 514.481C243.943 511.516 246.271 509.186 249.235 509.186C251.987 509.186 254.528 511.516 254.528 514.481Z" fill="#42A5F5"/>
<path d="M225.948 510.245C223.408 510.245 220.867 511.304 219.174 512.998C217.48 511.304 214.94 510.245 212.399 510.245C209.859 510.245 207.53 511.304 205.625 512.998C203.931 511.304 201.602 510.245 198.85 510.245C193.558 510.245 189.324 514.481 189.112 519.564H202.449H208.589H215.998H221.926H235.475C235.475 514.269 231.241 510.245 225.948 510.245Z" fill="#2196F3"/>
<path d="M360.379 510.245C357.838 510.245 355.298 511.304 353.604 512.998C351.911 511.304 349.37 510.245 346.83 510.245C344.29 510.245 341.961 511.304 340.055 512.998C338.362 511.304 336.033 510.245 333.281 510.245C327.988 510.245 323.754 514.481 323.543 519.564H336.88H343.019H350.429H356.357H369.905C369.905 514.269 365.671 510.245 360.379 510.245Z" fill="#2196F3"/>
<path d="M272.946 497.748C276.121 497.536 286.071 501.349 286.071 501.137C285.436 490.547 273.369 493.512 273.158 493.089C272.946 492.665 283.108 490.123 283.108 489.912C273.158 481.228 269.559 492.03 269.559 490.971C268.924 484.828 261.726 483.981 261.726 483.981C261.726 483.981 267.442 491.606 265.536 490.547C255.163 484.405 250.505 495.207 251.564 494.783C255.375 493.089 265.536 495.207 264.901 495.419C255.798 497.113 254.951 507.703 254.951 507.703C262.149 506.22 266.171 501.984 268.288 499.231C267.653 504.314 266.807 512.363 266.383 520.411L269.982 521.258L270.194 501.773C270.194 501.984 270.194 502.196 270.194 502.408C271.252 509.397 277.603 514.057 277.815 513.633C282.261 502.408 272.523 497.748 272.946 497.748Z" fill="#2196F3"/>
<path d="M258.974 516.387C258.127 516.387 257.28 516.811 256.857 517.234C256.221 516.599 255.586 516.387 254.74 516.387C253.893 516.387 253.046 516.811 252.623 517.234C251.987 516.599 251.352 516.387 250.505 516.387C248.812 516.387 247.33 517.658 247.33 519.352H251.776H253.893H255.798H257.703H262.149C262.149 517.87 260.667 516.387 258.974 516.387Z" fill="#2196F3"/>
<path d="M387.688 516.387C386.842 516.387 385.995 516.811 385.36 517.234C384.725 516.599 384.09 516.387 383.243 516.387C382.396 516.387 381.549 516.811 381.126 517.234C380.491 516.599 379.855 516.387 379.009 516.387C377.315 516.387 375.833 517.658 375.833 519.352H380.279H382.396H384.725H386.63H391.076C390.864 517.87 389.382 516.387 387.688 516.387Z" fill="#0D47A1"/>
<path d="M307.665 516.387C306.818 516.387 305.972 516.811 305.336 517.234C304.701 516.599 304.066 516.387 303.219 516.387C302.373 516.387 301.526 516.811 301.102 517.234C300.467 516.599 299.832 516.387 298.985 516.387C297.292 516.387 295.81 517.658 295.81 519.352H300.256H302.373H304.701H306.607H311.052C310.841 517.87 309.359 516.387 307.665 516.387Z" fill="#0D47A1"/>
<path d="M332.858 516.387C332.011 516.387 331.164 516.811 330.529 517.234C329.894 516.599 329.259 516.387 328.412 516.387C327.565 516.387 326.718 516.811 326.295 517.234C325.66 516.599 325.025 516.387 324.178 516.387C322.484 516.387 321.002 517.658 321.002 519.352H325.448H327.565H329.894H331.799H336.245C336.033 517.87 334.551 516.387 332.858 516.387Z" fill="#0D47A1"/>
<path d="M876.72 507.703C873.121 507.703 869.734 509.186 867.194 511.516C864.653 509.186 861.478 507.703 857.667 507.703C854.068 507.703 850.681 509.186 848.352 511.516C845.812 509.186 842.636 507.703 839.037 507.703C831.628 507.703 825.7 513.422 825.488 520.623H844.118H852.798H863.171H871.428H890.481C890.057 513.422 884.13 507.703 876.72 507.703Z" fill="#2196F3"/>
<path d="M828.452 515.328C827.182 515.328 826.124 515.751 825.277 516.599C824.43 515.751 823.371 515.328 822.101 515.328C820.831 515.328 819.772 515.751 819.137 516.599C818.291 515.751 817.232 515.328 816.174 515.328C813.845 515.328 811.728 517.234 811.728 519.564H817.867H820.619H824.006H826.759H832.898C832.686 517.234 830.781 515.328 828.452 515.328Z" fill="#0D47A1"/>
<path d="M882.86 484.617C882.86 484.617 881.166 505.161 879.261 520.411H884.342L884.13 484.617H882.86Z" fill="#0D47A1"/>
<path d="M865.077 507.915C865.077 507.915 864.653 493.301 876.72 489.7C877.567 489.488 863.595 488.006 858.514 490.759C857.244 491.394 861.901 476.145 876.932 482.922C879.684 484.193 870.581 474.662 870.581 474.662C870.581 474.662 880.531 474.45 882.225 482.922C882.436 484.405 885.823 468.943 900.643 479.322C900.854 479.534 887.305 484.617 887.729 485.04C888.152 485.464 904.03 479.745 906.57 494.148C906.57 494.36 892.386 490.759 888.364 491.394C887.94 491.394 901.913 496.266 897.044 512.151C896.832 512.998 887.517 507.28 884.977 497.96C883.706 493.512 883.495 490.759 883.495 490.759C883.495 490.759 879.472 503.255 865.077 507.915Z" fill="#0D47A1"/>
<path d="M898.314 514.904C897.044 514.904 895.985 515.328 895.138 516.175C894.291 515.328 893.233 514.904 891.963 514.904C890.693 514.904 889.634 515.328 888.999 516.175C888.152 515.328 887.094 514.904 886.035 514.904C883.706 514.904 881.589 516.811 881.589 519.14H887.729H890.481H893.868H896.62H902.76C902.548 516.811 900.643 514.904 898.314 514.904Z" fill="#0D47A1"/>
<path d="M927.74 518.928H52.5641V525.918H927.74V518.928Z" fill="#42A5F5"/>
<path d="M565.285 412.177L607.837 418.32C610.801 418.743 612.918 420.861 612.918 423.403V538.411H565.285V412.177Z" fill="#0D47A1"/>
<path d="M565.285 465.128H517.652V538.411H565.285V465.128Z" fill="#0D47A1"/>
<path d="M531.624 379.772H565.497V475.082H529.296V382.313C529.084 380.831 530.143 379.772 531.624 379.772Z" fill="#0D47A1"/>
<path d="M565.285 323.009L596.829 328.939C599.581 329.363 601.486 331.693 601.486 334.023V435.476H565.285V323.009Z" fill="#0D47A1"/>
<path d="M565.285 325.551H542.21V435.476H565.285V325.551Z" fill="#0D47A1"/>
<path d="M544.75 270.482H565.285V380.407H542.21V273.024C542.21 271.541 543.48 270.482 544.75 270.482Z" fill="#0D47A1"/>
<path d="M565.285 212.872L584.338 218.591C586.879 219.226 588.361 221.344 588.361 223.462V331.905H565.285V212.872Z" fill="#0D47A1"/>
<path d="M557.452 160.345H565.285V270.27H554.912V162.887C554.912 161.616 555.97 160.345 557.452 160.345Z" fill="#0D47A1"/>
<path d="M565.285 109.725L575.659 114.173V219.862H565.285V109.725Z" fill="#0D47A1"/>
<path d="M565.285 68H562.11V160.769H565.285V68Z" fill="#0D47A1"/>
<path d="M635.57 479.53H495V538.411H635.57V479.53Z" fill="#0D47A1"/>
<path d="M349.37 209.91H348.524C346.83 332.12 338.997 403.073 338.785 521.47H359.32C360.802 404.344 351.699 331.696 349.37 209.91Z" fill="#0D47A1"/>
<path d="M349.159 314.964C356.642 314.964 362.708 313.92 362.708 312.634C362.708 311.347 356.642 310.304 349.159 310.304C341.676 310.304 335.61 311.347 335.61 312.634C335.61 313.92 341.676 314.964 349.159 314.964Z" fill="#0D47A1"/>
<path d="M335.822 305.221C335.822 306.492 341.749 307.551 349.37 307.551C356.78 307.551 362.919 306.492 362.919 305.221C362.919 303.95 356.992 302.891 349.37 302.891C341.749 303.103 335.822 303.95 335.822 305.221Z" fill="#0D47A1"/>
<path d="M349.159 300.349C356.642 300.349 362.708 299.306 362.708 298.02C362.708 296.733 356.642 295.69 349.159 295.69C341.676 295.69 335.61 296.733 335.61 298.02C335.61 299.306 341.676 300.349 349.159 300.349Z" fill="#0D47A1"/>
<path d="M318.25 415.146C318.25 418.746 332.223 428.278 349.159 428.278C366.307 428.278 380.067 418.746 380.067 415.146C380.067 411.545 366.095 408.58 349.159 408.58C332.223 408.368 318.25 411.333 318.25 415.146Z" fill="#0D47A1"/>
<path d="M318.25 407.521C318.25 403.92 332.223 394.389 349.159 394.389C366.307 394.389 380.067 403.92 380.067 407.521C380.067 411.121 366.095 414.087 349.159 414.087C332.223 414.087 318.25 411.121 318.25 407.521Z" fill="#0D47A1"/>
<path d="M328.835 369.82C328.835 371.727 337.939 377.022 349.159 377.022C360.379 377.022 369.482 371.938 369.482 369.82C369.482 367.914 360.379 366.22 349.159 366.22C337.939 366.22 328.835 367.914 328.835 369.82Z" fill="#0D47A1"/>
<path d="M369.694 330.849C369.694 328.943 360.591 327.248 349.37 327.248C338.15 327.248 329.047 328.943 329.047 330.849C329.047 332.332 329.047 361.772 329.047 363.255C329.047 365.161 338.15 370.456 349.37 370.456C360.591 370.456 369.694 365.373 369.694 363.255C369.694 361.984 369.694 332.332 369.694 330.849Z" fill="#0D47A1"/>
<path d="M270.406 521.47H279.72C280.779 452.423 278.027 383.164 274.851 313.269C272.099 382.528 270.617 451.999 270.406 521.47Z" fill="#0D47A1"/>
<path d="M218.962 521.47H228.277C229.335 459.836 226.583 397.778 223.408 335.297C220.656 397.354 219.174 459.412 218.962 521.47Z" fill="#0D47A1"/>
<path d="M243.519 521.47H250.082C250.929 473.179 249.024 424.465 246.695 375.539C244.79 424.253 243.731 472.756 243.519 521.47Z" fill="#0D47A1"/>
<path d="M251.776 425.948C251.776 412.816 262.361 402.226 275.486 402.226C288.612 402.226 299.197 412.816 299.197 425.948C299.197 439.079 288.612 449.669 275.486 449.669C262.149 449.669 251.776 439.079 251.776 425.948Z" fill="#0D47A1"/>
<path d="M249.87 417.264C249.87 415.781 261.302 414.51 275.275 414.51C289.247 414.51 300.679 415.781 300.679 417.264C300.679 418.747 289.247 420.017 275.275 420.017C261.302 420.017 249.87 418.747 249.87 417.264Z" fill="#0D47A1"/>
<path d="M258.55 370.032C258.55 360.713 265.96 353.3 275.275 353.3C284.59 353.3 291.999 360.713 291.999 370.032C291.999 379.351 284.59 386.764 275.275 386.764C265.96 386.764 258.55 379.14 258.55 370.032Z" fill="#0D47A1"/>
<path d="M204.354 436.75C204.354 425.948 213.034 417.264 223.831 417.264C234.628 417.264 243.308 425.948 243.308 436.75C243.308 447.552 234.628 456.235 223.831 456.235C213.034 456.235 204.354 447.552 204.354 436.75Z" fill="#0D47A1"/>
<path d="M625.43 276.839V522.741H696.35V276.839H625.43ZM676.45 323.647C674.757 329.578 668.405 338.05 660.784 338.05C653.375 338.05 646.812 329.578 645.118 323.647L634.321 285.311H687.035L676.45 323.647Z" fill="#1976D2"/>
<path d="M411.611 441.621H286.918V475.509H411.611V441.621Z" fill="#1976D2"/>
<path d="M406.953 432.09H291.787V445.645H406.953V432.09Z" fill="#1976D2"/>
<path d="M349.37 481.863C380.822 481.863 406.318 462.424 406.318 438.444C406.318 414.464 380.822 395.025 349.37 395.025C317.919 395.025 292.423 414.464 292.423 438.444C292.423 462.424 317.919 481.863 349.37 481.863Z" fill="#1976D2"/>
<path d="M349.794 392.695L349.37 377.869L348.735 392.695L348.1 396.931H350.429L349.794 392.695Z" fill="#1976D2"/>
<path d="M349.37 390.365C350.657 390.365 351.699 389.322 351.699 388.035C351.699 386.748 350.657 385.705 349.37 385.705C348.084 385.705 347.042 386.748 347.042 388.035C347.042 389.322 348.084 390.365 349.37 390.365Z" fill="#1976D2"/>
<path d="M347.889 383.375C347.889 384.223 348.524 384.858 349.37 384.858C350.217 384.858 350.852 384.223 350.852 383.375C350.852 382.528 350.217 381.893 349.37 381.893C348.524 381.893 347.889 382.528 347.889 383.375Z" fill="#1976D2"/>
<path d="M347.889 392.483C347.889 393.33 348.524 393.965 349.37 393.965C350.217 393.965 350.852 393.33 350.852 392.483C350.852 391.636 350.217 391 349.37 391C348.524 391 347.889 391.636 347.889 392.483Z" fill="#1976D2"/>
<path d="M435.533 478.686H263.843V522.953H435.533V478.686Z" fill="#1976D2"/>
<path d="M299.409 469.579H399.332L433.204 480.169H265.536L299.409 469.579Z" fill="#1976D2"/>
<path d="M298.985 491.394H297.715H294.54H283.319V480.592L282.049 478.474V475.086C282.049 474.45 281.626 473.815 280.991 473.815C280.356 473.815 279.932 474.45 279.932 475.086L268.924 465.343H230.817L228.912 463.648L220.02 455.6H197.368V436.114V405.191V403.285V401.59V400.32V399.049V392.059V391V389.73V388.671V386.764V385.494V384.435V383.164V382.105V377.657L195.886 382.105L194.404 377.657L192.923 382.105L191.441 377.657L191.229 378.08V358.595V357.959V357.324V355.206V354.147V352.029V350.546V346.098L189.747 350.546L188.265 346.098L187.842 347.369C187.842 347.369 187.842 347.369 187.842 347.157C187.842 346.946 187.842 346.522 187.842 346.31V346.098C187.842 345.887 187.842 345.675 187.842 345.463C187.842 345.251 187.842 345.251 187.842 345.039C187.842 344.828 187.842 344.616 187.63 344.616C187.63 344.404 187.63 344.404 187.63 344.192C187.63 343.98 187.63 343.769 187.418 343.769C187.418 343.557 187.418 343.557 187.207 343.345C187.207 343.133 186.995 343.133 186.995 342.921C186.995 342.71 186.783 342.71 186.783 342.498C186.783 342.286 186.572 342.286 186.572 342.074C186.572 341.862 186.36 341.862 186.36 341.651C186.36 341.439 186.148 341.439 186.148 341.227C186.148 341.015 185.936 341.015 185.936 340.803C185.936 340.592 185.725 340.592 185.725 340.38L185.513 340.168L185.301 339.956L185.09 339.744L184.878 339.533C184.666 339.533 184.666 339.321 184.454 339.321L184.243 339.109C184.031 339.109 184.031 338.897 183.819 338.897L183.608 338.685C183.396 338.685 183.396 338.474 183.184 338.474C183.184 338.474 182.973 338.474 182.973 338.262C182.761 338.262 182.761 338.05 182.549 338.05H182.337C182.126 338.05 182.126 338.05 181.914 337.838H181.702C181.491 337.838 181.279 337.838 181.279 337.838V336.567H181.491H181.702C181.914 336.567 181.914 336.356 182.126 336.356C182.126 336.356 182.337 336.356 182.337 336.144L182.549 335.932C182.549 335.932 182.549 335.932 182.761 335.72L182.973 335.508C182.973 335.508 182.973 335.297 183.184 335.297C183.184 335.297 183.184 335.085 183.396 335.085V334.873C183.396 334.661 183.396 334.661 183.396 334.449C183.396 334.449 183.396 334.449 183.396 334.238C183.396 334.026 183.396 333.814 183.396 333.602C183.396 333.39 183.396 333.179 183.396 332.967V332.755C183.396 332.543 183.396 332.543 183.396 332.331V332.12C183.396 332.12 183.396 331.908 183.184 331.908C183.184 331.908 183.184 331.696 182.973 331.696L182.761 331.484C182.761 331.484 182.761 331.272 182.549 331.272L182.337 331.061C182.337 331.061 182.337 331.061 182.126 330.849C182.126 330.849 181.914 330.849 181.914 330.637C181.914 330.637 181.914 330.637 181.702 330.637C181.491 330.637 181.491 330.637 181.279 330.425V330.213H181.491H181.702C181.702 330.213 181.914 330.213 181.914 330.002L182.126 329.79C182.126 329.79 182.337 329.79 182.337 329.578C182.337 329.578 182.337 329.578 182.549 329.366L182.761 329.154C182.761 329.154 182.761 328.943 182.973 328.943C182.973 328.943 182.973 328.731 183.184 328.731V328.519V328.307C183.184 328.307 183.184 328.307 183.184 328.095C183.184 327.884 183.184 327.884 183.184 327.672C183.184 327.46 183.184 327.248 183.184 327.248C183.184 327.248 183.184 327.248 183.184 327.036V326.825C183.184 326.825 183.184 326.825 183.184 326.613C183.184 326.613 183.184 326.401 182.973 326.401C182.973 326.401 182.973 326.401 182.973 326.189L182.761 325.977C182.761 325.977 182.761 325.977 182.549 325.766L182.337 325.554C182.337 325.554 182.337 325.554 182.126 325.554L181.914 325.342C181.702 325.342 181.702 325.342 181.491 325.13V324.918C181.491 324.918 181.491 324.918 181.702 324.918C181.914 324.918 181.914 324.918 182.126 324.707C182.126 324.707 182.126 324.707 182.337 324.707C182.337 324.707 182.549 324.707 182.549 324.495C182.549 324.495 182.761 324.495 182.761 324.283C182.761 324.283 182.761 324.283 182.973 324.071C182.973 324.071 182.973 323.859 183.184 323.859C183.184 323.859 183.184 323.859 183.184 323.648C183.184 323.648 183.184 323.436 183.396 323.436C183.396 323.436 183.396 323.436 183.396 323.224V323.012C183.396 323.012 183.396 323.012 183.396 322.8C183.396 322.589 183.396 322.589 183.396 322.377C183.396 322.165 183.396 322.165 183.396 321.953C183.396 321.953 183.396 321.953 183.396 321.741V321.529C183.396 321.529 183.396 321.53 183.396 321.318C183.396 321.318 183.396 321.106 183.184 321.106C183.184 321.106 183.184 321.106 183.184 320.894C183.184 320.894 183.184 320.682 182.973 320.682C182.973 320.682 182.973 320.682 182.761 320.47C182.761 320.47 182.549 320.47 182.549 320.259C182.549 320.259 182.549 320.259 182.337 320.259C182.337 320.259 182.126 320.259 182.126 320.047H181.914H181.702H181.491V316.87H181.279H181.067H180.644V320.047C179.585 320.259 178.739 321.318 178.739 322.377C178.739 323.436 179.585 324.495 180.644 324.707V325.13C179.585 325.342 178.739 326.401 178.739 327.672C178.739 328.943 179.585 329.79 180.644 330.213V330.425C179.374 330.637 178.315 331.908 178.315 333.179C178.315 334.449 179.162 335.72 180.432 335.932V337.203C176.41 337.626 173.234 341.651 173.234 346.522L172.811 345.251L171.329 349.699L169.847 345.251V349.699V351.182V353.3V354.359V356.477V357.112V357.748V377.233L168.577 381.258L167.095 376.81L165.613 381.258L164.131 376.81V381.258V382.317V383.587V384.646V385.917V387.823V388.882V390.153V391.424V398.413V399.684V400.955V402.014V403.92V454.329H140.844L130.047 464.072H91.9407L80.9322 473.815C80.9322 473.179 80.5088 472.544 79.8737 472.544C79.2385 472.544 78.8151 473.179 78.8151 473.815V477.204L77.5449 479.322V490.124H67.3832H66.113H62.9375H60.6088V490.971V506.22V522.529H62.7258H63.1492H66.5364H68.4417H69.5003H69.9237H70.9822H71.829H74.1577H74.5811H75.2162H80.7205H81.1439H82.2024H85.5896H86.6481H88.7651H89.1885H92.7875H94.6928H95.5396H95.963H97.0215H97.8683H100.197H100.62H101.256H106.76H107.183H108.03H111.841H112.899H117.133H117.557H120.944H124.119V522.741H125.178H125.601H126.66V522.529H127.295H128.777H129.835H130.682H131.952V522.741H133.011H133.434H134.493V522.529H134.704H135.551H139.574V522.741H140.632H141.056H142.114V522.529H142.749H143.596H144.443H147.195V522.741H148.253H148.677H149.735V522.529H149.947H151.006H154.816V522.741H155.875H156.298H157.357V522.529H162.437V522.741H163.496H163.919H164.554V522.953H180.009V522.529H180.432H180.644V522.953H196.098V522.529H196.733H197.792H198.215H199.274V522.317H204.354V522.529H205.413H205.836H207.107V522.317H210.706H211.976H212.187V522.529H213.246H213.669H214.728V522.317H217.268H217.903H219.809V522.529H220.867H221.291H222.349V522.317H225.313H226.16H226.795H227.007H227.43V522.529H228.489H228.912H229.97V522.317H233.358H234.416H235.051V522.529H236.11H236.533H237.592V522.317H239.497H243.096H243.519H247.965H248.812H249.024H250.082H250.929H253.258H253.681H254.316H260.032H260.456H261.302H264.69H265.748H265.96H267.865H268.289H271.676H273.793H274.64H274.851H275.91H276.757H279.085H279.509H280.144H285.648H286.071H286.918H290.517H291.576H291.787H293.693H294.116H297.503H299.62V507.491V492.242V491.394H298.985Z" fill="#42A5F5"/>
<path d="M831.628 442.257L917.155 523.8H745.888L831.628 442.257Z" fill="#42A5F5"/>
<path d="M723.448 375.539L567.847 523.8H745.888L810.034 458.142L723.448 375.539Z" fill="#42A5F5"/>
<path d="M625.43 412.604L508.994 523.8H567.847L653.163 439.079L625.43 412.604Z" fill="#42A5F5"/>
<g clip-path="url(#clip1_20_56)">
<path d="M510.785 457.919L490.82 492.496L470.727 457.791L470.855 414.379L490.692 409L510.657 414.379L510.785 457.919Z" fill="#C2E4FF"/>
<path d="M466.76 458.944V498.771L432.077 478.793L410.32 441.143L424.91 426.544L444.875 421.166L466.76 458.944Z" fill="#C2E4FF"/>
<path d="M466.76 503.381V516.187L453.578 516.315L436.044 485.709L466.76 503.381Z" fill="#C2E4FF"/>
<path d="M488.516 496.466L482.117 507.607L470.727 501.076V465.859L488.516 496.466Z" fill="#C2E4FF"/>
<path d="M510.785 501.332L499.651 507.735L493.124 496.466L510.785 465.987V501.332Z" fill="#C2E4FF"/>
<path d="M545.34 486.093L527.678 516.827H514.88V503.637L545.34 486.093Z" fill="#C2E4FF"/>
<path d="M565.177 520.797L534.589 538.598L523.455 532.195L529.982 520.797H565.177Z" fill="#C2E4FF"/>
<path d="M544.956 595.457L514.24 577.785L510.273 575.48L500.93 570.101L497.475 568.052L495.555 571.638L490.18 580.73L484.805 571.382L482.757 567.924L479.302 569.973L470.215 575.224L466.248 577.529L435.66 595.073L453.322 564.338L466.12 564.466H470.215V560.368H466.12H455.625L461.001 551.02L463.048 547.562L459.465 545.641L450.378 540.263L459.721 534.884L463.176 532.835L461.257 529.378L456.009 520.285H466.76H470.727V505.686L480.07 511.065L483.525 513.114L485.573 509.656L490.82 500.436L496.195 509.784L498.243 513.242L501.698 511.321L510.785 506.07L510.913 516.828V520.798H525.375L520 530.146L517.952 533.604L521.535 535.653L530.622 540.903L521.279 546.282L517.824 548.331L519.872 551.788L525.119 560.881L514.368 561.009H510.273V564.979H514.368H527.422L544.956 595.457Z" fill="#C2E4FF"/>
<path d="M457.673 531.426L446.411 537.958L415.951 520.285H451.274L457.673 531.426Z" fill="#C2E4FF"/>
<path d="M448.97 516.315H409.04L371.414 494.545L376.789 474.567L391.379 459.968L429.133 481.739L448.97 516.315Z" fill="#C2E4FF"/>
<path d="M442.443 540.263L407.761 560.368H364.375L359 540.391L364.375 520.413L407.889 520.285L442.443 540.263Z" fill="#C2E4FF"/>
<path d="M622 540.775L616.625 560.752L573.111 560.881L538.557 540.903L573.239 520.797L616.625 520.925L622 540.775Z" fill="#C2E4FF"/>
<path d="M609.842 494.929L572.216 516.828H532.286L552.251 482.123L589.877 460.353L604.467 474.952L609.842 494.929Z" fill="#C2E4FF"/>
<path d="M571.064 441.399L549.307 479.177L514.88 499.027L514.752 459.072L536.509 421.422L556.474 426.8L571.064 441.399Z" fill="#C2E4FF"/>
</g>
<path d="M138.939 519.352C138.092 503.255 124.966 490.335 108.665 490.335C92.3641 490.335 79.2385 503.255 78.3917 519.352H138.939Z" fill="#0D47A1"/>
<path d="M586.053 519.988C585.418 506.644 574.41 495.842 560.861 495.842C547.312 495.842 536.303 506.644 535.668 519.988H586.053Z" fill="#2196F3"/>
<path d="M152.699 519.352C152.064 506.22 141.267 495.63 127.93 495.63C114.593 495.63 103.796 506.22 103.161 519.352H152.699Z" fill="#2196F3"/>
<path d="M127.718 519.352H152.487C151.852 506.22 141.055 495.63 127.718 495.63V519.352Z" fill="#0D47A1"/>
<path d="M119.25 463.013C123.061 462.801 135.128 467.884 135.128 467.673C134.705 454.753 119.885 457.718 119.674 457.294C119.462 456.871 132.164 454.117 131.952 453.905C120.097 442.892 115.228 456.024 115.228 454.753C114.805 447.128 105.913 446.069 105.913 446.069C105.913 446.069 112.687 455.6 110.359 454.117C97.8683 446.281 91.729 459.201 92.9992 458.777C97.8683 456.871 109.935 459.836 109.3 460.048C98.08 461.742 96.5981 474.874 96.5981 474.874C106.125 473.391 111.417 467.673 113.746 464.284C113.323 475.933 112.052 500.078 110.57 519.564L116.71 519.776L115.651 469.367C117.133 477.415 124.119 483.346 124.331 482.711C130.682 469.155 119.039 463.013 119.25 463.013Z" fill="#0D47A1"/>
<path d="M151.852 507.491C148.677 507.491 145.713 508.762 143.384 510.88C141.267 508.762 138.303 507.491 134.916 507.491C131.741 507.491 128.777 508.762 126.66 510.88C124.543 508.762 121.579 507.491 118.403 507.491C111.841 507.491 106.76 512.574 106.336 518.928H122.849H130.47H139.574H146.983H163.708C163.708 512.574 158.415 507.491 151.852 507.491Z" fill="#0D47A1"/>
<path d="M107.607 514.904C106.336 514.904 105.278 515.328 104.431 516.175C103.584 515.328 102.526 514.904 101.256 514.904C99.9854 514.904 98.9269 515.328 98.08 516.175C97.2332 515.328 96.1747 514.904 94.9045 514.904C92.3641 514.904 90.4588 516.811 90.2471 519.352H96.5981H99.562H103.161H105.913H112.476C112.052 516.811 110.147 514.904 107.607 514.904Z" fill="#2196F3"/>
<path d="M162.014 514.904C160.744 514.904 159.685 515.328 158.839 516.175C157.992 515.328 156.933 514.904 155.663 514.904C154.393 514.904 153.334 515.328 152.488 516.175C151.641 515.328 150.582 514.904 149.312 514.904C146.772 514.904 144.866 516.811 144.655 519.352H151.006H153.969H157.568H160.321H166.883C166.46 516.811 164.555 514.904 162.014 514.904Z" fill="#2196F3"/>
<path d="M496.927 519.352C496.292 506.856 485.918 496.689 473.216 496.689C460.514 496.689 450.141 506.644 449.505 519.352H496.927Z" fill="#2196F3"/>
<path d="M414.247 462.895C412.13 464.166 418.482 456.118 418.482 456.118C418.482 456.118 410.013 456.965 409.59 463.531C409.59 464.59 404.933 453.364 393.712 462.895C393.501 463.107 405.568 465.437 405.356 465.861C405.144 466.284 390.96 463.743 390.537 474.756C390.537 474.968 401.969 470.52 405.568 470.732C405.779 470.732 394.771 475.815 400.699 487.252C400.91 487.888 407.685 482.805 408.955 476.027L408.108 519.023L414.036 518.811C412.554 502.29 411.495 481.746 411.072 471.791C413.189 474.544 418.27 479.416 427.373 480.687C427.373 480.687 425.891 469.673 415.306 468.19C414.671 468.19 426.103 465.649 430.76 467.131C432.03 467.131 426.103 456.118 414.247 462.895Z" fill="#2196F3"/>
<path d="M454.259 505.679C450.66 505.679 447.273 507.162 444.733 509.492C442.192 507.162 439.017 505.679 435.206 505.679C431.607 505.679 428.22 507.162 425.891 509.492C423.351 507.162 420.175 505.679 416.576 505.679C409.167 505.679 403.239 511.398 403.027 518.599H421.657H430.337H440.71H448.967H468.02C467.596 511.398 461.669 505.679 454.259 505.679Z" fill="#0D47A1"/>
<path d="M389.055 488.312C393.289 488.1 407.261 493.395 407.261 493.183C406.203 478.357 389.478 482.381 389.267 481.957C389.055 481.534 403.239 477.721 403.027 477.51C389.055 465.437 384.186 480.687 383.974 479.204C383.127 470.52 373.177 469.461 373.177 469.461C373.177 469.461 381.222 480.051 378.681 478.569C364.286 470.097 357.723 484.923 359.205 484.499C364.709 482.169 378.681 485.134 377.623 485.346C364.921 487.676 363.862 502.502 363.862 502.502C374.024 500.384 379.74 494.454 382.492 490.43C381.857 497.207 380.799 507.585 380.375 517.964L385.456 519.023L385.244 494.666C386.726 504.197 395.406 510.974 395.829 510.127C402.392 494.877 388.631 488.523 389.055 488.312Z" fill="#0D47A1"/>
<path d="M454.798 515.328C453.528 515.328 452.469 515.751 451.623 516.599C450.776 515.751 449.717 515.328 448.447 515.328C447.177 515.328 446.118 515.751 445.483 516.599C444.636 515.751 443.578 515.328 442.519 515.328C440.191 515.328 438.074 517.234 438.074 519.564H444.213H446.965H450.352H453.104H459.244C459.244 517.234 457.338 515.328 454.798 515.328Z" fill="#2196F3"/>
<path d="M487.824 515.328C486.553 515.328 485.495 515.751 484.648 516.599C483.801 515.751 482.743 515.328 481.473 515.328C480.202 515.328 479.144 515.751 478.509 516.599C477.662 515.751 476.603 515.328 475.545 515.328C473.216 515.328 471.099 517.234 471.099 519.564H477.239H479.991H483.378H486.13H492.269C492.269 517.234 490.152 515.328 487.824 515.328Z" fill="#2196F3"/>
<path d="M549.852 515.328C548.582 515.328 547.524 515.751 546.677 516.599C545.83 515.751 544.771 515.328 543.501 515.328C542.231 515.328 541.172 515.751 540.537 516.599C539.691 515.751 538.632 515.328 537.574 515.328C535.245 515.328 533.128 517.234 533.128 519.564H539.267H542.019H545.407H548.159H554.298C554.086 517.234 552.181 515.328 549.852 515.328Z" fill="#2196F3"/>
<path d="M619.714 519.564C619.079 507.068 608.706 496.901 596.003 496.901C583.301 496.901 572.928 506.856 572.293 519.564H619.714Z" fill="#2196F3"/>
<path d="M596.003 519.564H619.714C619.079 507.068 608.706 496.901 596.003 496.901V519.564Z" fill="#0D47A1"/>
<path d="M623.948 515.328C622.678 515.328 621.619 515.751 620.773 516.599C619.926 515.751 618.867 515.328 617.597 515.328C616.327 515.328 615.268 515.751 614.633 516.599C613.786 515.751 612.728 515.328 611.669 515.328C609.341 515.328 607.224 517.234 607.224 519.564H613.363H616.115H619.502H622.254H628.394C628.394 517.234 626.489 515.328 623.948 515.328Z" fill="#2196F3"/>
<path d="M894.927 520.623C893.868 497.748 875.027 479.533 851.951 479.533C828.876 479.533 810.034 497.748 808.976 520.623H894.927Z" fill="#2196F3"/>
<path d="M717.732 465.766C721.331 465.766 732.763 470.426 732.763 470.214C732.34 457.93 718.156 460.683 717.944 460.26C717.732 459.836 729.799 457.083 729.587 457.083C718.156 446.493 713.71 459.201 713.71 457.93C713.286 450.517 704.818 449.458 704.818 449.458C704.818 449.458 711.169 458.565 709.052 457.083C697.197 449.67 691.269 461.954 692.54 461.53C697.197 459.836 708.841 462.589 707.994 462.801C697.409 464.496 695.927 476.78 695.927 476.78C705.03 475.298 710.111 469.791 712.228 466.825C711.805 477.839 710.534 501.137 709.264 519.564L715.192 519.776L714.345 471.697C715.615 479.322 722.39 485.04 722.601 484.405C728.741 471.485 717.521 465.766 717.732 465.766Z" fill="#0D47A1"/>
<path d="M702.489 519.776C702.066 510.033 694.021 502.196 684.071 502.196C674.121 502.196 666.077 510.033 665.653 519.776H702.489Z" fill="#0D47A1"/>
<path d="M684.071 519.776H702.489C702.066 510.033 694.021 502.196 684.071 502.196V519.776Z" fill="#0D47A1"/>
<path d="M709.687 515.328C708.417 515.328 707.359 515.751 706.512 516.599C705.665 515.751 704.606 515.328 703.336 515.328C702.066 515.328 701.008 515.751 700.372 516.599C699.526 515.751 698.467 515.328 697.409 515.328C695.08 515.328 692.963 517.234 692.963 519.564H699.102H701.854H705.242H707.994H714.133C714.133 517.234 712.228 515.328 709.687 515.328Z" fill="#2196F3"/>
<path d="M543.017 470.472C541.112 471.531 547.039 464.118 547.039 464.118C547.039 464.118 539.206 464.965 538.783 471.107C538.783 472.166 534.549 461.788 523.964 470.472C523.752 470.684 534.972 472.802 534.761 473.225C534.549 473.649 521.423 471.107 521 481.485C521 481.697 531.585 477.673 534.972 477.673C535.184 477.673 524.811 482.544 530.527 493.134C530.738 493.558 536.666 489.322 538.148 483.18L536.878 518.339L542.382 518.127C541.112 503.301 540.265 486.78 539.841 478.52C541.959 481.062 546.616 485.721 555.084 486.992C555.084 486.992 553.814 476.614 543.864 475.343C543.229 475.343 554.026 472.802 558.26 474.284C559.318 474.496 554.026 464.329 543.017 470.472Z" fill="#2196F3"/>
<path d="M336.033 519.564C335.61 510.457 328.2 503.255 319.097 503.255C309.994 503.255 302.584 510.457 302.161 519.564H336.033Z" fill="#0D47A1"/>
<path d="M319.097 519.564H336.033C335.61 510.457 328.2 503.255 319.097 503.255V519.564Z" fill="#0D47A1"/>
<path d="M254.528 514.481C254.528 517.446 252.199 519.776 249.235 519.776C246.271 519.776 243.943 517.446 243.943 514.481C243.943 511.516 246.271 509.186 249.235 509.186C251.987 509.186 254.528 511.516 254.528 514.481Z" fill="#0D47A1"/>
<path d="M225.948 510.245C223.408 510.245 220.867 511.304 219.174 512.998C217.48 511.304 214.94 510.245 212.399 510.245C209.859 510.245 207.53 511.304 205.625 512.998C203.931 511.304 201.602 510.245 198.85 510.245C193.558 510.245 189.324 514.481 189.112 519.564H202.449H208.589H215.998H221.926H235.475C235.475 514.269 231.241 510.245 225.948 510.245Z" fill="#0D47A1"/>
<path d="M360.379 510.245C357.838 510.245 355.298 511.304 353.604 512.998C351.911 511.304 349.37 510.245 346.83 510.245C344.29 510.245 341.961 511.304 340.055 512.998C338.362 511.304 336.033 510.245 333.281 510.245C327.988 510.245 323.754 514.481 323.543 519.564H336.88H343.019H350.429H356.357H369.905C369.905 514.269 365.671 510.245 360.379 510.245Z" fill="#0D47A1"/>
<path d="M562.494 495.464C565.669 495.253 575.619 499.065 575.619 498.853C574.984 488.263 562.917 491.228 562.705 490.805C562.494 490.381 572.655 487.84 572.655 487.628C562.705 478.944 559.106 489.746 559.106 488.687C558.471 482.544 551.273 481.697 551.273 481.697C551.273 481.697 556.989 489.322 555.084 488.263C544.711 482.121 540.053 492.923 541.112 492.499C544.922 490.805 555.084 492.923 554.449 493.135C545.346 494.829 544.499 505.419 544.499 505.419C551.697 503.936 555.719 499.7 557.836 496.947C557.201 502.03 556.354 510.079 555.931 518.127L559.53 518.974L559.742 499.489C559.742 499.7 559.742 499.912 559.742 500.124C560.8 507.113 567.151 511.773 567.363 511.349C571.809 500.124 562.07 495.464 562.494 495.464Z" fill="#0D47A1"/>
<path d="M258.974 516.387C258.127 516.387 257.28 516.811 256.857 517.234C256.221 516.599 255.586 516.387 254.74 516.387C253.893 516.387 253.046 516.811 252.623 517.234C251.987 516.599 251.352 516.387 250.505 516.387C248.812 516.387 247.33 517.658 247.33 519.352H251.776H253.893H255.798H257.703H262.149C262.149 517.87 260.667 516.387 258.974 516.387Z" fill="#0D47A1"/>
<path d="M387.688 516.387C386.842 516.387 385.995 516.811 385.36 517.234C384.725 516.599 384.09 516.387 383.243 516.387C382.396 516.387 381.549 516.811 381.126 517.234C380.491 516.599 379.855 516.387 379.009 516.387C377.315 516.387 375.833 517.658 375.833 519.352H380.279H382.396H384.725H386.63H391.076C390.864 517.87 389.382 516.387 387.688 516.387Z" fill="#2196F3"/>
<path d="M307.665 516.387C306.818 516.387 305.972 516.811 305.336 517.234C304.701 516.599 304.066 516.387 303.219 516.387C302.373 516.387 301.526 516.811 301.102 517.234C300.467 516.599 299.832 516.387 298.985 516.387C297.292 516.387 295.81 517.658 295.81 519.352H300.256H302.373H304.701H306.607H311.052C310.841 517.87 309.359 516.387 307.665 516.387Z" fill="#2196F3"/>
<path d="M332.858 516.387C332.011 516.387 331.164 516.811 330.529 517.234C329.894 516.599 329.259 516.387 328.412 516.387C327.565 516.387 326.718 516.811 326.295 517.234C325.66 516.599 325.025 516.387 324.178 516.387C322.484 516.387 321.002 517.658 321.002 519.352H325.448H327.565H329.894H331.799H336.245C336.033 517.87 334.551 516.387 332.858 516.387Z" fill="#2196F3"/>
<path d="M876.72 507.703C873.121 507.703 869.734 509.186 867.194 511.516C864.653 509.186 861.478 507.703 857.667 507.703C854.068 507.703 850.681 509.186 848.352 511.516C845.812 509.186 842.636 507.703 839.037 507.703C831.628 507.703 825.7 513.422 825.488 520.623H844.118H852.798H863.171H871.428H890.481C890.057 513.422 884.13 507.703 876.72 507.703Z" fill="#0D47A1"/>
<path d="M828.452 515.328C827.182 515.328 826.124 515.751 825.277 516.599C824.43 515.751 823.371 515.328 822.101 515.328C820.831 515.328 819.772 515.751 819.137 516.599C818.291 515.751 817.232 515.328 816.174 515.328C813.845 515.328 811.728 517.234 811.728 519.564H817.867H820.619H824.006H826.759H832.898C832.686 517.234 830.781 515.328 828.452 515.328Z" fill="#2196F3"/>
<path d="M882.86 484.617C882.86 484.617 881.166 505.161 879.261 520.411H884.342L884.13 484.617H882.86Z" fill="#2196F3"/>
<path d="M865.077 507.915C865.077 507.915 864.653 493.301 876.72 489.7C877.567 489.488 863.595 488.006 858.514 490.759C857.244 491.394 861.901 476.145 876.932 482.922C879.684 484.193 870.581 474.662 870.581 474.662C870.581 474.662 880.531 474.45 882.225 482.922C882.436 484.405 885.823 468.943 900.643 479.322C900.854 479.534 887.305 484.617 887.729 485.04C888.152 485.464 904.03 479.745 906.57 494.148C906.57 494.36 892.386 490.759 888.364 491.394C887.94 491.394 901.913 496.266 897.044 512.151C896.832 512.998 887.517 507.28 884.977 497.96C883.706 493.512 883.495 490.759 883.495 490.759C883.495 490.759 879.472 503.255 865.077 507.915Z" fill="#0D47A1"/>
<path d="M898.314 514.904C897.044 514.904 895.985 515.328 895.138 516.175C894.291 515.328 893.233 514.904 891.963 514.904C890.693 514.904 889.634 515.328 888.999 516.175C888.152 515.328 887.094 514.904 886.035 514.904C883.706 514.904 881.589 516.811 881.589 519.14H887.729H890.481H893.868H896.62H902.76C902.548 516.811 900.643 514.904 898.314 514.904Z" fill="#2196F3"/>
<path d="M927.74 518.928H52.5641V525.918H927.74V518.928Z" fill="#061A38"/>
</g>
<path d="M74.2168 649.474C76.6085 646.783 79.0003 644.092 81.6913 641.401C84.3824 638.411 86.7771 635.72 89.1659 633.032C91.5577 630.038 93.9494 627.347 96.0447 624.955C98.14 622.564 100.23 620.172 101.723 618.379H130.726C125.045 624.955 119.363 631.535 113.685 637.513C108.303 643.494 102.323 649.773 95.7454 656.35C99.3509 659.727 102.746 663.322 105.911 667.115C109.497 671.299 112.787 675.484 116.077 679.669C119.337 683.865 122.332 688.259 125.045 692.828C127.736 697.312 130.131 701.198 131.924 704.787H103.819C102.023 701.796 99.9302 698.806 97.8378 695.516C95.6505 691.892 93.2537 688.399 90.6596 685.054C88.2295 681.467 85.5318 678.069 82.5893 674.889C80.2066 671.906 77.4988 669.198 74.5161 666.815V704.487H50V581.006L74.5161 577.118V649.474" fill="#000813"/>
<path d="M217.134 701.796C211.838 703.273 206.443 704.372 200.991 705.086C194.171 706.2 187.266 706.7 180.357 706.58C174.043 706.809 167.745 705.794 161.822 703.592C157.364 701.908 153.421 699.093 150.381 695.423C147.34 691.753 145.307 687.356 144.481 682.662C143.261 677.368 142.658 671.949 142.685 666.516V618.379H167.204V663.526C167.204 671.3 168.102 676.981 170.195 680.57C172.287 684.159 176.173 685.952 181.854 685.952C183.753 685.994 185.652 685.894 187.535 685.653C189.628 685.354 191.125 685.354 192.918 685.054V618.379H217.434L217.134 701.796" fill="#000813"/>
<path d="M295.771 660.835C295.771 644.99 290.09 637.216 278.428 637.216C275.909 637.219 273.4 637.519 270.953 638.112C268.856 638.619 266.843 639.425 264.975 640.503V685.054C266.17 685.354 267.666 685.354 269.459 685.653C271.252 685.653 273.345 685.952 275.44 685.952C278.343 686.083 281.237 685.528 283.886 684.333C286.535 683.138 288.865 681.336 290.688 679.073C294.265 673.682 296.044 667.298 295.771 660.835ZM320.587 661.433C320.713 667.84 319.7 674.218 317.596 680.271C315.796 685.633 312.837 690.533 308.927 694.621C304.853 698.55 300.089 701.693 294.873 703.892C288.723 706.018 282.242 707.029 275.736 706.879C272.749 706.879 269.759 706.58 266.469 706.283C263.179 705.987 260.192 705.685 256.902 705.383C253.911 705.086 250.921 704.487 247.931 703.889C245.374 703.45 242.869 702.749 240.456 701.796V581.003L264.975 577.118V620.172C267.758 618.963 270.665 618.06 273.644 617.481C276.797 616.873 280.002 616.573 283.214 616.586C288.771 616.484 294.283 617.606 299.357 619.873C303.99 621.889 308.086 624.961 311.319 628.844C314.758 633.028 317.211 637.933 318.494 643.194C319.849 649.18 320.551 655.296 320.587 661.433" fill="#000813"/>
<path d="M335.24 662.331C335.078 655.481 336.297 648.668 338.826 642.299C340.987 636.975 344.132 632.106 348.096 627.946C351.761 624.09 356.261 621.125 361.249 619.277C366.18 617.252 371.467 616.234 376.797 616.283C382.158 616.038 387.511 616.923 392.507 618.88C397.504 620.838 402.033 623.825 405.8 627.646C412.976 635.121 416.562 646.188 416.562 660.535C416.603 662.136 416.504 663.738 416.265 665.321C416.265 666.815 415.966 668.309 415.966 669.806H360.349C360.592 672.204 361.361 674.52 362.602 676.587C363.843 678.654 365.524 680.422 367.527 681.764C372.505 684.964 378.358 686.532 384.269 686.249C388.684 686.31 393.093 685.909 397.425 685.054C401.107 684.435 404.715 683.432 408.189 682.064L411.476 702.096C410.282 702.694 408.489 703.293 406.097 704.188C403.678 705.002 401.165 705.504 398.619 705.685C395.759 706.27 392.863 706.669 389.95 706.879C386.96 707.178 383.673 707.478 380.68 707.478C373.732 707.638 366.822 706.419 360.349 703.892C355.006 701.768 350.13 698.619 345.998 694.621C342.305 690.425 339.463 685.551 337.628 680.271C336.06 674.419 335.255 668.389 335.234 662.331M392.941 652.764C392.861 650.72 392.457 648.701 391.743 646.783C391.152 644.852 390.242 643.033 389.052 641.401C387.634 639.614 385.808 638.193 383.727 637.257C381.647 636.32 379.372 635.896 377.094 636.019C374.624 636.021 372.181 636.529 369.916 637.513C368.042 638.283 366.397 639.518 365.135 641.102C363.791 642.68 362.774 644.51 362.142 646.484C361.504 648.44 361.004 650.439 360.648 652.465H392.941" fill="#000813"/>
<path d="M487.425 639.908C484.883 639.181 482.281 638.68 479.651 638.411C476.499 637.802 473.294 637.501 470.084 637.513C468.181 637.61 466.284 637.809 464.402 638.112C462.793 638.328 461.197 638.628 459.619 639.01V705.086H435.1V622.863C440.189 621.141 445.382 619.743 450.648 618.678C457.217 617.181 463.943 616.478 470.68 616.586C472.28 616.553 473.879 616.652 475.463 616.882C477.369 616.949 479.267 617.149 481.145 617.481C482.941 617.78 484.734 618.08 486.826 618.379C488.619 618.678 490.415 619.277 491.61 619.573L487.425 639.908Z" fill="#000813"/>
<path d="M504.765 621.369C516.768 618.203 529.129 616.595 541.542 616.586C547.762 616.327 553.969 617.343 559.781 619.574C564.35 621.113 568.392 623.912 571.441 627.647C574.256 631.389 576.29 635.66 577.422 640.204C578.675 645.493 579.277 650.915 579.215 656.351V705.086H554.696V659.344C554.696 651.57 553.8 645.888 551.708 642.599C549.616 639.309 545.727 637.815 540.046 637.815C538.147 637.773 536.248 637.873 534.364 638.115C532.557 638.15 530.756 638.35 528.985 638.713V705.389H504.765V621.372" fill="#000813"/>
<path d="M597.453 662.331C597.292 655.481 598.511 648.668 601.04 642.299C603.201 636.975 606.346 632.106 610.31 627.946C613.976 624.09 618.476 621.124 623.466 619.277C628.397 617.252 633.684 616.234 639.014 616.283C644.375 616.038 649.727 616.923 654.724 618.88C659.721 620.838 664.25 623.825 668.017 627.646C675.189 635.121 678.778 646.188 678.778 660.535C678.819 662.136 678.719 663.738 678.479 665.321C678.479 666.815 678.18 668.309 678.18 669.806H622.568C622.812 672.204 623.581 674.52 624.822 676.587C626.063 678.654 627.744 680.422 629.746 681.764C634.724 684.964 640.575 686.531 646.486 686.249C650.902 686.31 655.312 685.91 659.645 685.054C663.326 684.435 666.933 683.432 670.406 682.064L673.696 702.096C672.501 702.694 670.705 703.293 668.314 704.188C665.895 705.001 663.384 705.504 660.839 705.685C657.977 706.27 655.081 706.669 652.167 706.879C649.18 707.178 645.89 707.478 642.899 707.478C635.952 707.638 629.042 706.419 622.568 703.892C617.225 701.768 612.35 698.619 608.218 694.621C604.524 690.425 601.68 685.551 599.845 680.271C598.277 674.419 597.473 668.389 597.453 662.331M655.158 652.764C655.078 650.72 654.675 648.701 653.963 646.783C653.371 644.852 652.462 643.033 651.272 641.401C649.853 639.614 648.027 638.192 645.946 637.256C643.864 636.319 641.589 635.895 639.31 636.019C636.842 636.021 634.4 636.53 632.135 637.513C630.261 638.282 628.614 639.518 627.352 641.102C626.009 642.681 624.993 644.51 624.361 646.484C623.723 648.44 623.224 650.438 622.868 652.465H655.158" fill="#000813"/>
<path d="M697.018 596.85L721.534 592.965V618.379H750.836V638.71H721.534V669.207C721.33 673.459 722.258 677.689 724.225 681.465C726.021 684.458 729.906 685.952 735.288 685.952C737.989 685.902 740.684 685.702 743.362 685.354C746.006 684.872 748.607 684.172 751.136 683.261L754.722 702.395C751.551 703.746 748.243 704.749 744.855 705.386C740.433 706.311 735.917 706.712 731.4 706.58C725.701 706.736 720.024 705.824 714.661 703.892C710.633 702.256 707.046 699.695 704.193 696.414C701.422 692.907 699.48 688.819 698.511 684.456C697.511 679.435 697.011 674.327 697.018 669.207V596.85" fill="#000813"/>
<path d="M763.393 662.331C763.232 655.48 764.453 648.668 766.983 642.299C769.143 636.975 772.287 632.106 776.25 627.946C779.916 624.09 784.417 621.124 789.406 619.277C794.337 617.252 799.624 616.234 804.954 616.283C810.315 616.038 815.667 616.923 820.664 618.88C825.661 620.838 830.19 623.825 833.957 627.646C841.132 635.121 844.719 646.188 844.719 660.535C844.759 662.136 844.659 663.738 844.419 665.321C844.419 666.815 844.12 668.309 844.12 669.806H788.508C788.752 672.204 789.521 674.52 790.762 676.587C792.003 678.654 793.684 680.422 795.686 681.764C800.664 684.964 806.515 686.531 812.426 686.249C816.842 686.31 821.252 685.91 825.585 685.054C829.266 684.435 832.873 683.432 836.346 682.064L839.636 702.096C838.441 702.694 836.645 703.293 834.254 704.188C831.836 705.001 829.324 705.504 826.779 705.685C823.918 706.27 821.023 706.669 818.11 706.879C815.117 707.178 811.833 707.478 808.84 707.478C801.892 707.638 794.982 706.419 788.508 703.892C783.165 701.768 778.29 698.619 774.158 694.621C770.465 690.425 767.622 685.551 765.788 680.271C764.074 674.449 763.266 668.398 763.393 662.331M820.801 652.764C820.721 650.72 820.317 648.701 819.604 646.783C819.012 644.852 818.103 643.033 816.913 641.401C815.494 639.614 813.668 638.193 811.588 637.257C809.507 636.32 807.232 635.896 804.954 636.019C802.484 636.021 800.041 636.529 797.776 637.513C795.902 638.282 794.255 639.518 792.992 641.102C791.651 642.681 790.635 644.51 790.005 646.484C789.366 648.44 788.866 650.438 788.508 652.465H820.801" fill="#000813"/>
<path d="M888.072 687.147C891.31 687.385 894.562 686.979 897.642 685.952C898.537 685.459 899.269 684.715 899.747 683.812C900.225 682.908 900.427 681.884 900.33 680.867C900.33 678.774 899.136 677.28 896.744 675.787C893.249 673.699 889.54 671.994 885.68 670.701C881.795 669.207 878.206 667.713 875.218 666.217C872.357 664.847 869.732 663.03 867.441 660.835C865.244 658.609 863.516 655.966 862.359 653.061C861.085 649.62 860.476 645.968 860.566 642.299C860.401 638.622 861.13 634.959 862.693 631.626C864.255 628.293 866.602 625.389 869.534 623.163C875.515 618.379 883.887 615.984 894.352 615.984C899.47 616.023 904.573 616.524 909.601 617.481C913.484 618.072 917.293 619.076 920.964 620.474L916.776 639.608C913.786 638.71 910.795 637.812 907.505 636.917C903.888 636.027 900.168 635.625 896.445 635.72C888.671 635.72 885.082 637.812 885.082 641.997C885.137 642.921 885.339 643.831 885.68 644.691C886.1 645.694 886.835 646.533 887.773 647.083C888.671 647.682 890.165 648.577 891.661 649.475C893.454 650.37 895.547 650.968 898.238 652.166C902.866 653.82 907.363 655.818 911.693 658.144C914.834 659.584 917.597 661.734 919.766 664.424C921.831 666.476 923.28 669.065 923.951 671.898C924.846 675.005 925.25 678.233 925.148 681.465C925.338 685.251 924.559 689.023 922.884 692.424C921.209 695.825 918.695 698.743 915.579 700.901C909.301 705.386 900.33 707.478 888.371 707.478C881.927 707.676 875.487 706.972 869.237 705.386C865.648 704.643 862.141 703.541 858.772 702.096L862.957 682.064C867.142 683.673 871.439 684.971 875.814 685.949C879.842 686.806 883.954 687.208 888.072 687.147" fill="#000813"/>
<path d="M204.648 803.086C202.312 803.086 200.184 802.702 198.264 801.934C196.344 801.166 194.696 800.046 193.32 798.574C191.944 797.102 190.872 795.294 190.104 793.15C189.368 790.974 189 788.494 189 785.71C189 782.926 189.416 780.462 190.248 778.318C191.112 776.142 192.264 774.318 193.704 772.846C195.144 771.374 196.824 770.254 198.744 769.486C200.664 768.718 202.712 768.334 204.888 768.334C206.264 768.334 207.496 768.43 208.584 768.622C209.704 768.814 210.664 769.038 211.464 769.294C212.296 769.55 212.968 769.806 213.48 770.062C213.992 770.318 214.344 770.51 214.536 770.638L213.192 774.478C212.904 774.286 212.488 774.078 211.944 773.854C211.4 773.63 210.776 773.406 210.072 773.182C209.4 772.958 208.648 772.782 207.816 772.654C207.016 772.494 206.2 772.414 205.368 772.414C203.608 772.414 202.024 772.718 200.616 773.326C199.208 773.934 198.008 774.814 197.016 775.966C196.024 777.118 195.256 778.526 194.712 780.19C194.2 781.822 193.944 783.662 193.944 785.71C193.944 787.694 194.168 789.502 194.616 791.134C195.096 792.766 195.8 794.174 196.728 795.358C197.656 796.51 198.808 797.406 200.184 798.046C201.592 798.686 203.224 799.006 205.08 799.006C207.224 799.006 209 798.782 210.408 798.334C211.816 797.886 212.872 797.486 213.576 797.134L214.776 800.974C214.552 801.134 214.152 801.342 213.576 801.598C213 801.822 212.28 802.046 211.416 802.27C210.552 802.494 209.544 802.686 208.392 802.846C207.24 803.006 205.992 803.086 204.648 803.086Z" fill="#000813"/>
<path d="M241.151 789.886C241.151 791.87 240.863 793.662 240.287 795.262C239.711 796.862 238.895 798.238 237.839 799.39C236.815 800.542 235.583 801.438 234.143 802.078C232.703 802.686 231.134 802.99 229.438 802.99C227.742 802.99 226.175 802.686 224.735 802.078C223.295 801.438 222.046 800.542 220.99 799.39C219.966 798.238 219.166 796.862 218.59 795.262C218.014 793.662 217.726 791.87 217.726 789.886C217.726 787.934 218.014 786.158 218.59 784.558C219.166 782.926 219.966 781.534 220.99 780.382C222.046 779.23 223.295 778.35 224.735 777.742C226.175 777.102 227.742 776.782 229.438 776.782C231.134 776.782 232.703 777.102 234.143 777.742C235.583 778.35 236.815 779.23 237.839 780.382C238.895 781.534 239.711 782.926 240.287 784.558C240.863 786.158 241.151 787.934 241.151 789.886ZM236.495 789.886C236.495 787.07 235.855 784.846 234.575 783.214C233.327 781.55 231.614 780.718 229.438 780.718C227.262 780.718 225.535 781.55 224.255 783.214C223.007 784.846 222.382 787.07 222.382 789.886C222.382 792.702 223.007 794.942 224.255 796.606C225.535 798.238 227.262 799.054 229.438 799.054C231.614 799.054 233.327 798.238 234.575 796.606C235.855 794.942 236.495 792.702 236.495 789.886Z" fill="#000813"/>
<path d="M247.431 778.126C248.455 777.87 249.799 777.598 251.463 777.31C253.159 777.022 255.111 776.878 257.319 776.878C258.919 776.878 260.263 777.102 261.351 777.55C262.439 777.966 263.351 778.59 264.087 779.422C264.311 779.262 264.663 779.038 265.143 778.75C265.623 778.462 266.215 778.19 266.919 777.934C267.623 777.646 268.407 777.406 269.271 777.214C270.135 776.99 271.063 776.878 272.055 776.878C273.975 776.878 275.543 777.166 276.759 777.742C277.975 778.286 278.919 779.07 279.591 780.094C280.295 781.118 280.759 782.334 280.983 783.742C281.239 785.15 281.367 786.686 281.367 788.35V802.366H276.903V789.31C276.903 787.838 276.823 786.574 276.663 785.518C276.535 784.462 276.263 783.582 275.847 782.878C275.463 782.174 274.919 781.662 274.215 781.342C273.543 780.99 272.663 780.814 271.575 780.814C270.071 780.814 268.823 781.022 267.831 781.438C266.871 781.822 266.215 782.174 265.863 782.494C266.119 783.326 266.311 784.238 266.439 785.23C266.567 786.222 266.631 787.262 266.631 788.35V802.366H262.167V789.31C262.167 787.838 262.087 786.574 261.927 785.518C261.767 784.462 261.479 783.582 261.063 782.878C260.679 782.174 260.135 781.662 259.431 781.342C258.759 780.99 257.895 780.814 256.839 780.814C256.391 780.814 255.911 780.83 255.399 780.862C254.887 780.894 254.391 780.942 253.911 781.006C253.463 781.038 253.047 781.086 252.663 781.15C252.279 781.214 252.023 781.262 251.895 781.294V802.366H247.431V778.126Z" fill="#000813"/>
<path d="M288.775 778.126C289.799 777.87 291.143 777.598 292.807 777.31C294.503 777.022 296.455 776.878 298.663 776.878C300.263 776.878 301.607 777.102 302.695 777.55C303.783 777.966 304.695 778.59 305.431 779.422C305.655 779.262 306.007 779.038 306.487 778.75C306.967 778.462 307.559 778.19 308.263 777.934C308.967 777.646 309.751 777.406 310.615 777.214C311.479 776.99 312.407 776.878 313.399 776.878C315.319 776.878 316.887 777.166 318.103 777.742C319.319 778.286 320.263 779.07 320.935 780.094C321.639 781.118 322.103 782.334 322.327 783.742C322.583 785.15 322.711 786.686 322.711 788.35V802.366H318.247V789.31C318.247 787.838 318.167 786.574 318.007 785.518C317.879 784.462 317.607 783.582 317.191 782.878C316.807 782.174 316.263 781.662 315.559 781.342C314.887 780.99 314.007 780.814 312.919 780.814C311.415 780.814 310.167 781.022 309.175 781.438C308.215 781.822 307.559 782.174 307.207 782.494C307.463 783.326 307.655 784.238 307.783 785.23C307.911 786.222 307.975 787.262 307.975 788.35V802.366H303.511V789.31C303.511 787.838 303.431 786.574 303.271 785.518C303.111 784.462 302.823 783.582 302.407 782.878C302.023 782.174 301.479 781.662 300.775 781.342C300.103 780.99 299.239 780.814 298.183 780.814C297.735 780.814 297.255 780.83 296.743 780.862C296.231 780.894 295.735 780.942 295.255 781.006C294.807 781.038 294.391 781.086 294.007 781.15C293.623 781.214 293.367 781.262 293.239 781.294V802.366H288.775V778.126Z" fill="#000813"/>
<path d="M349.99 801.646C348.966 801.902 347.607 802.174 345.911 802.462C344.247 802.75 342.31 802.894 340.102 802.894C338.182 802.894 336.567 802.622 335.255 802.078C333.943 801.502 332.887 800.702 332.087 799.678C331.287 798.654 330.711 797.454 330.359 796.078C330.007 794.67 329.831 793.118 329.831 791.422V777.406H334.294V790.462C334.294 793.502 334.774 795.678 335.734 796.99C336.694 798.302 338.311 798.958 340.583 798.958C341.063 798.958 341.558 798.942 342.07 798.91C342.582 798.878 343.062 798.846 343.51 798.814C343.958 798.75 344.358 798.702 344.71 798.67C345.094 798.606 345.367 798.542 345.527 798.478V777.406H349.99V801.646Z" fill="#000813"/>
<path d="M357.681 778.126C358.705 777.87 360.065 777.598 361.761 777.31C363.457 777.022 365.409 776.878 367.617 776.878C369.601 776.878 371.249 777.166 372.561 777.742C373.873 778.286 374.913 779.07 375.681 780.094C376.481 781.086 377.041 782.286 377.361 783.694C377.681 785.102 377.841 786.654 377.841 788.35V802.366H373.377V789.31C373.377 787.774 373.265 786.462 373.041 785.374C372.849 784.286 372.513 783.406 372.033 782.734C371.553 782.062 370.913 781.582 370.113 781.294C369.313 780.974 368.321 780.814 367.137 780.814C366.657 780.814 366.161 780.83 365.649 780.862C365.137 780.894 364.641 780.942 364.161 781.006C363.713 781.038 363.297 781.086 362.913 781.15C362.561 781.214 362.305 781.262 362.145 781.294V802.366H357.681V778.126Z" fill="#000813"/>
<path d="M389.708 802.366H385.243V777.406H389.708V802.366ZM387.452 772.894C386.652 772.894 385.963 772.638 385.387 772.126C384.843 771.582 384.572 770.862 384.572 769.966C384.572 769.07 384.843 768.366 385.387 767.854C385.963 767.31 386.652 767.038 387.452 767.038C388.252 767.038 388.923 767.31 389.467 767.854C390.043 768.366 390.331 769.07 390.331 769.966C390.331 770.862 390.043 771.582 389.467 772.126C388.923 772.638 388.252 772.894 387.452 772.894Z" fill="#000813"/>
<path d="M401.56 777.406H411.016V781.15H401.56V792.67C401.56 793.918 401.656 794.958 401.848 795.79C402.04 796.59 402.328 797.23 402.712 797.71C403.096 798.158 403.576 798.478 404.152 798.67C404.728 798.862 405.4 798.958 406.168 798.958C407.512 798.958 408.584 798.814 409.384 798.526C410.216 798.206 410.792 797.982 411.112 797.854L411.976 801.55C411.528 801.774 410.744 802.046 409.624 802.366C408.504 802.718 407.224 802.894 405.784 802.894C404.088 802.894 402.68 802.686 401.56 802.27C400.472 801.822 399.592 801.166 398.92 800.302C398.248 799.438 397.768 798.382 397.48 797.134C397.224 795.854 397.096 794.382 397.096 792.718V770.446L401.56 769.678V777.406Z" fill="#000813"/>
<path d="M413.769 807.022C414.121 807.182 414.569 807.326 415.113 807.454C415.689 807.614 416.249 807.694 416.793 807.694C418.553 807.694 419.929 807.294 420.921 806.494C421.913 805.726 422.809 804.462 423.609 802.702C421.593 798.862 419.705 794.798 417.945 790.51C416.217 786.19 414.777 781.822 413.625 777.406H418.425C418.777 778.846 419.193 780.398 419.673 782.062C420.185 783.726 420.745 785.438 421.353 787.198C421.961 788.958 422.617 790.718 423.321 792.478C424.025 794.238 424.761 795.934 425.529 797.566C426.745 794.206 427.801 790.878 428.697 787.582C429.593 784.286 430.441 780.894 431.241 777.406H435.849C434.697 782.11 433.417 786.638 432.009 790.99C430.601 795.31 429.081 799.358 427.449 803.134C426.809 804.574 426.137 805.806 425.433 806.83C424.761 807.886 424.009 808.75 423.177 809.422C422.345 810.094 421.401 810.59 420.345 810.91C419.321 811.23 418.153 811.39 416.841 811.39C416.489 811.39 416.121 811.358 415.737 811.294C415.353 811.262 414.969 811.198 414.585 811.102C414.233 811.038 413.897 810.958 413.577 810.862C413.289 810.766 413.081 810.686 412.953 810.622L413.769 807.022Z" fill="#000813"/>
<path d="M467.793 782.686C467.249 782.238 466.465 781.806 465.441 781.39C464.417 780.974 463.297 780.766 462.081 780.766C460.801 780.766 459.697 781.006 458.769 781.486C457.873 781.934 457.137 782.574 456.561 783.406C455.985 784.206 455.569 785.166 455.313 786.286C455.057 787.406 454.929 788.606 454.929 789.886C454.929 792.798 455.649 795.054 457.089 796.654C458.529 798.222 460.449 799.006 462.849 799.006C464.065 799.006 465.073 798.958 465.873 798.862C466.705 798.734 467.345 798.606 467.793 798.478V782.686ZM467.793 765.886L472.257 765.118V801.646C471.233 801.934 469.921 802.222 468.321 802.51C466.721 802.798 464.881 802.942 462.801 802.942C460.881 802.942 459.153 802.638 457.617 802.03C456.081 801.422 454.769 800.558 453.681 799.438C452.593 798.318 451.745 796.958 451.137 795.358C450.561 793.726 450.273 791.902 450.273 789.886C450.273 787.966 450.513 786.206 450.993 784.606C451.505 783.006 452.241 781.63 453.201 780.478C454.161 779.326 455.329 778.43 456.705 777.79C458.113 777.15 459.713 776.83 461.505 776.83C462.945 776.83 464.209 777.022 465.297 777.406C466.417 777.79 467.249 778.158 467.793 778.51V765.886Z" fill="#000813"/>
<path d="M488.379 799.15C489.435 799.15 490.363 799.134 491.163 799.102C491.995 799.038 492.683 798.942 493.227 798.814V791.374C492.907 791.214 492.379 791.086 491.643 790.99C490.939 790.862 490.075 790.798 489.051 790.798C488.379 790.798 487.659 790.846 486.891 790.942C486.155 791.038 485.467 791.246 484.827 791.566C484.219 791.854 483.707 792.27 483.291 792.814C482.875 793.326 482.667 794.014 482.667 794.878C482.667 796.478 483.179 797.598 484.203 798.238C485.227 798.846 486.619 799.15 488.379 799.15ZM487.995 776.782C489.787 776.782 491.291 777.022 492.507 777.502C493.755 777.95 494.747 778.606 495.483 779.47C496.251 780.302 496.795 781.31 497.115 782.494C497.435 783.646 497.595 784.926 497.595 786.334V801.934C497.211 801.998 496.667 802.094 495.963 802.222C495.291 802.318 494.523 802.414 493.659 802.51C492.795 802.606 491.851 802.686 490.827 802.75C489.835 802.846 488.843 802.894 487.851 802.894C486.443 802.894 485.147 802.75 483.963 802.462C482.779 802.174 481.755 801.726 480.891 801.118C480.027 800.478 479.355 799.646 478.875 798.622C478.395 797.598 478.155 796.366 478.155 794.926C478.155 793.55 478.427 792.366 478.971 791.374C479.547 790.382 480.315 789.582 481.275 788.974C482.235 788.366 483.355 787.918 484.635 787.63C485.915 787.342 487.259 787.198 488.667 787.198C489.115 787.198 489.579 787.23 490.059 787.294C490.539 787.326 490.987 787.39 491.403 787.486C491.851 787.55 492.235 787.614 492.555 787.678C492.875 787.742 493.099 787.79 493.227 787.822V786.574C493.227 785.838 493.147 785.118 492.987 784.414C492.827 783.678 492.539 783.038 492.123 782.494C491.707 781.918 491.131 781.47 490.395 781.15C489.691 780.798 488.763 780.622 487.611 780.622C486.139 780.622 484.843 780.734 483.723 780.958C482.635 781.15 481.819 781.358 481.275 781.582L480.747 777.886C481.323 777.63 482.283 777.39 483.627 777.166C484.971 776.91 486.427 776.782 487.995 776.782Z" fill="#000813"/>
<path d="M501.378 807.022C501.73 807.182 502.178 807.326 502.722 807.454C503.298 807.614 503.858 807.694 504.402 807.694C506.162 807.694 507.538 807.294 508.53 806.494C509.522 805.726 510.418 804.462 511.218 802.702C509.202 798.862 507.314 794.798 505.554 790.51C503.826 786.19 502.386 781.822 501.234 777.406H506.034C506.386 778.846 506.802 780.398 507.282 782.062C507.794 783.726 508.354 785.438 508.962 787.198C509.57 788.958 510.226 790.718 510.93 792.478C511.634 794.238 512.37 795.934 513.138 797.566C514.354 794.206 515.41 790.878 516.306 787.582C517.202 784.286 518.05 780.894 518.85 777.406H523.458C522.306 782.11 521.026 786.638 519.618 790.99C518.21 795.31 516.69 799.358 515.058 803.134C514.418 804.574 513.746 805.806 513.042 806.83C512.37 807.886 511.618 808.75 510.786 809.422C509.954 810.094 509.01 810.59 507.954 810.91C506.93 811.23 505.762 811.39 504.45 811.39C504.098 811.39 503.73 811.358 503.346 811.294C502.962 811.262 502.578 811.198 502.194 811.102C501.842 811.038 501.506 810.958 501.186 810.862C500.898 810.766 500.69 810.686 500.562 810.622L501.378 807.022Z" fill="#000813"/>
<path d="M533.973 799.15C535.797 799.15 537.141 798.91 538.005 798.43C538.901 797.95 539.349 797.182 539.349 796.126C539.349 795.038 538.917 794.174 538.053 793.534C537.189 792.894 535.765 792.174 533.781 791.374C532.821 790.99 531.893 790.606 530.997 790.222C530.133 789.806 529.381 789.326 528.741 788.782C528.101 788.238 527.589 787.582 527.205 786.814C526.821 786.046 526.629 785.102 526.629 783.982C526.629 781.774 527.445 780.03 529.077 778.75C530.709 777.438 532.933 776.782 535.749 776.782C536.453 776.782 537.157 776.83 537.861 776.926C538.565 776.99 539.221 777.086 539.829 777.214C540.437 777.31 540.965 777.422 541.413 777.55C541.893 777.678 542.261 777.79 542.517 777.886L541.701 781.726C541.221 781.47 540.469 781.214 539.445 780.958C538.421 780.67 537.189 780.526 535.749 780.526C534.501 780.526 533.413 780.782 532.485 781.294C531.557 781.774 531.093 782.542 531.093 783.598C531.093 784.142 531.189 784.622 531.381 785.038C531.605 785.454 531.925 785.838 532.341 786.19C532.789 786.51 533.333 786.814 533.973 787.102C534.613 787.39 535.381 787.694 536.277 788.014C537.461 788.462 538.517 788.91 539.445 789.358C540.373 789.774 541.157 790.27 541.797 790.846C542.469 791.422 542.981 792.126 543.333 792.958C543.685 793.758 543.861 794.75 543.861 795.934C543.861 798.238 542.997 799.982 541.269 801.166C539.573 802.35 537.141 802.942 533.973 802.942C531.765 802.942 530.037 802.75 528.789 802.366C527.541 802.014 526.693 801.742 526.245 801.55L527.061 797.71C527.573 797.902 528.389 798.19 529.509 798.574C530.629 798.958 532.117 799.15 533.973 799.15Z" fill="#000813"/>
<path d="M569.529 769.102C570.105 770.158 570.761 771.47 571.497 773.038C572.265 774.574 573.049 776.254 573.849 778.078C574.681 779.87 575.497 781.71 576.297 783.598C577.097 785.486 577.849 787.262 578.553 788.926C579.257 787.262 580.009 785.486 580.809 783.598C581.609 781.71 582.409 779.87 583.209 778.078C584.041 776.254 584.825 774.574 585.561 773.038C586.329 771.47 587.001 770.158 587.577 769.102H594.393C594.713 771.31 595.001 773.79 595.257 776.542C595.545 779.262 595.785 782.11 595.977 785.086C596.201 788.03 596.393 790.99 596.553 793.966C596.745 796.942 596.905 799.742 597.033 802.366H589.737C589.641 799.134 589.513 795.614 589.353 791.806C589.193 787.998 588.953 784.158 588.633 780.286C588.057 781.63 587.417 783.118 586.713 784.75C586.009 786.382 585.305 788.014 584.601 789.646C583.929 791.278 583.273 792.846 582.633 794.35C581.993 795.822 581.449 797.086 581.001 798.142H575.769C575.321 797.086 574.777 795.822 574.137 794.35C573.497 792.846 572.825 791.278 572.121 789.646C571.449 788.014 570.761 786.382 570.057 784.75C569.353 783.118 568.713 781.63 568.137 780.286C567.817 784.158 567.577 787.998 567.417 791.806C567.257 795.614 567.129 799.134 567.033 802.366H559.737C559.865 799.742 560.009 796.942 560.169 793.966C560.361 790.99 560.553 788.03 560.745 785.086C560.969 782.11 561.209 779.262 561.465 776.542C561.753 773.79 562.057 771.31 562.377 769.102H569.529Z" fill="#000813"/>
<path d="M603.775 802.366V769.102H626.239V775.39H611.263V781.918H624.559V788.062H611.263V796.078H627.343V802.366H603.775Z" fill="#000813"/>
<path d="M655.204 802.366C653.06 798.558 650.74 794.798 648.244 791.086C645.748 787.374 643.092 783.87 640.276 780.574V802.366H632.884V769.102H638.98C640.036 770.158 641.204 771.454 642.484 772.99C643.764 774.526 645.06 776.174 646.372 777.934C647.716 779.662 649.044 781.47 650.356 783.358C651.668 785.214 652.9 787.006 654.052 788.734V769.102H661.492V802.366H655.204Z" fill="#000813"/>
<path d="M691.437 802.366C691.085 801.214 690.685 800.03 690.237 798.814C689.821 797.598 689.405 796.382 688.989 795.166H676.029C675.613 796.382 675.181 797.598 674.733 798.814C674.317 800.03 673.933 801.214 673.581 802.366H665.805C667.053 798.782 668.237 795.47 669.357 792.43C670.477 789.39 671.565 786.526 672.621 783.838C673.709 781.15 674.765 778.606 675.789 776.206C676.845 773.774 677.933 771.406 679.053 769.102H686.205C687.293 771.406 688.365 773.774 689.421 776.206C690.477 778.606 691.533 781.15 692.589 783.838C693.677 786.526 694.781 789.39 695.901 792.43C697.021 795.47 698.205 798.782 699.453 802.366H691.437ZM682.461 776.638C682.301 777.118 682.061 777.774 681.741 778.606C681.421 779.438 681.053 780.398 680.637 781.486C680.221 782.574 679.757 783.774 679.245 785.086C678.765 786.398 678.269 787.774 677.757 789.214H687.213C686.701 787.774 686.205 786.398 685.725 785.086C685.245 783.774 684.781 782.574 684.333 781.486C683.917 780.398 683.549 779.438 683.229 778.606C682.909 777.774 682.653 777.118 682.461 776.638Z" fill="#000813"/>
<path d="M735.258 777.838C735.258 779.054 735.018 780.222 734.538 781.342C734.058 782.462 733.434 783.55 732.666 784.606C731.898 785.63 731.034 786.622 730.074 787.582C729.114 788.542 728.17 789.454 727.242 790.318C726.762 790.766 726.234 791.278 725.658 791.854C725.114 792.398 724.586 792.958 724.074 793.534C723.562 794.11 723.098 794.654 722.682 795.166C722.298 795.646 722.058 796.046 721.962 796.366H736.266V802.366H714.09C714.026 802.014 713.994 801.566 713.994 801.022C713.994 800.478 713.994 800.094 713.994 799.87C713.994 798.334 714.234 796.926 714.714 795.646C715.226 794.366 715.882 793.182 716.682 792.094C717.482 790.974 718.378 789.934 719.37 788.974C720.394 788.014 721.402 787.054 722.394 786.094C723.162 785.358 723.882 784.67 724.554 784.03C725.226 783.358 725.818 782.718 726.33 782.11C726.842 781.47 727.242 780.846 727.53 780.238C727.818 779.598 727.962 778.958 727.962 778.318C727.962 776.91 727.562 775.918 726.762 775.342C725.962 774.766 724.97 774.478 723.786 774.478C722.922 774.478 722.106 774.622 721.338 774.91C720.602 775.166 719.914 775.486 719.274 775.87C718.666 776.222 718.138 776.59 717.69 776.974C717.242 777.326 716.906 777.614 716.682 777.838L713.13 772.846C714.538 771.534 716.17 770.462 718.026 769.63C719.914 768.766 721.93 768.334 724.074 768.334C726.026 768.334 727.706 768.558 729.114 769.006C730.522 769.454 731.674 770.094 732.57 770.926C733.498 771.726 734.17 772.718 734.586 773.902C735.034 775.054 735.258 776.366 735.258 777.838Z" fill="#000813"/>
<path d="M764.364 785.662C764.364 791.262 763.292 795.566 761.148 798.574C759.036 801.55 756.108 803.038 752.364 803.038C748.62 803.038 745.676 801.55 743.532 798.574C741.42 795.566 740.364 791.262 740.364 785.662C740.364 782.878 740.636 780.414 741.18 778.27C741.756 776.126 742.572 774.318 743.628 772.846C744.684 771.374 745.948 770.254 747.42 769.486C748.892 768.718 750.54 768.334 752.364 768.334C756.108 768.334 759.036 769.838 761.148 772.846C763.292 775.822 764.364 780.094 764.364 785.662ZM757.068 785.662C757.068 783.998 756.988 782.494 756.828 781.15C756.668 779.774 756.412 778.59 756.06 777.598C755.708 776.606 755.228 775.838 754.62 775.294C754.012 774.75 753.26 774.478 752.364 774.478C751.468 774.478 750.716 774.75 750.108 775.294C749.532 775.838 749.052 776.606 748.668 777.598C748.316 778.59 748.06 779.774 747.9 781.15C747.74 782.494 747.66 783.998 747.66 785.662C747.66 787.326 747.74 788.846 747.9 790.222C748.06 791.598 748.316 792.782 748.668 793.774C749.052 794.766 749.532 795.534 750.108 796.078C750.716 796.622 751.468 796.894 752.364 796.894C753.26 796.894 754.012 796.622 754.62 796.078C755.228 795.534 755.708 794.766 756.06 793.774C756.412 792.782 756.668 791.598 756.828 790.222C756.988 788.846 757.068 787.326 757.068 785.662Z" fill="#000813"/>
<path d="M789.821 777.838C789.821 779.054 789.581 780.222 789.101 781.342C788.621 782.462 787.997 783.55 787.229 784.606C786.461 785.63 785.597 786.622 784.637 787.582C783.677 788.542 782.733 789.454 781.805 790.318C781.325 790.766 780.797 791.278 780.221 791.854C779.677 792.398 779.149 792.958 778.637 793.534C778.125 794.11 777.661 794.654 777.245 795.166C776.861 795.646 776.621 796.046 776.525 796.366H790.829V802.366H768.653C768.589 802.014 768.557 801.566 768.557 801.022C768.557 800.478 768.557 800.094 768.557 799.87C768.557 798.334 768.797 796.926 769.277 795.646C769.789 794.366 770.445 793.182 771.245 792.094C772.045 790.974 772.941 789.934 773.933 788.974C774.957 788.014 775.965 787.054 776.957 786.094C777.725 785.358 778.445 784.67 779.117 784.03C779.789 783.358 780.381 782.718 780.893 782.11C781.405 781.47 781.805 780.846 782.093 780.238C782.381 779.598 782.525 778.958 782.525 778.318C782.525 776.91 782.125 775.918 781.325 775.342C780.525 774.766 779.533 774.478 778.349 774.478C777.485 774.478 776.669 774.622 775.901 774.91C775.165 775.166 774.477 775.486 773.837 775.87C773.229 776.222 772.701 776.59 772.253 776.974C771.805 777.326 771.469 777.614 771.245 777.838L767.693 772.846C769.101 771.534 770.733 770.462 772.589 769.63C774.477 768.766 776.493 768.334 778.637 768.334C780.589 768.334 782.269 768.558 783.677 769.006C785.085 769.454 786.237 770.094 787.133 770.926C788.061 771.726 788.733 772.718 789.149 773.902C789.597 775.054 789.821 776.366 789.821 777.838Z" fill="#000813"/>
<path d="M817.102 777.838C817.102 779.054 816.862 780.222 816.382 781.342C815.902 782.462 815.278 783.55 814.51 784.606C813.742 785.63 812.878 786.622 811.918 787.582C810.958 788.542 810.014 789.454 809.086 790.318C808.606 790.766 808.078 791.278 807.502 791.854C806.958 792.398 806.43 792.958 805.918 793.534C805.406 794.11 804.942 794.654 804.526 795.166C804.142 795.646 803.902 796.046 803.806 796.366H818.11V802.366H795.934C795.87 802.014 795.838 801.566 795.838 801.022C795.838 800.478 795.838 800.094 795.838 799.87C795.838 798.334 796.078 796.926 796.558 795.646C797.07 794.366 797.726 793.182 798.526 792.094C799.326 790.974 800.222 789.934 801.214 788.974C802.238 788.014 803.246 787.054 804.238 786.094C805.006 785.358 805.726 784.67 806.398 784.03C807.07 783.358 807.662 782.718 808.174 782.11C808.686 781.47 809.086 780.846 809.374 780.238C809.662 779.598 809.806 778.958 809.806 778.318C809.806 776.91 809.406 775.918 808.606 775.342C807.806 774.766 806.814 774.478 805.63 774.478C804.766 774.478 803.95 774.622 803.182 774.91C802.446 775.166 801.758 775.486 801.118 775.87C800.51 776.222 799.982 776.59 799.534 776.974C799.086 777.326 798.75 777.614 798.526 777.838L794.974 772.846C796.382 771.534 798.014 770.462 799.87 769.63C801.758 768.766 803.774 768.334 805.918 768.334C807.87 768.334 809.55 768.558 810.958 769.006C812.366 769.454 813.518 770.094 814.414 770.926C815.342 771.726 816.014 772.718 816.43 773.902C816.878 775.054 817.102 776.366 817.102 777.838Z" fill="#000813"/>
<defs>
<clipPath id="clip0_20_56">
<rect width="875.176" height="474.224" fill="white" transform="translate(50.447 50)"/>
</clipPath>
<clipPath id="clip1_20_56">
<rect width="263" height="251" fill="white" transform="translate(359 409)"/>
</clipPath>
</defs>
</svg>
